Amstelvar-Roman-opsz14-wght1000-wdth50.ufo
<glyph name="ampersand" format="2">
	<unicode hex="0026"/>
	<advance width="1394"/>
	<outline>
		<contour>
			<point x="488" y="-28" type="qcurve" smooth="yes"/>
			<point x="290" y="-28"/>
			<point x="11" y="152"/>
			<point x="11" y="326" type="qcurve" smooth="yes"/>
			<point x="11" y="517"/>
			<point x="258" y="753"/>
			<point x="460" y="867" type="qcurve" smooth="yes"/>
			<point x="605" y="949"/>
			<point x="671" y="1106"/>
			<point x="671" y="1196" type="qcurve" smooth="yes"/>
			<point x="671" y="1269"/>
			<point x="632" y="1346"/>
			<point x="587" y="1346" type="qcurve" smooth="yes"/>
			<point x="546" y="1346"/>
			<point x="501" y="1284"/>
			<point x="501" y="1212" type="qcurve" smooth="yes"/>
			<point x="501" y="1117"/>
			<point x="593" y="970"/>
			<point x="678" y="906" type="qcurve"/>
			<point x="1063" y="275" type="line" smooth="yes"/>
			<point x="1107" y="203"/>
			<point x="1165" y="156"/>
			<point x="1195" y="156" type="qcurve" smooth="yes"/>
			<point x="1222" y="156"/>
			<point x="1273" y="189"/>
			<point x="1310" y="226" type="qcurve"/>
			<point x="1389" y="125" type="line"/>
			<point x="1349" y="61"/>
			<point x="1170" y="-38"/>
			<point x="1045" y="-37" type="qcurve" smooth="yes"/>
			<point x="919" y="-36"/>
			<point x="708" y="71"/>
			<point x="637" y="191" type="qcurve" smooth="yes"/>
			<point x="307" y="752" type="line"/>
			<point x="252" y="795"/>
			<point x="158" y="1024"/>
			<point x="158" y="1167" type="qcurve" smooth="yes"/>
			<point x="157" y="1326"/>
			<point x="378" y="1527"/>
			<point x="558" y="1527" type="qcurve" smooth="yes"/>
			<point x="747" y="1527"/>
			<point x="952" y="1363"/>
			<point x="952" y="1226" type="qcurve" smooth="yes"/>
			<point x="952" y="1078"/>
			<point x="722" y="878"/>
			<point x="605" y="814" type="qcurve" smooth="yes"/>
			<point x="489" y="750"/>
			<point x="361" y="588"/>
			<point x="361" y="430" type="qcurve" smooth="yes"/>
			<point x="361" y="295"/>
			<point x="514" y="156"/>
			<point x="634" y="156" type="qcurve" smooth="yes"/>
			<point x="771" y="156"/>
			<point x="1054" y="533"/>
			<point x="1093" y="852" type="qcurve"/>
			<point x="1261" y="838" type="line"/>
			<point x="1227" y="454"/>
			<point x="792" y="-28"/>
		</contour>
		<contour>
			<point x="896" y="841" type="line"/>
			<point x="919" y="914"/>
			<point x="1009" y="981"/>
			<point x="1042" y="981" type="qcurve" smooth="yes"/>
			<point x="1074" y="981"/>
			<point x="1171" y="923"/>
			<point x="1213" y="923" type="qcurve" smooth="yes"/>
			<point x="1234" y="923"/>
			<point x="1268" y="933"/>
			<point x="1284" y="961" type="qcurve"/>
			<point x="1393" y="882" type="line"/>
			<point x="1364" y="788"/>
			<point x="1275" y="708"/>
			<point x="1242" y="708" type="qcurve" smooth="yes"/>
			<point x="1193" y="708"/>
			<point x="1073" y="783"/>
			<point x="1045" y="783" type="qcurve" smooth="yes"/>
			<point x="1017" y="783"/>
			<point x="982" y="769"/>
			<point x="965" y="749" type="qcurve"/>
		</contour>
	</outline>
</glyph>
<glyph name="parenright" format="2">
	<unicode hex="0029"/>
	<advance width="785"/>
	<outline>
		<contour>
			<point x="711" y="653" type="qcurve" smooth="yes"/>
			<point x="711" y="371"/>
			<point x="370" y="-92"/>
			<point x="109" y="-218" type="qcurve"/>
			<point x="13" y="-128" type="line"/>
			<point x="109" y="0"/>
			<point x="217" y="412"/>
			<point x="217" y="654" type="qcurve" smooth="yes"/>
			<point x="217" y="894"/>
			<point x="107" y="1324"/>
			<point x="14" y="1445" type="qcurve"/>
			<point x="120" y="1525" type="line"/>
			<point x="371" y="1411"/>
			<point x="711" y="926"/>
		</contour>
	</outline>
</glyph>
<glyph name="plus" format="2">
	<unicode hex="002B"/>
	<advance width="889"/>
	<outline>
		<contour>
			<point x="48" y="501" type="line"/>
			<point x="48" y="763" type="line"/>
			<point x="841" y="763" type="line"/>
			<point x="841" y="501" type="line"/>
		</contour>
		<contour>
			<point x="290" y="224" type="line"/>
			<point x="290" y="1040" type="line"/>
			<point x="599" y="1040" type="line"/>
			<point x="599" y="224" type="line"/>
		</contour>
	</outline>
</glyph>
<glyph name="two" format="2">
	<unicode hex="0032"/>
	<advance width="1074"/>
	<outline>
		<contour>
			<point x="22" y="0" type="line"/>
			<point x="22" y="161" type="line"/>
			<point x="23" y="289"/>
			<point x="158" y="572"/>
			<point x="270" y="675" type="qcurve" smooth="yes"/>
			<point x="386" y="781"/>
			<point x="519" y="979"/>
			<point x="519" y="1093" type="qcurve" smooth="yes"/>
			<point x="519" y="1180"/>
			<point x="431" y="1269"/>
			<point x="362" y="1269" type="qcurve" smooth="yes"/>
			<point x="294" y="1269"/>
			<point x="155" y="1206"/>
			<point x="123" y="1176" type="qcurve"/>
			<point x="27" y="1330" type="line"/>
			<point x="91" y="1390"/>
			<point x="387" y="1526"/>
			<point x="556" y="1526" type="qcurve" smooth="yes"/>
			<point x="770" y="1526"/>
			<point x="1016" y="1333"/>
			<point x="1021" y="1157" type="qcurve" smooth="yes"/>
			<point x="1027" y="965"/>
			<point x="840" y="710"/>
			<point x="631" y="591" type="qcurve" smooth="yes"/>
			<point x="438" y="481"/>
			<point x="326" y="420"/>
			<point x="301" y="390" type="qcurve"/>
			<point x="303" y="383" type="line"/>
			<point x="1019" y="383" type="line"/>
			<point x="1019" y="0" type="line"/>
		</contour>
	</outline>
</glyph>
<glyph name="six" format="2">
	<unicode hex="0036"/>
	<advance width="1157"/>
	<outline>
		<contour>
			<point x="42" y="692" type="qcurve" smooth="yes"/>
			<point x="42" y="1054"/>
			<point x="496" y="1503"/>
			<point x="888" y="1560" type="qcurve"/>
			<point x="928" y="1413" type="line"/>
			<point x="692" y="1383"/>
			<point x="528" y="1078"/>
			<point x="528" y="649" type="qcurve" smooth="yes"/>
			<point x="528" y="311"/>
			<point x="552" y="115"/>
			<point x="599" y="115" type="qcurve" smooth="yes"/>
			<point x="658" y="115"/>
			<point x="674" y="345"/>
			<point x="674" y="464" type="qcurve" smooth="yes"/>
			<point x="674" y="712"/>
			<point x="644" y="789"/>
			<point x="613" y="789" type="qcurve" smooth="yes"/>
			<point x="587" y="789"/>
			<point x="541" y="747"/>
			<point x="524" y="702" type="qcurve"/>
			<point x="490" y="802" type="line"/>
			<point x="520" y="877"/>
			<point x="676" y="986"/>
			<point x="778" y="986" type="qcurve" smooth="yes"/>
			<point x="937" y="986"/>
			<point x="1137" y="767"/>
			<point x="1137" y="532" type="qcurve" smooth="yes"/>
			<point x="1137" y="271"/>
			<point x="816" y="-27"/>
			<point x="598" y="-27" type="qcurve" smooth="yes"/>
			<point x="361" y="-27"/>
			<point x="42" y="351"/>
		</contour>
	</outline>
</glyph>
<glyph name="less" format="2">
	<unicode hex="003C"/>
	<advance width="889"/>
	<outline>
		<contour>
			<point x="35" y="634" type="qcurve"/>
			<point x="35" y="634"/>
			<point x="558" y="1087"/>
			<point x="625" y="1148" type="qcurve" smooth="yes"/>
			<point x="710" y="1226"/>
			<point x="860" y="1039"/>
			<point x="785" y="956" type="qcurve" smooth="yes"/>
			<point x="690" y="848"/>
			<point x="508" y="661"/>
			<point x="483" y="637" type="qcurve"/>
			<point x="515" y="610"/>
			<point x="705" y="424"/>
			<point x="790" y="325" type="qcurve" smooth="yes"/>
			<point x="862" y="244"/>
			<point x="707" y="63"/>
			<point x="637" y="126" type="qcurve" smooth="yes"/>
			<point x="571" y="187"/>
			<point x="35" y="635"/>
		</contour>
	</outline>
</glyph>
<glyph name="at" format="2">
	<unicode hex="0040"/>
	<advance width="1296"/>
	<outline>
		<contour>
			<point x="55" y="708" type="qcurve" smooth="yes"/>
			<point x="55" y="1160"/>
			<point x="404" y="1519"/>
			<point x="668" y="1519" type="qcurve" smooth="yes"/>
			<point x="932" y="1519"/>
			<point x="1236" y="1180"/>
			<point x="1236" y="826" type="qcurve" smooth="yes"/>
			<point x="1236" y="545"/>
			<point x="1052" y="341"/>
			<point x="871" y="341" type="qcurve" smooth="yes"/>
			<point x="792" y="341"/>
			<point x="712" y="391"/>
			<point x="695" y="431" type="qcurve"/>
			<point x="677" y="397"/>
			<point x="581" y="338"/>
			<point x="513" y="338" type="qcurve" smooth="yes"/>
			<point x="425" y="338"/>
			<point x="308" y="445"/>
			<point x="308" y="551" type="qcurve" smooth="yes"/>
			<point x="308" y="675"/>
			<point x="503" y="821"/>
			<point x="705" y="877" type="qcurve"/>
			<point x="710" y="809" type="line"/>
			<point x="632" y="782"/>
			<point x="577" y="667"/>
			<point x="577" y="570" type="qcurve" smooth="yes"/>
			<point x="577" y="516"/>
			<point x="599" y="474"/>
			<point x="626" y="474" type="qcurve" smooth="yes"/>
			<point x="644" y="474"/>
			<point x="669" y="494"/>
			<point x="673" y="524" type="qcurve"/>
			<point x="675" y="887" type="line" smooth="yes"/>
			<point x="675" y="994"/>
			<point x="631" y="1067"/>
			<point x="589" y="1067" type="qcurve" smooth="yes"/>
			<point x="554" y="1067"/>
			<point x="518" y="1047"/>
			<point x="504" y="1027" type="qcurve"/>
			<point x="516" y="1013"/>
			<point x="532" y="964"/>
			<point x="533" y="943" type="qcurve" smooth="yes"/>
			<point x="533" y="901"/>
			<point x="477" y="858"/>
			<point x="435" y="858" type="qcurve" smooth="yes"/>
			<point x="394" y="858"/>
			<point x="338" y="919"/>
			<point x="339" y="977" type="qcurve" smooth="yes"/>
			<point x="341" y="1059"/>
			<point x="493" y="1186"/>
			<point x="635" y="1186" type="qcurve" smooth="yes"/>
			<point x="789" y="1186"/>
			<point x="960" y="1050"/>
			<point x="961" y="887" type="qcurve" smooth="yes"/>
			<point x="963" y="549" type="line" smooth="yes"/>
			<point x="963" y="512"/>
			<point x="981" y="490"/>
			<point x="1004" y="490" type="qcurve" smooth="yes"/>
			<point x="1049" y="490"/>
			<point x="1091" y="616"/>
			<point x="1092" y="787" type="qcurve" smooth="yes"/>
			<point x="1093" y="1095"/>
			<point x="871" y="1387"/>
			<point x="663" y="1387" type="qcurve" smooth="yes"/>
			<point x="455" y="1387"/>
			<point x="201" y="1100"/>
			<point x="200" y="753" type="qcurve" smooth="yes"/>
			<point x="199" y="365"/>
			<point x="435" y="111"/>
			<point x="637" y="111" type="qcurve" smooth="yes"/>
			<point x="766" y="111"/>
			<point x="927" y="176"/>
			<point x="987" y="221" type="qcurve"/>
			<point x="1039" y="121" type="line"/>
			<point x="975" y="62"/>
			<point x="783" y="-24"/>
			<point x="639" y="-24" type="qcurve" smooth="yes"/>
			<point x="382" y="-24"/>
			<point x="55" y="299"/>
		</contour>
	</outline>
</glyph>
<glyph name="A" format="2">
  <advance width="1122"/>
  <unicode hex="0041"/>
  <anchor x="561.0" y="0" name="bottom"/>
  <anchor x="502" y="0" name="ogonek"/>
  <anchor x="561.0" y="1500" name="top"/>
  <outline>
    <contour>
      <point x="-18" y="0" type="line"/>
      <point x="-18" y="124" type="line"/>
      <point x="64" y="148" type="line"/>
      <point x="159" y="630" type="line"/>
      <point x="325" y="1500" type="line"/>
      <point x="783" y="1500" type="line"/>
      <point x="958" y="655" type="line"/>
      <point x="1064" y="157" type="line"/>
      <point x="1144" y="124" type="line"/>
      <point x="1144" y="0" type="line"/>
      <point x="457" y="0" type="line"/>
      <point x="457" y="124" type="line"/>
      <point x="544" y="161" type="line"/>
      <point x="472" y="539" type="line"/>
      <point x="381" y="1039" type="line"/>
      <point x="307" y="599" type="line"/>
      <point x="228" y="152" type="line"/>
      <point x="309" y="124" type="line"/>
      <point x="309" y="0" type="line"/>
    </contour>
    <contour>
      <point x="370" y="530" type="line"/>
      <point x="618" y="541" type="line"/>
      <point x="632" y="408" type="line"/>
      <point x="370" y="408" type="line"/>
    </contour>
    <contour>
      <point x="186" y="408" type="line"/>
      <point x="206" y="540" type="line"/>
      <point x="370" y="530" type="line"/>
      <point x="370" y="408" type="line"/>
    </contour>
  </outline>
</glyph>
<glyph name="B" format="2">
  <advance width="1206"/>
  <unicode hex="0042"/>
  <anchor x="603.0" y="0" name="bottom"/>
  <anchor x="603.0" y="1500" name="top"/>
  <outline>
    <contour>
      <point x="15" y="0" type="line"/>
      <point x="15" y="126" type="line"/>
      <point x="79" y="160" type="line"/>
      <point x="81" y="724" type="line"/>
      <point x="79" y="1328" type="line"/>
      <point x="15" y="1362" type="line"/>
      <point x="15" y="1500" type="line"/>
      <point x="712" y="1500" type="line" smooth="yes"/>
      <point x="927" y="1500"/>
      <point x="1138" y="1312"/>
      <point x="1138" y="1163" type="qcurve" smooth="yes"/>
      <point x="1138" y="1006"/>
      <point x="1014" y="852"/>
      <point x="940" y="830" type="qcurve"/>
      <point x="940" y="823" type="line"/>
      <point x="1047" y="789"/>
      <point x="1188" y="604"/>
      <point x="1188" y="433" type="qcurve" smooth="yes"/>
      <point x="1188" y="246"/>
      <point x="966" y="0"/>
      <point x="765" y="0" type="qcurve" smooth="yes"/>
    </contour>
    <contour>
      <point x="566" y="160" type="line"/>
      <point x="581" y="140" type="line"/>
      <point x="604" y="140" type="line" smooth="yes"/>
      <point x="668" y="140"/>
      <point x="695" y="255"/>
      <point x="695" y="440" type="qcurve" smooth="yes"/>
      <point x="695" y="625"/>
      <point x="654" y="723"/>
      <point x="598" y="723" type="qcurve" smooth="yes"/>
      <point x="572" y="723" type="line"/>
      <point x="564" y="712" type="line"/>
    </contour>
    <contour>
      <point x="565" y="875" type="line"/>
      <point x="570" y="865" type="line"/>
      <point x="596" y="865" type="line" smooth="yes"/>
      <point x="644" y="865"/>
      <point x="684" y="939"/>
      <point x="684" y="1110" type="qcurve" smooth="yes"/>
      <point x="684" y="1299"/>
      <point x="640" y="1350"/>
      <point x="601" y="1350" type="qcurve" smooth="yes"/>
      <point x="576" y="1350" type="line"/>
      <point x="567" y="1337" type="line"/>
    </contour>
  </outline>
</glyph>
<glyph name="C" format="2">
  <advance width="1129"/>
  <unicode hex="0043"/>
  <anchor x="619" y="0" name="bottom"/>
  <anchor x="629" y="1500" name="top"/>
  <outline>
    <contour>
      <point x="49" y="722" type="qcurve" smooth="yes"/>
      <point x="49" y="1108"/>
      <point x="365" y="1524"/>
      <point x="630" y="1524" type="qcurve" smooth="yes"/>
      <point x="735" y="1524"/>
      <point x="859" y="1455"/>
      <point x="887" y="1410" type="qcurve"/>
      <point x="933" y="1499" type="line"/>
      <point x="1053" y="1499" type="line"/>
      <point x="1053" y="1003" type="line"/>
      <point x="885" y="1003" type="line"/>
      <point x="863" y="1170" type="line" smooth="yes"/>
      <point x="852" y="1257"/>
      <point x="784" y="1360"/>
      <point x="719" y="1360" type="qcurve" smooth="yes"/>
      <point x="653" y="1360"/>
      <point x="591" y="1189"/>
      <point x="589" y="738" type="qcurve" smooth="yes"/>
      <point x="587" y="345"/>
      <point x="667" y="185"/>
      <point x="769" y="185" type="qcurve" smooth="yes"/>
      <point x="841" y="185"/>
      <point x="952" y="287"/>
      <point x="1006" y="392" type="qcurve"/>
      <point x="1113" y="275" type="line"/>
      <point x="1051" y="145"/>
      <point x="806" y="-17"/>
      <point x="619" y="-17" type="qcurve" smooth="yes"/>
      <point x="369" y="-17"/>
      <point x="49" y="379"/>
    </contour>
  </outline>
</glyph>
<glyph name="F" format="2">
  <advance width="983"/>
  <unicode hex="0046"/>
  <anchor x="491.5" y="0" name="bottom"/>
  <anchor x="491.5" y="1500" name="top"/>
  <outline>
    <contour>
      <point x="16" y="0" type="line"/>
      <point x="16" y="126" type="line"/>
      <point x="79" y="159" type="line"/>
      <point x="81" y="748" type="line"/>
      <point x="79" y="1328" type="line"/>
      <point x="16" y="1362" type="line"/>
      <point x="16" y="1500" type="line"/>
      <point x="966" y="1500" type="line"/>
      <point x="966" y="1139" type="line"/>
      <point x="802" y="1139" type="line"/>
      <point x="767" y="1332" type="line"/>
      <point x="606" y="1332" type="line"/>
      <point x="570" y="1308" type="line"/>
      <point x="574" y="760" type="line"/>
      <point x="576" y="163" type="line"/>
      <point x="689" y="127" type="line"/>
      <point x="689" y="0" type="line"/>
    </contour>
    <contour>
      <point x="347" y="698" type="line"/>
      <point x="347" y="834" type="line"/>
      <point x="716" y="844" type="line"/>
      <point x="743" y="995" type="line"/>
      <point x="887" y="995" type="line"/>
      <point x="887" y="540" type="line"/>
      <point x="743" y="540" type="line"/>
      <point x="716" y="688" type="line"/>
    </contour>
  </outline>
</glyph>
<glyph name="G" format="2">
  <advance width="1196"/>
  <unicode hex="0047"/>
  <anchor x="638.0" y="0" name="bottom"/>
  <anchor x="602.0" y="1500" name="top"/>
  <outline>
    <contour>
      <point x="49" y="713" type="qcurve" smooth="yes"/>
      <point x="49" y="1119"/>
      <point x="364" y="1523"/>
      <point x="603" y="1523" type="qcurve" smooth="yes"/>
      <point x="725" y="1523"/>
      <point x="868" y="1456"/>
      <point x="906" y="1406" type="qcurve"/>
      <point x="949" y="1499" type="line"/>
      <point x="1081" y="1499" type="line"/>
      <point x="1081" y="1021" type="line"/>
      <point x="902" y="1021" type="line"/>
      <point x="884" y="1151" type="line" smooth="yes"/>
      <point x="868" y="1263"/>
      <point x="781" y="1363"/>
      <point x="713" y="1363" type="qcurve" smooth="yes"/>
      <point x="637" y="1363"/>
      <point x="580" y="1199"/>
      <point x="580" y="742" type="qcurve" smooth="yes"/>
      <point x="580" y="255"/>
      <point x="604" y="170"/>
      <point x="639" y="170" type="qcurve" smooth="yes"/>
      <point x="660" y="170"/>
      <point x="685" y="187"/>
      <point x="690" y="204" type="qcurve"/>
      <point x="690" y="583" type="line"/>
      <point x="638" y="613" type="line"/>
      <point x="638" y="758" type="line"/>
      <point x="1193" y="758" type="line"/>
      <point x="1193" y="613" type="line"/>
      <point x="1148" y="583" type="line"/>
      <point x="1148" y="172" type="line"/>
      <point x="1067" y="94"/>
      <point x="818" y="-17"/>
      <point x="639" y="-17" type="qcurve" smooth="yes"/>
      <point x="356" y="-17"/>
      <point x="49" y="368"/>
    </contour>
  </outline>
</glyph>
<glyph name="H" format="2">
  <advance width="1288"/>
  <unicode hex="0048"/>
  <anchor x="644.0" y="0" name="bottom"/>
  <anchor x="644.0" y="1088.0" name="center"/>
  <anchor x="644.0" y="1500" name="top"/>
  <outline>
    <contour>
      <point x="15" y="0" type="line"/>
      <point x="15" y="126" type="line"/>
      <point x="78" y="161" type="line"/>
      <point x="80" y="754" type="line"/>
      <point x="78" y="1328" type="line"/>
      <point x="15" y="1362" type="line"/>
      <point x="15" y="1500" type="line"/>
      <point x="616" y="1500" type="line"/>
      <point x="616" y="1362" type="line"/>
      <point x="569" y="1328" type="line"/>
      <point x="567" y="754" type="line"/>
      <point x="569" y="161" type="line"/>
      <point x="616" y="126" type="line"/>
      <point x="616" y="0" type="line"/>
    </contour>
    <contour>
      <point x="331" y="698" type="line"/>
      <point x="331" y="856" type="line"/>
      <point x="650" y="848" type="line"/>
      <point x="976" y="856" type="line"/>
      <point x="976" y="698" type="line"/>
      <point x="650" y="698" type="line"/>
    </contour>
    <contour>
      <point x="666" y="0" type="line"/>
      <point x="666" y="126" type="line"/>
      <point x="719" y="161" type="line"/>
      <point x="721" y="754" type="line"/>
      <point x="719" y="1328" type="line"/>
      <point x="666" y="1362" type="line"/>
      <point x="666" y="1500" type="line"/>
      <point x="1273" y="1500" type="line"/>
      <point x="1273" y="1362" type="line"/>
      <point x="1210" y="1328" type="line"/>
      <point x="1208" y="754" type="line"/>
      <point x="1210" y="161" type="line"/>
      <point x="1273" y="126" type="line"/>
      <point x="1273" y="0" type="line"/>
    </contour>
  </outline>
</glyph>
<glyph name="J" format="2">
  <advance width="663"/>
  <unicode hex="004A"/>
  <anchor x="331.5" y="-239" name="bottom"/>
  <anchor x="331.5" y="1500" name="top"/>
  <outline>
    <contour>
      <point x="-45" y="-234" type="qcurve"/>
      <point x="-45" y="-59" type="line"/>
      <point x="-28" y="-60"/>
      <point x="-7" y="-58"/>
      <point x="23" y="-55" type="qcurve" smooth="yes"/>
      <point x="64" y="-51"/>
      <point x="91" y="38"/>
      <point x="92" y="132" type="qcurve" smooth="yes"/>
      <point x="96" y="754" type="line"/>
      <point x="94" y="1328" type="line"/>
      <point x="23" y="1362" type="line"/>
      <point x="23" y="1500" type="line"/>
      <point x="649" y="1500" type="line"/>
      <point x="649" y="1362" type="line"/>
      <point x="584" y="1328" type="line"/>
      <point x="583" y="754" type="line"/>
      <point x="585" y="199" type="line" smooth="yes"/>
      <point x="586" y="-19"/>
      <point x="363" y="-232"/>
      <point x="130" y="-239" type="qcurve" smooth="yes"/>
      <point x="71" y="-241"/>
      <point x="-35" y="-238"/>
    </contour>
  </outline>
</glyph>
<glyph name="M" format="2">
  <advance width="1471"/>
  <unicode hex="004D"/>
  <anchor x="735.5" y="0" name="bottom"/>
  <anchor x="735.5" y="1500" name="top"/>
  <outline>
    <contour>
      <point x="15" y="0" type="line"/>
      <point x="15" y="126" type="line"/>
      <point x="77" y="161" type="line"/>
      <point x="79" y="741" type="line"/>
      <point x="77" y="1329" type="line"/>
      <point x="15" y="1363" type="line"/>
      <point x="15" y="1500" type="line"/>
      <point x="606" y="1500" type="line"/>
      <point x="660" y="877" type="line"/>
      <point x="699" y="418" type="line"/>
      <point x="746" y="856" type="line"/>
      <point x="810" y="1500" type="line"/>
      <point x="1456" y="1500" type="line"/>
      <point x="1456" y="1363" type="line"/>
      <point x="1392" y="1329" type="line"/>
      <point x="1390" y="756" type="line"/>
      <point x="1392" y="161" type="line"/>
      <point x="1456" y="126" type="line"/>
      <point x="1456" y="0" type="line"/>
      <point x="859" y="0" type="line"/>
      <point x="859" y="126" type="line"/>
      <point x="913" y="161" type="line"/>
      <point x="915" y="757" type="line"/>
      <point x="913" y="1179" type="line"/>
      <point x="871" y="797" type="line"/>
      <point x="790" y="-5" type="line"/>
      <point x="352" y="-5" type="line"/>
      <point x="277" y="729" type="line"/>
      <point x="228" y="1179" type="line"/>
      <point x="226" y="743" type="line"/>
      <point x="228" y="161" type="line"/>
      <point x="296" y="126" type="line"/>
      <point x="296" y="0" type="line"/>
    </contour>
  </outline>
</glyph>
<glyph name="N" format="2">
  <advance width="1103"/>
  <unicode hex="004E"/>
  <anchor x="551.5" y="0" name="bottom"/>
  <anchor x="551.5" y="1500" name="top"/>
  <outline>
    <contour>
      <point x="15" y="0" type="line"/>
      <point x="15" y="126" type="line"/>
      <point x="77" y="160" type="line"/>
      <point x="79" y="754" type="line"/>
      <point x="77" y="1329" type="line"/>
      <point x="15" y="1363" type="line"/>
      <point x="15" y="1500" type="line"/>
      <point x="560" y="1500" type="line"/>
      <point x="745" y="924" type="line"/>
      <point x="874" y="521" type="line"/>
      <point x="872" y="803" type="line"/>
      <point x="869" y="1329" type="line"/>
      <point x="803" y="1363" type="line"/>
      <point x="803" y="1500" type="line"/>
      <point x="1093" y="1500" type="line"/>
      <point x="1093" y="1363" type="line"/>
      <point x="1030" y="1329" type="line"/>
      <point x="1024" y="799" type="line"/>
      <point x="1026" y="0" type="line"/>
      <point x="593" y="0" type="line"/>
      <point x="372" y="652" type="line"/>
      <point x="234" y="1059" type="line"/>
      <point x="236" y="701" type="line"/>
      <point x="238" y="160" type="line"/>
      <point x="334" y="126" type="line"/>
      <point x="334" y="0" type="line"/>
    </contour>
  </outline>
</glyph>
<glyph name="O" format="2">
  <advance width="1333"/>
  <unicode hex="004F"/>
  <anchor x="666.5" y="0" name="bottom"/>
  <anchor x="666.5" y="750.0" name="center"/>
  <anchor x="808" y="0" name="ogonek"/>
  <anchor x="666.5" y="1500" name="top"/>
  <anchor x="851" y="1500" name="topright"/>
  <outline>
    <contour>
      <point x="49" y="747" type="qcurve" smooth="yes"/>
      <point x="49" y="1076"/>
      <point x="391" y="1527"/>
      <point x="667" y="1527" type="qcurve" smooth="yes"/>
      <point x="944" y="1527"/>
      <point x="1284" y="1105"/>
      <point x="1284" y="762" type="qcurve" smooth="yes"/>
      <point x="1284" y="435"/>
      <point x="948" y="-16"/>
      <point x="670" y="-16" type="qcurve" smooth="yes"/>
      <point x="389" y="-16"/>
      <point x="49" y="409"/>
    </contour>
    <contour>
      <point x="581" y="783" type="qcurve" smooth="yes"/>
      <point x="581" y="251"/>
      <point x="617" y="151"/>
      <point x="668" y="151" type="qcurve" smooth="yes"/>
      <point x="719" y="151"/>
      <point x="754" y="250"/>
      <point x="754" y="759" type="qcurve" smooth="yes"/>
      <point x="754" y="1258"/>
      <point x="711" y="1358"/>
      <point x="666" y="1358" type="qcurve" smooth="yes"/>
      <point x="621" y="1358"/>
      <point x="581" y="1252"/>
    </contour>
  </outline>
</glyph>
<glyph name="P" format="2">
  <advance width="1168"/>
  <unicode hex="0050"/>
  <anchor x="584.0" y="0" name="bottom"/>
  <anchor x="584.0" y="1500" name="top"/>
  <outline>
    <contour>
      <point x="15" y="0" type="line"/>
      <point x="15" y="125" type="line"/>
      <point x="79" y="159" type="line"/>
      <point x="81" y="754" type="line"/>
      <point x="79" y="1328" type="line"/>
      <point x="15" y="1362" type="line"/>
      <point x="15" y="1500" type="line"/>
      <point x="774" y="1500" type="line" smooth="yes"/>
      <point x="961" y="1500"/>
      <point x="1160" y="1277"/>
      <point x="1160" y="1049" type="qcurve" smooth="yes"/>
      <point x="1160" y="796"/>
      <point x="898" y="563"/>
      <point x="692" y="563" type="qcurve" smooth="yes"/>
      <point x="633" y="563"/>
      <point x="546" y="574"/>
      <point x="511" y="582" type="qcurve"/>
      <point x="517" y="720" type="line"/>
      <point x="536" y="713"/>
      <point x="580" y="706"/>
      <point x="607" y="706" type="qcurve" smooth="yes"/>
      <point x="658" y="706"/>
      <point x="686" y="806"/>
      <point x="686" y="1046" type="qcurve" smooth="yes"/>
      <point x="686" y="1286"/>
      <point x="655" y="1361"/>
      <point x="624" y="1361" type="qcurve" smooth="yes"/>
      <point x="586" y="1361" type="line"/>
      <point x="569" y="1341" type="line"/>
      <point x="567" y="764" type="line"/>
      <point x="569" y="163" type="line"/>
      <point x="640" y="126" type="line"/>
      <point x="640" y="0" type="line"/>
    </contour>
  </outline>
</glyph>
<glyph name="Q" format="2">
  <advance width="1333"/>
  <unicode hex="0051"/>
  <anchor x="666.5" y="0" name="bottom"/>
  <anchor x="666.5" y="1500" name="top"/>
  <outline>
    <contour>
      <point x="49" y="738" type="qcurve" smooth="yes"/>
      <point x="49" y="1076"/>
      <point x="373" y="1527"/>
      <point x="667" y="1527" type="qcurve" smooth="yes"/>
      <point x="962" y="1527"/>
      <point x="1284" y="1105"/>
      <point x="1284" y="760" type="qcurve" smooth="yes"/>
      <point x="1284" y="454"/>
      <point x="938" y="3"/>
      <point x="674" y="3" type="qcurve" smooth="yes"/>
      <point x="410" y="3"/>
      <point x="49" y="406"/>
    </contour>
    <contour>
      <point x="578" y="782" type="qcurve" smooth="yes"/>
      <point x="578" y="290"/>
      <point x="608" y="155"/>
      <point x="664" y="155" type="qcurve" smooth="yes"/>
      <point x="714" y="155"/>
      <point x="751" y="282"/>
      <point x="751" y="757" type="qcurve" smooth="yes"/>
      <point x="751" y="1263"/>
      <point x="712" y="1358"/>
      <point x="665" y="1358" type="qcurve" smooth="yes"/>
      <point x="618" y="1358"/>
      <point x="578" y="1270"/>
    </contour>
    <contour>
      <point x="299" y="-418" type="qcurve"/>
      <point x="184" y="-378" type="line"/>
      <point x="236" y="-212"/>
      <point x="384" y="-50"/>
      <point x="464" y="-40" type="qcurve"/>
      <point x="560" y="144" type="line"/>
      <point x="658" y="86" type="line"/>
      <point x="582" y="-60" type="line"/>
      <point x="871" y="-185" type="line"/>
      <point x="970" y="-185"/>
      <point x="1069" y="-118"/>
      <point x="1094" y="-36" type="qcurve"/>
      <point x="1182" y="-80" type="line"/>
      <point x="1158" y="-249"/>
      <point x="986" y="-487"/>
      <point x="872" y="-487" type="qcurve"/>
      <point x="474" y="-312" type="line"/>
      <point x="385" y="-312"/>
      <point x="330" y="-347"/>
    </contour>
  </outline>
</glyph>
<glyph name="R" format="2">
  <advance width="1300"/>
  <unicode hex="0052"/>
  <anchor x="705.0" y="0" name="bottom"/>
  <anchor x="534.0" y="1500" name="top"/>
  <outline>
    <contour>
      <point x="15" y="0" type="line"/>
      <point x="15" y="125" type="line"/>
      <point x="78" y="159" type="line"/>
      <point x="80" y="734" type="line"/>
      <point x="78" y="1328" type="line"/>
      <point x="15" y="1362" type="line"/>
      <point x="15" y="1500" type="line"/>
      <point x="734" y="1500" type="line" smooth="yes"/>
      <point x="965" y="1500"/>
      <point x="1200" y="1298"/>
      <point x="1200" y="1116" type="qcurve" smooth="yes"/>
      <point x="1200" y="940"/>
      <point x="938" y="691"/>
      <point x="703" y="691" type="qcurve" smooth="yes"/>
      <point x="657" y="691"/>
      <point x="364" y="695"/>
      <point x="331" y="700" type="qcurve"/>
      <point x="331" y="829" type="line"/>
      <point x="600" y="829" type="line" smooth="yes"/>
      <point x="666" y="829"/>
      <point x="701" y="923"/>
      <point x="701" y="1099" type="qcurve" smooth="yes"/>
      <point x="701" y="1275"/>
      <point x="662" y="1349"/>
      <point x="611" y="1351" type="qcurve" smooth="yes"/>
      <point x="581" y="1351" type="line"/>
      <point x="568" y="1335" type="line"/>
      <point x="566" y="720" type="line"/>
      <point x="568" y="159" type="line"/>
      <point x="641" y="126" type="line"/>
      <point x="641" y="0" type="line"/>
    </contour>
    <contour>
      <point x="574" y="751" type="line"/>
      <point x="1036" y="812" type="line"/>
      <point x="1176" y="371" type="line" smooth="yes"/>
      <point x="1217" y="242"/>
      <point x="1252" y="135"/>
      <point x="1314" y="130" type="qcurve"/>
      <point x="1314" y="0" type="line"/>
      <point x="819" y="0" type="line"/>
      <point x="768" y="56" type="line"/>
    </contour>
  </outline>
</glyph>
<glyph name="T" format="2">
  <advance width="1131"/>
  <unicode hex="0054"/>
  <anchor x="565.5" y="0" name="bottom"/>
  <anchor x="565.5" y="750.0" name="center"/>
  <anchor x="565.5" y="1500" name="top"/>
  <outline>
    <contour>
      <point x="18" y="1076" type="line"/>
      <point x="18" y="1500" type="line"/>
      <point x="1113" y="1500" type="line"/>
      <point x="1113" y="1076" type="line"/>
      <point x="957" y="1076" type="line"/>
      <point x="917" y="1362" type="line"/>
      <point x="826" y="1362" type="line"/>
      <point x="808" y="1346" type="line"/>
      <point x="808" y="754" type="line"/>
      <point x="810" y="159" type="line"/>
      <point x="901" y="125" type="line"/>
      <point x="901" y="0" type="line"/>
      <point x="228" y="0" type="line"/>
      <point x="228" y="125" type="line"/>
      <point x="319" y="159" type="line"/>
      <point x="321" y="754" type="line"/>
      <point x="321" y="1346" type="line"/>
      <point x="311" y="1362" type="line"/>
      <point x="213" y="1362" type="line"/>
      <point x="173" y="1076" type="line"/>
    </contour>
  </outline>
</glyph>
<glyph name="U" format="2">
  <advance width="1013"/>
  <unicode hex="0055"/>
  <anchor x="506.5" y="0" name="bottom"/>
  <anchor x="682" y="0" name="ogonek"/>
  <anchor x="506.5" y="1500" name="top"/>
  <anchor x="1014" y="1500" name="topright"/>
  <outline>
    <contour>
      <point x="0" y="1363" type="line"/>
      <point x="0" y="1500" type="line"/>
      <point x="624" y="1500" type="line"/>
      <point x="624" y="1363" type="line"/>
      <point x="548" y="1329" type="line"/>
      <point x="554" y="794" type="line"/>
      <point x="556" y="367" type="line" smooth="yes"/>
      <point x="556" y="273"/>
      <point x="604" y="173"/>
      <point x="674" y="173" type="qcurve" smooth="yes"/>
      <point x="746" y="173"/>
      <point x="789" y="294"/>
      <point x="789" y="407" type="qcurve" smooth="yes"/>
      <point x="789" y="794" type="line"/>
      <point x="789" y="1329" type="line"/>
      <point x="708" y="1363" type="line"/>
      <point x="708" y="1500" type="line"/>
      <point x="1014" y="1500" type="line"/>
      <point x="1014" y="1363" type="line"/>
      <point x="942" y="1329" type="line"/>
      <point x="939" y="794" type="line"/>
      <point x="939" y="373" type="line" smooth="yes"/>
      <point x="939" y="202"/>
      <point x="762" y="-17"/>
      <point x="511" y="-17" type="qcurve" smooth="yes"/>
      <point x="302" y="-17"/>
      <point x="57" y="208"/>
      <point x="57" y="446" type="qcurve" smooth="yes"/>
      <point x="57" y="794" type="line"/>
      <point x="57" y="1329" type="line"/>
    </contour>
  </outline>
</glyph>
<glyph name="W" format="2">
  <advance width="1596"/>
  <unicode hex="0057"/>
  <anchor x="798.0" y="0" name="bottom"/>
  <anchor x="798.0" y="1500" name="top"/>
  <outline>
    <contour>
      <point x="-14" y="1364" type="line"/>
      <point x="-14" y="1500" type="line"/>
      <point x="580" y="1500" type="line"/>
      <point x="580" y="1364" type="line"/>
      <point x="521" y="1336" type="line"/>
      <point x="570" y="901" type="line"/>
      <point x="616" y="455" type="line"/>
      <point x="693" y="826" type="line"/>
      <point x="770" y="1219" type="line"/>
      <point x="860" y="1012" type="line"/>
      <point x="795" y="696" type="line"/>
      <point x="651" y="0" type="line"/>
      <point x="220" y="0" type="line"/>
      <point x="122" y="751" type="line"/>
      <point x="46" y="1333" type="line"/>
    </contour>
    <contour>
      <point x="635" y="1358" type="line"/>
      <point x="635" y="1500" type="line"/>
      <point x="1219" y="1500" type="line"/>
      <point x="1219" y="1363" type="line"/>
      <point x="1160" y="1337" type="line"/>
      <point x="1213" y="859" type="line"/>
      <point x="1261" y="465" type="line"/>
      <point x="1332" y="934" type="line"/>
      <point x="1387" y="1329" type="line"/>
      <point x="1301" y="1363" type="line"/>
      <point x="1301" y="1500" type="line"/>
      <point x="1620" y="1500" type="line"/>
      <point x="1620" y="1363" type="line"/>
      <point x="1539" y="1334" type="line"/>
      <point x="1469" y="894" type="line"/>
      <point x="1327" y="0" type="line"/>
      <point x="878" y="0" type="line"/>
      <point x="767" y="766" type="line"/>
      <point x="684" y="1334" type="line"/>
    </contour>
  </outline>
</glyph>
<glyph name="X" format="2">
  <advance width="1075"/>
  <unicode hex="0058"/>
  <anchor x="537.5" y="0" name="bottom"/>
  <anchor x="537.5" y="1500" name="top"/>
  <outline>
    <contour>
      <point x="0" y="0" type="line"/>
      <point x="0" y="127" type="line"/>
      <point x="84" y="161" type="line"/>
      <point x="436" y="863" type="line"/>
      <point x="555" y="863" type="line"/>
      <point x="763" y="1333" type="line"/>
      <point x="703" y="1363" type="line"/>
      <point x="703" y="1500" type="line"/>
      <point x="1025" y="1500" type="line"/>
      <point x="1025" y="1363" type="line"/>
      <point x="938" y="1334" type="line"/>
      <point x="636" y="730" type="line"/>
      <point x="534" y="730" type="line"/>
      <point x="260" y="162" type="line"/>
      <point x="331" y="127" type="line"/>
      <point x="331" y="0" type="line"/>
    </contour>
    <contour>
      <point x="16" y="1363" type="line"/>
      <point x="16" y="1500" type="line"/>
      <point x="628" y="1500" type="line"/>
      <point x="628" y="1363" type="line"/>
      <point x="603" y="1335" type="line"/>
      <point x="767" y="837" type="line"/>
      <point x="997" y="160" type="line"/>
      <point x="1072" y="127" type="line"/>
      <point x="1072" y="0" type="line"/>
      <point x="403" y="0" type="line"/>
      <point x="403" y="127" type="line"/>
      <point x="466" y="160" type="line"/>
      <point x="286" y="721" type="line"/>
      <point x="82" y="1334" type="line"/>
    </contour>
  </outline>
</glyph>
<glyph name="Y" format="2">
  <advance width="1031"/>
  <unicode hex="0059"/>
  <anchor x="515.5" y="0" name="bottom"/>
  <anchor x="516" y="1500" name="top"/>
  <outline>
    <contour>
      <point x="-20" y="1363" type="line"/>
      <point x="-20" y="1500" type="line"/>
      <point x="584" y="1500" type="line"/>
      <point x="584" y="1363" type="line"/>
      <point x="511" y="1340" type="line"/>
      <point x="579" y="1104" type="line"/>
      <point x="663" y="812" type="line"/>
      <point x="746" y="1121" type="line"/>
      <point x="807" y="1333" type="line"/>
      <point x="719" y="1363" type="line"/>
      <point x="719" y="1500" type="line"/>
      <point x="1055" y="1500" type="line"/>
      <point x="1055" y="1363" type="line"/>
      <point x="966" y="1332" type="line"/>
      <point x="877" y="1047" type="line"/>
      <point x="750" y="620" type="line"/>
      <point x="750" y="160" type="line"/>
      <point x="857" y="126" type="line"/>
      <point x="857" y="0" type="line"/>
      <point x="154" y="0" type="line"/>
      <point x="154" y="126" type="line"/>
      <point x="260" y="160" type="line"/>
      <point x="260" y="615" type="line"/>
      <point x="145" y="985" type="line"/>
      <point x="37" y="1331" type="line"/>
    </contour>
  </outline>
</glyph>
<glyph name="Z" format="2">
  <advance width="1106"/>
  <unicode hex="005A"/>
  <anchor x="553.0" y="0" name="bottom"/>
  <anchor x="553.0" y="1500" name="top"/>
  <outline>
    <contour>
      <point x="47" y="0" type="line"/>
      <point x="20" y="112" type="line"/>
      <point x="507" y="1337" type="line"/>
      <point x="501" y="1352" type="line"/>
      <point x="260" y="1352" type="line"/>
      <point x="211" y="1104" type="line"/>
      <point x="61" y="1104" type="line"/>
      <point x="61" y="1500" type="line"/>
      <point x="1046" y="1500" type="line"/>
      <point x="1046" y="1379" type="line"/>
      <point x="577" y="157" type="line"/>
      <point x="585" y="138" type="line"/>
      <point x="833" y="138" type="line"/>
      <point x="926" y="439" type="line"/>
      <point x="1093" y="439" type="line"/>
      <point x="1034" y="0" type="line"/>
    </contour>
  </outline>
</glyph>
<glyph name="grave" format="2">
  <advance width="1024"/>
  <unicode hex="0060"/>
  <outline>
    <contour>
      <point x="244.0" y="1476.0" type="qcurve" smooth="yes"/>
      <point x="246.0" y="1525.0"/>
      <point x="324.0" y="1604.0"/>
      <point x="380.0" y="1604.0" type="qcurve" smooth="yes"/>
      <point x="445.0" y="1604.0"/>
      <point x="523.0" y="1525.0"/>
      <point x="560.0" y="1469.0" type="qcurve" smooth="yes"/>
      <point x="721.0" y="1227.0" type="line"/>
      <point x="651.0" y="1150.0" type="line"/>
      <point x="348.0" y="1324.0" type="line" smooth="yes"/>
      <point x="298.0" y="1353.0"/>
      <point x="242.0" y="1427.0"/>
    </contour>
  </outline>
</glyph>
<glyph name="b" format="2">
  <advance width="1179"/>
  <unicode hex="0062"/>
  <anchor x="589.5" y="0" name="bottom"/>
  <anchor x="589.5" y="1554" name="top"/>
  <outline>
    <contour>
      <point x="60" y="0" type="line"/>
      <point x="62" y="577" type="line"/>
      <point x="57" y="1332" type="line"/>
      <point x="-21" y="1366" type="line"/>
      <point x="-21" y="1500" type="line"/>
      <point x="416" y="1554" type="line"/>
      <point x="469" y="1554" type="line"/>
      <point x="526" y="1507" type="line"/>
      <point x="524" y="970" type="line"/>
      <point x="552" y="1003"/>
      <point x="690" y="1068"/>
      <point x="775" y="1068" type="qcurve" smooth="yes"/>
      <point x="950" y="1068"/>
      <point x="1143" y="822"/>
      <point x="1143" y="546" type="qcurve" smooth="yes"/>
      <point x="1143" y="273"/>
      <point x="938" y="-12"/>
      <point x="737" y="-12" type="qcurve" smooth="yes"/>
      <point x="640" y="-12"/>
      <point x="512" y="49"/>
      <point x="478" y="91" type="qcurve"/>
      <point x="430" y="0" type="line"/>
    </contour>
    <contour>
      <point x="518" y="445" type="line"/>
      <point x="518" y="195" type="line" smooth="yes"/>
      <point x="518" y="181"/>
      <point x="556" y="156"/>
      <point x="584" y="156" type="qcurve" smooth="yes"/>
      <point x="623" y="156"/>
      <point x="653" y="265"/>
      <point x="653" y="513" type="qcurve" smooth="yes"/>
      <point x="653" y="789"/>
      <point x="614" y="869"/>
      <point x="579" y="869" type="qcurve" smooth="yes"/>
      <point x="551" y="869"/>
      <point x="522" y="837"/>
      <point x="522" y="812" type="qcurve" smooth="yes"/>
    </contour>
  </outline>
</glyph>
<glyph name="c" format="2">
  <advance width="1008"/>
  <unicode hex="0063"/>
  <anchor x="555.0" y="0" name="bottom"/>
  <anchor x="557.0" y="1050" name="top"/>
  <outline>
    <contour>
      <point x="36" y="508" type="qcurve" smooth="yes"/>
      <point x="36" y="792"/>
      <point x="363" y="1074"/>
      <point x="556" y="1074" type="qcurve" smooth="yes"/>
      <point x="653" y="1074"/>
      <point x="760" y="1031"/>
      <point x="788" y="1004" type="qcurve"/>
      <point x="822" y="1059" type="line"/>
      <point x="949" y="1059" type="line"/>
      <point x="954" y="662" type="line"/>
      <point x="797" y="662" type="line"/>
      <point x="786" y="756" type="line" smooth="yes"/>
      <point x="778" y="824"/>
      <point x="737" y="906"/>
      <point x="682" y="906" type="qcurve" smooth="yes"/>
      <point x="631" y="906"/>
      <point x="568" y="801"/>
      <point x="568" y="530" type="qcurve" smooth="yes"/>
      <point x="568" y="281"/>
      <point x="633" y="167"/>
      <point x="704" y="167" type="qcurve" smooth="yes"/>
      <point x="773" y="167"/>
      <point x="865" y="226"/>
      <point x="906" y="283" type="qcurve"/>
      <point x="1001" y="165" type="line"/>
      <point x="951" y="90"/>
      <point x="721" y="-22"/>
      <point x="555" y="-22" type="qcurve" smooth="yes"/>
      <point x="353" y="-22"/>
      <point x="36" y="234"/>
    </contour>
  </outline>
</glyph>
<glyph name="d" format="2">
  <advance width="1265"/>
  <unicode hex="0064"/>
  <anchor x="632.5" y="0" name="bottom"/>
  <anchor x="868" y="1214.0" name="center"/>
  <anchor x="632.5" y="1544" name="top"/>
  <anchor x="1012" y="1050" name="topright"/>
  <outline>
    <contour>
      <point x="39" y="522" type="qcurve" smooth="yes"/>
      <point x="39" y="794"/>
      <point x="299" y="1066"/>
      <point x="474" y="1066" type="qcurve" smooth="yes"/>
      <point x="548" y="1066"/>
      <point x="644" y="1019"/>
      <point x="668" y="985" type="qcurve"/>
      <point x="668" y="1332" type="line"/>
      <point x="562" y="1366" type="line"/>
      <point x="562" y="1500" type="line"/>
      <point x="1012" y="1544" type="line"/>
      <point x="1085" y="1544" type="line"/>
      <point x="1142" y="1497" type="line"/>
      <point x="1140" y="507" type="line"/>
      <point x="1145" y="155" type="line"/>
      <point x="1251" y="120" type="line"/>
      <point x="1251" y="0" type="line"/>
      <point x="744" y="0" type="line"/>
      <point x="701" y="49" type="line"/>
      <point x="693" y="120" type="line"/>
      <point x="666" y="67"/>
      <point x="517" y="-9"/>
      <point x="415" y="-9" type="qcurve" smooth="yes"/>
      <point x="248" y="-9"/>
      <point x="39" y="263"/>
    </contour>
    <contour>
      <point x="539" y="534" type="qcurve" smooth="yes"/>
      <point x="539" y="214"/>
      <point x="566" y="155"/>
      <point x="602" y="155" type="qcurve" smooth="yes"/>
      <point x="640" y="155"/>
      <point x="668" y="209"/>
      <point x="668" y="241" type="qcurve" smooth="yes"/>
      <point x="668" y="506" type="line"/>
      <point x="670" y="800" type="line" smooth="yes"/>
      <point x="670" y="836"/>
      <point x="633" y="881"/>
      <point x="602" y="881" type="qcurve" smooth="yes"/>
      <point x="570" y="881"/>
      <point x="539" y="816"/>
    </contour>
  </outline>
</glyph>
<glyph name="i" format="2">
  <advance width="660"/>
  <unicode hex="0069"/>
  <anchor x="330.0" y="0" name="bottom"/>
  <anchor x="330.0" y="1050" name="top"/>
  <anchor x="73" y="0" name="ogonek"/>
  <outline>
    <contour>
      <point x="25" y="0" type="line"/>
      <point x="25" y="120" type="line"/>
      <point x="104" y="155" type="line"/>
      <point x="106" y="552" type="line"/>
      <point x="106" y="857" type="line"/>
      <point x="13" y="887" type="line"/>
      <point x="13" y="1020" type="line"/>
      <point x="464" y="1062" type="line"/>
      <point x="542" y="1062" type="line"/>
      <point x="585" y="1018" type="line"/>
      <point x="578" y="552" type="line"/>
      <point x="580" y="155" type="line"/>
      <point x="657" y="120" type="line"/>
      <point x="657" y="0" type="line"/>
    </contour>
    <contour>
      <point x="102" y="1307" type="qcurve" smooth="yes"/>
      <point x="102" y="1403"/>
      <point x="229" y="1520"/>
      <point x="346" y="1520" type="qcurve" smooth="yes"/>
      <point x="458" y="1520"/>
      <point x="595" y="1405"/>
      <point x="594" y="1307" type="qcurve" smooth="yes"/>
      <point x="594" y="1218"/>
      <point x="467" y="1107"/>
      <point x="348" y="1107" type="qcurve" smooth="yes"/>
      <point x="237" y="1107"/>
      <point x="102" y="1222"/>
    </contour>
  </outline>
</glyph>
<glyph name="k" format="2">
  <advance width="1215"/>
  <unicode hex="006B"/>
  <anchor x="628" y="0" name="bottom"/>
  <anchor x="607.5" y="1554" name="top"/>
  <outline>
    <contour>
      <point x="19" y="0" type="line"/>
      <point x="19" y="120" type="line"/>
      <point x="71" y="155" type="line"/>
      <point x="73" y="532" type="line"/>
      <point x="71" y="1332" type="line"/>
      <point x="-28" y="1366" type="line"/>
      <point x="-28" y="1500" type="line"/>
      <point x="434" y="1554" type="line"/>
      <point x="476" y="1554" type="line"/>
      <point x="533" y="1507" type="line"/>
      <point x="537" y="587" type="line"/>
      <point x="540" y="155" type="line"/>
      <point x="575" y="120" type="line"/>
      <point x="575" y="0" type="line"/>
    </contour>
    <contour>
      <point x="512" y="364" type="line"/>
      <point x="476" y="515" type="line"/>
      <point x="829" y="880" type="line"/>
      <point x="701" y="910" type="line"/>
      <point x="701" y="1050" type="line"/>
      <point x="1158" y="1050" type="line"/>
      <point x="1158" y="910" type="line"/>
      <point x="1016" y="875" type="line"/>
    </contour>
    <contour>
      <point x="544" y="487" type="line"/>
      <point x="878" y="803" type="line"/>
      <point x="1137" y="155" type="line"/>
      <point x="1212" y="120" type="line"/>
      <point x="1212" y="0" type="line"/>
      <point x="686" y="0" type="line"/>
      <point x="654" y="122" type="line"/>
      <point x="660" y="159" type="line"/>
    </contour>
  </outline>
</glyph>
<glyph name="l" format="2">
  <advance width="632"/>
  <unicode hex="006C"/>
  <anchor x="333.0" y="0" name="bottom"/>
  <anchor x="333.0" y="750.0" name="center"/>
  <anchor x="333.0" y="1554" name="top"/>
  <anchor x="422" y="1050" name="topright"/>
  <outline>
    <contour>
      <point x="19" y="0" type="line"/>
      <point x="19" y="120" type="line"/>
      <point x="86" y="155" type="line"/>
      <point x="89" y="527" type="line"/>
      <point x="86" y="1330" type="line"/>
      <point x="-8" y="1364" type="line"/>
      <point x="-8" y="1500" type="line"/>
      <point x="474" y="1554" type="line"/>
      <point x="506" y="1554" type="line"/>
      <point x="563" y="1507" type="line"/>
      <point x="561" y="527" type="line"/>
      <point x="563" y="155" type="line"/>
      <point x="629" y="120" type="line"/>
      <point x="629" y="0" type="line"/>
    </contour>
  </outline>
</glyph>
<glyph name="o" format="2">
  <advance width="1203"/>
  <unicode hex="006F"/>
  <anchor x="601.5" y="0" name="bottom"/>
  <anchor x="601.5" y="525.0" name="center"/>
  <anchor x="770" y="0" name="ogonek"/>
  <anchor x="601.5" y="1050" name="top"/>
  <anchor x="780" y="1050" name="topright"/>
  <outline>
    <contour>
      <point x="36" y="525" type="qcurve" smooth="yes"/>
      <point x="36" y="783"/>
      <point x="348" y="1073"/>
      <point x="599" y="1073" type="qcurve" smooth="yes"/>
      <point x="832" y="1073"/>
      <point x="1167" y="804"/>
      <point x="1167" y="531" type="qcurve" smooth="yes"/>
      <point x="1167" y="274"/>
      <point x="836" y="-22"/>
      <point x="603" y="-22" type="qcurve" smooth="yes"/>
      <point x="364" y="-22"/>
      <point x="36" y="250"/>
    </contour>
    <contour>
      <point x="535" y="523" type="qcurve" smooth="yes"/>
      <point x="535" y="242"/>
      <point x="546" y="118"/>
      <point x="603" y="118" type="qcurve" smooth="yes"/>
      <point x="657" y="118"/>
      <point x="670" y="245"/>
      <point x="670" y="526" type="qcurve" smooth="yes"/>
      <point x="670" y="821"/>
      <point x="658" y="917"/>
      <point x="601" y="917" type="qcurve" smooth="yes"/>
      <point x="544" y="917"/>
      <point x="535" y="818"/>
    </contour>
  </outline>
</glyph>
<glyph name="q" format="2">
  <advance width="1259"/>
  <unicode hex="0071"/>
  <anchor x="629.5" y="0" name="bottom"/>
  <anchor x="629.5" y="1050" name="top"/>
  <outline>
    <contour>
      <point x="39" y="512" type="qcurve" smooth="yes"/>
      <point x="39" y="796"/>
      <point x="299" y="1065"/>
      <point x="482" y="1065" type="qcurve" smooth="yes"/>
      <point x="549" y="1065"/>
      <point x="642" y="1022"/>
      <point x="682" y="966" type="qcurve"/>
      <point x="745" y="1051" type="line"/>
      <point x="1216" y="1019" type="line"/>
      <point x="1216" y="897" type="line"/>
      <point x="1138" y="865" type="line"/>
      <point x="1134" y="453" type="line"/>
      <point x="1144" y="-326" type="line"/>
      <point x="1222" y="-361" type="line"/>
      <point x="1222" y="-480" type="line"/>
      <point x="581" y="-480" type="line"/>
      <point x="581" y="-361" type="line"/>
      <point x="672" y="-328" type="line"/>
      <point x="677" y="72" type="line"/>
      <point x="652" y="38"/>
      <point x="511" y="-9"/>
      <point x="428" y="-9" type="qcurve" smooth="yes"/>
      <point x="248" y="-9"/>
      <point x="39" y="253"/>
    </contour>
    <contour>
      <point x="541" y="534" type="qcurve" smooth="yes"/>
      <point x="541" y="213"/>
      <point x="563" y="155"/>
      <point x="602" y="155" type="qcurve" smooth="yes"/>
      <point x="636" y="155"/>
      <point x="667" y="199"/>
      <point x="670" y="240" type="qcurve"/>
      <point x="670" y="806" type="line"/>
      <point x="662" y="857"/>
      <point x="628" y="881"/>
      <point x="609" y="881" type="qcurve" smooth="yes"/>
      <point x="576" y="881"/>
      <point x="541" y="814"/>
    </contour>
  </outline>
</glyph>
<glyph name="r" format="2">
  <advance width="898"/>
  <unicode hex="0072"/>
  <anchor x="449.0" y="0" name="bottom"/>
  <anchor x="453.0" y="1050" name="top"/>
  <outline>
    <contour>
      <point x="22" y="0" type="line"/>
      <point x="22" y="120" type="line"/>
      <point x="74" y="155" type="line"/>
      <point x="77" y="542" type="line"/>
      <point x="75" y="857" type="line"/>
      <point x="3" y="887" type="line"/>
      <point x="3" y="1020" type="line"/>
      <point x="440" y="1062" type="line"/>
      <point x="495" y="1035" type="line"/>
      <point x="515" y="870" type="line"/>
      <point x="549" y="949"/>
      <point x="696" y="1055"/>
      <point x="785" y="1055" type="qcurve" smooth="yes"/>
      <point x="869" y="1055" type="line"/>
      <point x="869" y="675" type="line"/>
      <point x="669" y="675" type="line"/>
      <point x="651" y="815" type="line"/>
      <point x="610" y="815"/>
      <point x="559" y="776"/>
      <point x="545" y="737" type="qcurve"/>
      <point x="543" y="577" type="line"/>
      <point x="543" y="155" type="line"/>
      <point x="637" y="120" type="line"/>
      <point x="637" y="0" type="line"/>
    </contour>
  </outline>
</glyph>
<glyph name="s" format="2">
  <advance width="943"/>
  <unicode hex="0073"/>
  <anchor x="503" y="0" name="bottom"/>
  <anchor x="471.5" y="1050" name="top"/>
  <outline>
    <contour>
      <point x="51" y="0" type="line"/>
      <point x="51" y="334" type="line"/>
      <point x="220" y="334" type="line"/>
      <point x="225" y="286" type="line" smooth="yes"/>
      <point x="234" y="201"/>
      <point x="323" y="118"/>
      <point x="395" y="117" type="qcurve" smooth="yes"/>
      <point x="440" y="117"/>
      <point x="485" y="164"/>
      <point x="485" y="204" type="qcurve" smooth="yes"/>
      <point x="485" y="250"/>
      <point x="433" y="310"/>
      <point x="344" y="355" type="qcurve" smooth="yes"/>
      <point x="175" y="422"/>
      <point x="56" y="599"/>
      <point x="56" y="751" type="qcurve" smooth="yes"/>
      <point x="56" y="883"/>
      <point x="274" y="1074"/>
      <point x="475" y="1074" type="qcurve" smooth="yes"/>
      <point x="569" y="1074"/>
      <point x="687" y="1027"/>
      <point x="718" y="1002" type="qcurve"/>
      <point x="742" y="1050" type="line"/>
      <point x="866" y="1050" type="line"/>
      <point x="866" y="755" type="line"/>
      <point x="695" y="755" type="line"/>
      <point x="690" y="786" type="line" smooth="yes"/>
      <point x="679" y="856"/>
      <point x="613" y="934"/>
      <point x="543" y="934" type="qcurve" smooth="yes"/>
      <point x="493" y="934"/>
      <point x="451" y="892"/>
      <point x="451" y="859" type="qcurve" smooth="yes"/>
      <point x="451" y="822"/>
      <point x="498" y="763"/>
      <point x="584" y="722" type="qcurve" smooth="yes"/>
      <point x="743" y="646"/>
      <point x="918" y="480"/>
      <point x="918" y="341" type="qcurve" smooth="yes"/>
      <point x="918" y="169"/>
      <point x="694" y="-23"/>
      <point x="502" y="-23" type="qcurve" smooth="yes"/>
      <point x="375" y="-23"/>
      <point x="228" y="15"/>
      <point x="193" y="39" type="qcurve"/>
      <point x="178" y="0" type="line"/>
    </contour>
  </outline>
</glyph>
<glyph name="t" format="2">
  <advance width="794"/>
  <unicode hex="0074"/>
  <anchor x="347.0" y="0" name="bottom"/>
  <anchor x="397.0" y="645.0" name="center"/>
  <anchor x="397.0" y="1291" name="top"/>
  <anchor x="644" y="1050" name="topright"/>
  <outline>
    <contour>
      <point x="2" y="884" type="line"/>
      <point x="2" y="1016" type="line"/>
      <point x="156" y="1046"/>
      <point x="293" y="1147"/>
      <point x="327" y="1291" type="qcurve"/>
      <point x="537" y="1291" type="line"/>
      <point x="596" y="1228" type="line"/>
      <point x="591" y="1024" type="line"/>
      <point x="774" y="1024" type="line"/>
      <point x="774" y="872" type="line"/>
      <point x="587" y="872" type="line"/>
      <point x="583" y="552" type="line"/>
      <point x="588" y="259" type="line" smooth="yes"/>
      <point x="589" y="211"/>
      <point x="639" y="165"/>
      <point x="683" y="165" type="qcurve" smooth="yes"/>
      <point x="785" y="165" type="line"/>
      <point x="785" y="30" type="line"/>
      <point x="340" y="-15" type="line"/>
      <point x="209" y="-15"/>
      <point x="100" y="91"/>
      <point x="102" y="187" type="qcurve" smooth="yes"/>
      <point x="110" y="552" type="line"/>
      <point x="108" y="856" type="line"/>
    </contour>
  </outline>
</glyph>
<glyph name="w" format="2">
  <advance width="1649"/>
  <unicode hex="0077"/>
  <anchor x="824.5" y="0" name="bottom"/>
  <anchor x="824.5" y="1050" name="top"/>
  <outline>
    <contour>
      <point x="10" y="910" type="line"/>
      <point x="10" y="1050" type="line"/>
      <point x="593" y="1050" type="line"/>
      <point x="593" y="910" type="line"/>
      <point x="560" y="875" type="line"/>
      <point x="610" y="616" type="line"/>
      <point x="660" y="353" type="line"/>
      <point x="713" y="583" type="line"/>
      <point x="772" y="840" type="line"/>
      <point x="905" y="756" type="line"/>
      <point x="833" y="499" type="line"/>
      <point x="694" y="0" type="line"/>
      <point x="261" y="0" type="line"/>
      <point x="159" y="482" type="line"/>
      <point x="76" y="875" type="line"/>
    </contour>
    <contour>
      <point x="642" y="910" type="line"/>
      <point x="642" y="1050" type="line"/>
      <point x="1261" y="1050" type="line"/>
      <point x="1261" y="910" type="line"/>
      <point x="1186" y="875" type="line"/>
      <point x="1235" y="613" type="line"/>
      <point x="1283" y="355" type="line"/>
      <point x="1343" y="614" type="line"/>
      <point x="1403" y="875" type="line"/>
      <point x="1333" y="910" type="line"/>
      <point x="1333" y="1050" type="line"/>
      <point x="1649" y="1050" type="line"/>
      <point x="1649" y="910" type="line"/>
      <point x="1565" y="875" type="line"/>
      <point x="1473" y="549" type="line"/>
      <point x="1319" y="0" type="line"/>
      <point x="886" y="0" type="line"/>
      <point x="776" y="521" type="line"/>
      <point x="702" y="875" type="line"/>
    </contour>
  </outline>
</glyph>
<glyph name="y" format="2">
  <advance width="1053"/>
  <unicode hex="0079"/>
  <anchor x="892" y="0" name="bottom"/>
  <anchor x="526.5" y="1050" name="top"/>
  <outline>
    <contour>
      <point x="10" y="910" type="line"/>
      <point x="10" y="1050" type="line"/>
      <point x="672" y="1050" type="line"/>
      <point x="672" y="910" type="line"/>
      <point x="582" y="874" type="line"/>
      <point x="626" y="626" type="line"/>
      <point x="672" y="370" type="line"/>
      <point x="743" y="631" type="line"/>
      <point x="809" y="875" type="line"/>
      <point x="735" y="910" type="line"/>
      <point x="735" y="1050" type="line"/>
      <point x="1053" y="1050" type="line"/>
      <point x="1053" y="910" type="line"/>
      <point x="968" y="875" type="line"/>
      <point x="880" y="561" type="line"/>
      <point x="731" y="24" type="line" smooth="yes"/>
      <point x="639" y="-305"/>
      <point x="390" y="-499"/>
      <point x="209" y="-499" type="qcurve"/>
      <point x="62" y="-445" type="line"/>
      <point x="62" y="-295" type="line"/>
      <point x="232" y="-295" type="line" smooth="yes"/>
      <point x="337" y="-295"/>
      <point x="484" y="-226"/>
      <point x="528" y="-105" type="qcurve" smooth="yes"/>
      <point x="566" y="0" type="line"/>
      <point x="293" y="0" type="line"/>
      <point x="174" y="498" type="line"/>
      <point x="77" y="875" type="line"/>
    </contour>
  </outline>
</glyph>
<glyph name="z" format="2">
  <advance width="904"/>
  <unicode hex="007A"/>
  <anchor x="452.0" y="0" name="bottom"/>
  <anchor x="452.0" y="1050" name="top"/>
  <outline>
    <contour>
      <point x="18" y="0" type="line"/>
      <point x="18" y="140" type="line"/>
      <point x="385" y="904" type="line"/>
      <point x="219" y="904" type="line"/>
      <point x="195" y="715" type="line"/>
      <point x="34" y="715" type="line"/>
      <point x="34" y="1050" type="line"/>
      <point x="870" y="1050" type="line"/>
      <point x="870" y="882" type="line"/>
      <point x="513" y="146" type="line"/>
      <point x="704" y="146" type="line"/>
      <point x="728" y="332" type="line"/>
      <point x="889" y="332" type="line"/>
      <point x="889" y="0" type="line"/>
    </contour>
  </outline>
</glyph>
<glyph name="cent" format="2">
  <advance width="945"/>
  <unicode hex="00A2"/>
  <outline>
    <contour>
      <point x="78" y="539" type="qcurve" smooth="yes"/>
      <point x="78" y="791"/>
      <point x="354" y="1074"/>
      <point x="571" y="1074" type="qcurve" smooth="yes"/>
      <point x="664" y="1074"/>
      <point x="755" y="1044"/>
      <point x="779" y="1023" type="qcurve"/>
      <point x="789" y="1069" type="line"/>
      <point x="913" y="1049" type="line"/>
      <point x="918" y="712" type="line"/>
      <point x="784" y="695" type="line"/>
      <point x="775" y="763" type="line" smooth="yes"/>
      <point x="764" y="846"/>
      <point x="715" y="917"/>
      <point x="664" y="917" type="qcurve" smooth="yes"/>
      <point x="620" y="917"/>
      <point x="535" y="740"/>
      <point x="535" y="531" type="qcurve" smooth="yes"/>
      <point x="535" y="338"/>
      <point x="611" y="166"/>
      <point x="677" y="166" type="qcurve" smooth="yes"/>
      <point x="723" y="166"/>
      <point x="834" y="226"/>
      <point x="866" y="281" type="qcurve"/>
      <point x="932" y="177" type="line"/>
      <point x="883" y="83"/>
      <point x="683" y="-22"/>
      <point x="532" y="-22" type="qcurve" smooth="yes"/>
      <point x="352" y="-22"/>
      <point x="78" y="265"/>
    </contour>
    <contour>
      <point x="564" y="-191" type="line"/>
      <point x="564" y="52" type="line"/>
      <point x="571" y="52" type="line"/>
      <point x="571" y="530" type="line"/>
      <point x="715" y="488" type="line"/>
      <point x="715" y="52" type="line"/>
      <point x="724" y="52" type="line"/>
      <point x="724" y="-165" type="line"/>
    </contour>
    <contour>
      <point x="563" y="1210" type="line"/>
      <point x="723" y="1234" type="line"/>
      <point x="723" y="1018" type="line"/>
      <point x="715" y="1018" type="line"/>
      <point x="715" y="488" type="line"/>
      <point x="571" y="530" type="line"/>
      <point x="571" y="1018" type="line"/>
      <point x="563" y="1018" type="line"/>
    </contour>
  </outline>
</glyph>
<glyph name="currency" format="2">
	<unicode hex="00A4"/>
	<advance width="1134"/>
	<outline>
		<contour>
			<point x="153" y="839" type="qcurve" smooth="yes"/>
			<point x="153" y="1029"/>
			<point x="375" y="1298"/>
			<point x="556" y="1298" type="qcurve" smooth="yes"/>
			<point x="738" y="1298"/>
			<point x="964" y="1047"/>
			<point x="964" y="844" type="qcurve" smooth="yes"/>
			<point x="964" y="654"/>
			<point x="742" y="379"/>
			<point x="561" y="379" type="qcurve" smooth="yes"/>
			<point x="379" y="379"/>
			<point x="153" y="633"/>
		</contour>
		<contour>
			<point x="370" y="851" type="qcurve" smooth="yes"/>
			<point x="371" y="742"/>
			<point x="467" y="594"/>
			<point x="554" y="594" type="qcurve" smooth="yes"/>
			<point x="649" y="594"/>
			<point x="740" y="728"/>
			<point x="740" y="842" type="qcurve" smooth="yes"/>
			<point x="740" y="944"/>
			<point x="644" y="1079"/>
			<point x="556" y="1079" type="qcurve" smooth="yes"/>
			<point x="461" y="1079"/>
			<point x="369" y="957"/>
		</contour>
		<contour>
			<point x="263" y="1056" type="line"/>
			<point x="59" y="1286" type="line"/>
			<point x="187" y="1423" type="line"/>
			<point x="391" y="1193" type="line"/>
		</contour>
		<contour>
			<point x="871" y="1056" type="line"/>
			<point x="743" y="1193" type="line"/>
			<point x="947" y="1423" type="line"/>
			<point x="1075" y="1286" type="line"/>
		</contour>
		<contour>
			<point x="263" y="604" type="line"/>
			<point x="391" y="467" type="line"/>
			<point x="187" y="237" type="line"/>
			<point x="59" y="374" type="line"/>
		</contour>
		<contour>
			<point x="871" y="604" type="line"/>
			<point x="1075" y="374" type="line"/>
			<point x="947" y="237" type="line"/>
			<point x="743" y="467" type="line"/>
		</contour>
	</outline>
</glyph>
<glyph name="yen" format="2">
	<unicode hex="00A5"/>
	<advance width="1377"/>
	<outline>
		<contour>
			<point x="201" y="603" type="line"/>
			<point x="167" y="804" type="line"/>
			<point x="1281" y="804" type="line"/>
			<point x="1241" y="603" type="line"/>
		</contour>
		<contour>
			<point x="485" y="595" type="line"/>
			<point x="297" y="994" type="line"/>
			<point x="137" y="1321" type="line"/>
			<point x="40" y="1363" type="line"/>
			<point x="40" y="1500" type="line"/>
			<point x="774" y="1500" type="line"/>
			<point x="774" y="1363" type="line"/>
			<point x="669" y="1330" type="line"/>
			<point x="767" y="1079" type="line"/>
			<point x="888" y="792" type="line"/>
			<point x="1011" y="1067" type="line"/>
			<point x="1113" y="1323" type="line"/>
			<point x="1029" y="1363" type="line"/>
			<point x="1029" y="1500" type="line"/>
			<point x="1378" y="1500" type="line"/>
			<point x="1378" y="1363" type="line"/>
			<point x="1276" y="1322" type="line"/>
			<point x="1144" y="1020" type="line"/>
			<point x="956" y="600" type="line"/>
			<point x="957" y="160" type="line"/>
			<point x="1092" y="126" type="line"/>
			<point x="1092" y="0" type="line"/>
			<point x="349" y="0" type="line"/>
			<point x="349" y="126" type="line"/>
			<point x="483" y="160" type="line"/>
		</contour>
		<contour>
			<point x="251" y="288" type="line"/>
			<point x="217" y="489" type="line"/>
			<point x="1228" y="489" type="line"/>
			<point x="1188" y="288" type="line"/>
		</contour>
	</outline>
</glyph>
<glyph name="logicalnot" format="2">
	<unicode hex="00AC"/>
	<advance width="889"/>
	<outline>
		<contour>
			<point x="63" y="884" type="line"/>
			<point x="827" y="884" type="line"/>
			<point x="827" y="327" type="line"/>
			<point x="521" y="327" type="line"/>
			<point x="521" y="622" type="line"/>
			<point x="63" y="622" type="line"/>
		</contour>
	</outline>
</glyph>
<glyph name="twosuperior" format="2">
	<unicode hex="00B2"/>
	<advance width="756"/>
	<outline>
		<contour>
			<point x="88" y="671" type="line"/>
			<point x="90" y="777" type="line"/>
			<point x="99" y="858"/>
			<point x="205" y="1004"/>
			<point x="304" y="1073" type="qcurve" smooth="yes"/>
			<point x="340" y="1104"/>
			<point x="397" y="1197"/>
			<point x="400" y="1254" type="qcurve" smooth="yes"/>
			<point x="403" y="1307"/>
			<point x="356" y="1364"/>
			<point x="307" y="1364" type="qcurve" smooth="yes"/>
			<point x="274" y="1364"/>
			<point x="187" y="1320"/>
			<point x="138" y="1270" type="qcurve"/>
			<point x="106" y="1368" type="line"/>
			<point x="139" y="1422"/>
			<point x="305" y="1520"/>
			<point x="402" y="1520" type="qcurve" smooth="yes"/>
			<point x="561" y="1520"/>
			<point x="676" y="1394"/>
			<point x="679" y="1292" type="qcurve" smooth="yes"/>
			<point x="682" y="1176"/>
			<point x="587" y="1035"/>
			<point x="469" y="985" type="qcurve" smooth="yes"/>
			<point x="328" y="929"/>
			<point x="284" y="890"/>
			<point x="280" y="870" type="qcurve"/>
			<point x="288" y="871" type="line"/>
			<point x="697" y="870" type="line"/>
			<point x="697" y="671" type="line"/>
		</contour>
	</outline>
</glyph>
<glyph name="acute" format="2">
  <advance width="1024"/>
  <unicode hex="00B4"/>
  <outline>
    <contour>
      <point x="829.0" y="1476.0" type="qcurve" smooth="yes"/>
      <point x="831.0" y="1427.0"/>
      <point x="775.0" y="1353.0"/>
      <point x="725.0" y="1324.0" type="qcurve" smooth="yes"/>
      <point x="422.0" y="1150.0" type="line"/>
      <point x="352.0" y="1227.0" type="line"/>
      <point x="513.0" y="1469.0" type="line" smooth="yes"/>
      <point x="550.0" y="1525.0"/>
      <point x="628.0" y="1604.0"/>
      <point x="693.0" y="1604.0" type="qcurve" smooth="yes"/>
      <point x="749.0" y="1604.0"/>
      <point x="827.0" y="1525.0"/>
    </contour>
  </outline>
</glyph>
<glyph name="micro" format="2">
	<unicode hex="00B5"/>
	<advance width="1316"/>
	<outline>
		<contour>
			<point x="-90" y="-277" type="line"/>
			<point x="-44" y="-255" type="line"/>
			<point x="-5" y="-100"/>
			<point x="67" y="269"/>
			<point x="87" y="367" type="qcurve" smooth="yes"/>
			<point x="186" y="857" type="line"/>
			<point x="41" y="873" type="line"/>
			<point x="51" y="1004" type="line"/>
			<point x="536" y="1049" type="line"/>
			<point x="634" y="1049" type="line"/>
			<point x="686" y="954" type="line"/>
			<point x="569" y="388" type="line" smooth="yes"/>
			<point x="552" y="305"/>
			<point x="558" y="205"/>
			<point x="591" y="205" type="qcurve" smooth="yes"/>
			<point x="624" y="205"/>
			<point x="645" y="227"/>
			<point x="650" y="248" type="qcurve" smooth="yes"/>
			<point x="791" y="899" type="line"/>
			<point x="757" y="1032" type="line"/>
			<point x="1236" y="1064" type="line"/>
			<point x="1274" y="912" type="line"/>
			<point x="1186" y="560" type="line"/>
			<point x="1121" y="214" type="line"/>
			<point x="1263" y="218" type="line"/>
			<point x="1261" y="86" type="line"/>
			<point x="723" y="-15" type="line"/>
			<point x="655" y="23" type="line"/>
			<point x="648" y="99" type="line"/>
			<point x="618" y="46"/>
			<point x="574" y="6"/>
			<point x="541" y="-6" type="qcurve" smooth="yes"/>
			<point x="507" y="-18"/>
			<point x="443" y="-19"/>
			<point x="423" y="-12" type="qcurve"/>
			<point x="378" y="-234" type="line"/>
			<point x="524" y="-242" type="line"/>
			<point x="512" y="-371" type="line"/>
			<point x="-71" y="-399" type="line"/>
		</contour>
	</outline>
</glyph>
<glyph name="cedilla" format="2">
	<unicode hex="00B8"/>
	<advance width="1024"/>
	<outline>
		<contour>
			<point x="558" y="1" type="line"/>
			<point x="487" y="-106" type="line"/>
			<point x="506" y="-100"/>
			<point x="577" y="-95"/>
			<point x="611" y="-95" type="qcurve" smooth="yes"/>
			<point x="702" y="-95"/>
			<point x="825" y="-174"/>
			<point x="825" y="-263" type="qcurve" smooth="yes"/>
			<point x="825" y="-358"/>
			<point x="652" y="-469"/>
			<point x="503" y="-469" type="qcurve" smooth="yes"/>
			<point x="403" y="-469"/>
			<point x="274" y="-427"/>
			<point x="215" y="-387" type="qcurve"/>
			<point x="263" y="-309" type="line"/>
			<point x="309" y="-334"/>
			<point x="404" y="-353"/>
			<point x="476" y="-353" type="qcurve" smooth="yes"/>
			<point x="544" y="-353"/>
			<point x="609" y="-310"/>
			<point x="609" y="-267" type="qcurve" smooth="yes"/>
			<point x="609" y="-236"/>
			<point x="555" y="-193"/>
			<point x="511" y="-193" type="qcurve" smooth="yes"/>
			<point x="476" y="-193"/>
			<point x="424" y="-200"/>
			<point x="406" y="-206" type="qcurve"/>
			<point x="339" y="-138" type="line"/>
			<point x="457" y="51" type="line"/>
		</contour>
	</outline>
</glyph>
<glyph name="onesuperior" format="2">
	<unicode hex="00B9"/>
	<advance width="741"/>
	<outline>
		<contour>
			<point x="70" y="670" type="line"/>
			<point x="70" y="764" type="line"/>
			<point x="234" y="794" type="line"/>
			<point x="237" y="1109" type="line"/>
			<point x="234" y="1341" type="line"/>
			<point x="68" y="1365" type="line"/>
			<point x="68" y="1475" type="line"/>
			<point x="489" y="1508" type="line"/>
			<point x="521" y="1473" type="line"/>
			<point x="515" y="1109" type="line"/>
			<point x="517" y="794" type="line"/>
			<point x="682" y="764" type="line"/>
			<point x="682" y="670" type="line"/>
		</contour>
	</outline>
</glyph>
<glyph name="AE" format="2">
  <advance width="1714"/>
  <unicode hex="00C6"/>
  <anchor x="857.0" y="1500" name="top"/>
  <outline>
    <contour>
      <point x="-84" y="0" type="line"/>
      <point x="-84" y="127" type="line"/>
      <point x="44" y="159" type="line"/>
      <point x="202" y="540" type="line"/>
      <point x="511" y="1323" type="line"/>
      <point x="360" y="1363" type="line"/>
      <point x="360" y="1500" type="line"/>
      <point x="1621" y="1500" type="line"/>
      <point x="1621" y="1149" type="line"/>
      <point x="1467" y="1149" type="line"/>
      <point x="1432" y="1332" type="line"/>
      <point x="1240" y="1332" type="line"/>
      <point x="1214" y="1308" type="line"/>
      <point x="1213" y="783" type="line"/>
      <point x="1214" y="163" type="line"/>
      <point x="1244" y="138" type="line"/>
      <point x="1475" y="138" type="line"/>
      <point x="1525" y="401" type="line"/>
      <point x="1688" y="401" type="line"/>
      <point x="1662" y="0" type="line"/>
      <point x="655" y="0" type="line"/>
      <point x="655" y="126" type="line"/>
      <point x="733" y="159" type="line"/>
      <point x="735" y="783" type="line"/>
      <point x="733" y="1316" type="line"/>
      <point x="709" y="1342" type="line"/>
      <point x="382" y="523" type="line"/>
      <point x="254" y="163" type="line"/>
      <point x="382" y="127" type="line"/>
      <point x="382" y="0" type="line"/>
    </contour>
    <contour>
      <point x="266" y="518" type="line"/>
      <point x="342" y="667" type="line"/>
      <point x="594" y="652" type="line"/>
      <point x="594" y="538" type="line"/>
    </contour>
    <contour>
      <point x="594" y="652" type="line"/>
      <point x="818" y="668" type="line"/>
      <point x="818" y="518" type="line"/>
      <point x="594" y="538" type="line"/>
    </contour>
    <contour>
      <point x="1000" y="718" type="line"/>
      <point x="1000" y="854" type="line"/>
      <point x="1434" y="864" type="line"/>
      <point x="1451" y="1005" type="line"/>
      <point x="1582" y="1005" type="line"/>
      <point x="1582" y="560" type="line"/>
      <point x="1451" y="560" type="line"/>
      <point x="1434" y="708" type="line"/>
    </contour>
  </outline>
</glyph>
<glyph name="ae" format="2">
  <advance width="1595"/>
  <unicode hex="00E6"/>
  <anchor x="797.5" y="1050" name="top"/>
  <outline>
    <contour>
      <point x="29" y="266" type="qcurve" smooth="yes"/>
      <point x="29" y="439"/>
      <point x="344" y="615"/>
      <point x="752" y="658" type="qcurve"/>
      <point x="759" y="573" type="line"/>
      <point x="529" y="557"/>
      <point x="457" y="441"/>
      <point x="457" y="305" type="qcurve" smooth="yes"/>
      <point x="457" y="221"/>
      <point x="490" y="172"/>
      <point x="522" y="172" type="qcurve" smooth="yes"/>
      <point x="549" y="172"/>
      <point x="583" y="205"/>
      <point x="604" y="250" type="qcurve"/>
      <point x="594" y="291"/>
      <point x="582" y="415"/>
      <point x="583" y="475" type="qcurve" smooth="yes"/>
      <point x="587" y="701" type="line" smooth="yes"/>
      <point x="589" y="826"/>
      <point x="526" y="926"/>
      <point x="446" y="926" type="qcurve" smooth="yes"/>
      <point x="398" y="926"/>
      <point x="329" y="876"/>
      <point x="321" y="852" type="qcurve"/>
      <point x="332" y="842"/>
      <point x="376" y="797"/>
      <point x="376" y="749" type="qcurve" smooth="yes"/>
      <point x="375" y="691"/>
      <point x="299" y="625"/>
      <point x="239" y="625" type="qcurve" smooth="yes"/>
      <point x="175" y="625"/>
      <point x="83" y="702"/>
      <point x="83" y="787" type="qcurve" smooth="yes"/>
      <point x="83" y="916"/>
      <point x="334" y="1073"/>
      <point x="570" y="1073" type="qcurve" smooth="yes"/>
      <point x="666" y="1073"/>
      <point x="798" y="1034"/>
      <point x="842" y="999" type="qcurve"/>
      <point x="847" y="999" type="line"/>
      <point x="893" y="1034"/>
      <point x="1019" y="1074"/>
      <point x="1096" y="1074" type="qcurve" smooth="yes"/>
      <point x="1311" y="1074"/>
      <point x="1566" y="831"/>
      <point x="1569" y="614" type="qcurve"/>
      <point x="1569" y="485" type="line"/>
      <point x="960" y="485" type="line"/>
      <point x="960" y="625" type="line"/>
      <point x="1175" y="625" type="line"/>
      <point x="1175" y="810"/>
      <point x="1155" y="920"/>
      <point x="1112" y="920" type="qcurve" smooth="yes"/>
      <point x="1070" y="920"/>
      <point x="1040" y="819"/>
      <point x="1040" y="556" type="qcurve" smooth="yes"/>
      <point x="1040" y="291"/>
      <point x="1141" y="169"/>
      <point x="1239" y="169" type="qcurve" smooth="yes"/>
      <point x="1320" y="169"/>
      <point x="1439" y="247"/>
      <point x="1473" y="287" type="qcurve"/>
      <point x="1568" y="174" type="line"/>
      <point x="1512" y="100"/>
      <point x="1269" y="-22"/>
      <point x="1085" y="-22" type="qcurve" smooth="yes"/>
      <point x="939" y="-22"/>
      <point x="707" y="78"/>
      <point x="642" y="180" type="qcurve"/>
      <point x="607" y="115"/>
      <point x="430" y="-17"/>
      <point x="308" y="-17" type="qcurve" smooth="yes"/>
      <point x="183" y="-17"/>
      <point x="29" y="118"/>
    </contour>
  </outline>
</glyph>
<glyph name="divide" format="2">
	<unicode hex="00F7"/>
	<advance width="889"/>
	<outline>
		<contour>
			<point x="48" y="501" type="line"/>
			<point x="48" y="763" type="line"/>
			<point x="841" y="763" type="line"/>
			<point x="841" y="501" type="line"/>
		</contour>
		<contour>
			<point x="262" y="275" type="qcurve" smooth="yes"/>
			<point x="262" y="345"/>
			<point x="364" y="456"/>
			<point x="443" y="456" type="qcurve" smooth="yes"/>
			<point x="522" y="456"/>
			<point x="624" y="345"/>
			<point x="624" y="275" type="qcurve" smooth="yes"/>
			<point x="624" y="203"/>
			<point x="522" y="93"/>
			<point x="443" y="93" type="qcurve" smooth="yes"/>
			<point x="364" y="93"/>
			<point x="262" y="203"/>
		</contour>
		<contour>
			<point x="262" y="989" type="qcurve" smooth="yes"/>
			<point x="262" y="1061"/>
			<point x="364" y="1170"/>
			<point x="443" y="1170" type="qcurve" smooth="yes"/>
			<point x="522" y="1170"/>
			<point x="624" y="1061"/>
			<point x="624" y="989" type="qcurve" smooth="yes"/>
			<point x="624" y="919"/>
			<point x="522" y="808"/>
			<point x="443" y="808" type="qcurve" smooth="yes"/>
			<point x="364" y="808"/>
			<point x="262" y="919"/>
		</contour>
	</outline>
</glyph>
<glyph name="thorn" format="2">
	<unicode hex="00FE"/>
	<advance width="1244"/>
	<outline>
		<contour>
			<point x="29" y="-480" type="line"/>
			<point x="29" y="-361" type="line"/>
			<point x="126" y="-326" type="line"/>
			<point x="128" y="427" type="line"/>
			<point x="121" y="1330" type="line"/>
			<point x="14" y="1364" type="line"/>
			<point x="14" y="1500" type="line"/>
			<point x="500" y="1534" type="line"/>
			<point x="532" y="1534" type="line"/>
			<point x="589" y="1487" type="line"/>
			<point x="592" y="943" type="line"/>
			<point x="617" y="1000"/>
			<point x="750" y="1068"/>
			<point x="844" y="1068" type="qcurve" smooth="yes"/>
			<point x="1016" y="1068"/>
			<point x="1206" y="822"/>
			<point x="1206" y="559" type="qcurve" smooth="yes"/>
			<point x="1206" y="290"/>
			<point x="997" y="-12"/>
			<point x="824" y="-12" type="qcurve" smooth="yes"/>
			<point x="728" y="-12"/>
			<point x="623" y="31"/>
			<point x="595" y="66" type="qcurve"/>
			<point x="597" y="-326" type="line"/>
			<point x="736" y="-361" type="line"/>
			<point x="736" y="-480" type="line"/>
		</contour>
		<contour>
			<point x="593" y="207" type="line"/>
			<point x="596" y="166"/>
			<point x="619" y="136"/>
			<point x="648" y="136" type="qcurve" smooth="yes"/>
			<point x="682" y="136"/>
			<point x="704" y="238"/>
			<point x="704" y="513" type="qcurve" smooth="yes"/>
			<point x="704" y="795"/>
			<point x="677" y="869"/>
			<point x="645" y="869" type="qcurve" smooth="yes"/>
			<point x="617" y="869"/>
			<point x="594" y="818"/>
			<point x="594" y="783" type="qcurve" smooth="yes"/>
			<point x="590" y="416" type="line"/>
		</contour>
	</outline>
</glyph>
<glyph name="OE" format="2">
	<unicode hex="0152"/>
	<advance width="1744"/>
	<outline>
		<contour>
			<point x="49" y="743" type="qcurve" smooth="yes"/>
			<point x="49" y="1074"/>
			<point x="390" y="1527"/>
			<point x="730" y="1527" type="qcurve" smooth="yes"/>
			<point x="786" y="1527"/>
			<point x="872" y="1513"/>
			<point x="912" y="1500" type="qcurve" smooth="yes"/>
			<point x="1650" y="1500" type="line"/>
			<point x="1650" y="1149" type="line"/>
			<point x="1496" y="1149" type="line"/>
			<point x="1461" y="1332" type="line"/>
			<point x="1269" y="1332" type="line"/>
			<point x="1234" y="1308" type="line"/>
			<point x="1232" y="783" type="line"/>
			<point x="1234" y="163" type="line"/>
			<point x="1273" y="138" type="line"/>
			<point x="1504" y="138" type="line"/>
			<point x="1554" y="401" type="line"/>
			<point x="1718" y="401" type="line"/>
			<point x="1692" y="0" type="line"/>
			<point x="889" y="0" type="line" smooth="yes"/>
			<point x="850" y="0"/>
			<point x="729" y="-25"/>
			<point x="641" y="-25" type="qcurve" smooth="yes"/>
			<point x="371" y="-25"/>
			<point x="49" y="402"/>
		</contour>
		<contour>
			<point x="581" y="768" type="qcurve" smooth="yes"/>
			<point x="581" y="325"/>
			<point x="619" y="134"/>
			<point x="680" y="134" type="qcurve" smooth="yes"/>
			<point x="715" y="134"/>
			<point x="739" y="150"/>
			<point x="756" y="161" type="qcurve"/>
			<point x="766" y="754" type="line"/>
			<point x="756" y="1323" type="line"/>
			<point x="744" y="1344"/>
			<point x="714" y="1362"/>
			<point x="689" y="1362" type="qcurve" smooth="yes"/>
			<point x="618" y="1362"/>
			<point x="581" y="1139"/>
		</contour>
		<contour>
			<point x="1200" y="718" type="line"/>
			<point x="1200" y="854" type="line"/>
			<point x="1385" y="864" type="line"/>
			<point x="1412" y="1005" type="line"/>
			<point x="1553" y="1005" type="line"/>
			<point x="1553" y="560" type="line"/>
			<point x="1412" y="560" type="line"/>
			<point x="1385" y="708" type="line"/>
		</contour>
	</outline>
</glyph>
<glyph name="florin" format="2">
	<unicode hex="0192"/>
	<advance width="973"/>
	<outline>
		<contour>
			<point x="717" y="32" type="line" smooth="yes"/>
			<point x="718" y="-124"/>
			<point x="537" y="-310"/>
			<point x="339" y="-310" type="qcurve" smooth="yes"/>
			<point x="237" y="-310"/>
			<point x="73" y="-285"/>
			<point x="29" y="-267" type="qcurve" smooth="yes"/>
			<point x="5" y="-257" type="line"/>
			<point x="5" y="-101" type="line"/>
			<point x="17" y="-106" type="line" smooth="yes"/>
			<point x="32" y="-112"/>
			<point x="93" y="-123"/>
			<point x="117" y="-123" type="qcurve" smooth="yes"/>
			<point x="171" y="-123"/>
			<point x="230" y="-60"/>
			<point x="230" y="-2" type="qcurve" smooth="yes"/>
			<point x="223" y="854" type="line"/>
			<point x="75" y="875" type="line"/>
			<point x="75" y="1008" type="line"/>
			<point x="224" y="1034" type="line"/>
			<point x="218" y="1170" type="line" smooth="yes"/>
			<point x="212" y="1326"/>
			<point x="378" y="1532"/>
			<point x="586" y="1532" type="qcurve" smooth="yes"/>
			<point x="688" y="1532"/>
			<point x="852" y="1509"/>
			<point x="896" y="1489" type="qcurve" smooth="yes"/>
			<point x="920" y="1479" type="line"/>
			<point x="920" y="1323" type="line"/>
			<point x="908" y="1328" type="line" smooth="yes"/>
			<point x="893" y="1334"/>
			<point x="832" y="1345"/>
			<point x="808" y="1345" type="qcurve" smooth="yes"/>
			<point x="754" y="1345"/>
			<point x="713" y="1262"/>
			<point x="713" y="1204" type="qcurve" smooth="yes"/>
			<point x="713" y="1024" type="line"/>
			<point x="894" y="1024" type="line"/>
			<point x="894" y="872" type="line"/>
			<point x="712" y="865" type="line"/>
		</contour>
	</outline>
</glyph>
<glyph name="circumflex" format="2">
  <advance width="1024"/>
  <unicode hex="02C6"/>
  <outline>
    <contour>
      <point x="512.0" y="1578.0" type="qcurve" smooth="yes"/>
      <point x="550.0" y="1578.0"/>
      <point x="611.0" y="1538.0"/>
      <point x="653.0" y="1487.0" type="qcurve" smooth="yes"/>
      <point x="842.0" y="1226.0" type="line"/>
      <point x="761.0" y="1150.0" type="line"/>
      <point x="512.0" y="1357.0" type="line"/>
      <point x="263.0" y="1150.0" type="line"/>
      <point x="182.0" y="1226.0" type="line"/>
      <point x="371.0" y="1487.0" type="line" smooth="yes"/>
      <point x="412.0" y="1543.0"/>
      <point x="474.0" y="1578.0"/>
    </contour>
  </outline>
</glyph>
<glyph name="caron" format="2">
  <advance width="1024"/>
  <unicode hex="02C7"/>
  <outline>
    <contour>
      <point x="512.0" y="1150.0" type="qcurve" smooth="yes"/>
      <point x="474.0" y="1150.0"/>
      <point x="413.0" y="1190.0"/>
      <point x="371.0" y="1241.0" type="qcurve" smooth="yes"/>
      <point x="182.0" y="1502.0" type="line"/>
      <point x="263.0" y="1578.0" type="line"/>
      <point x="512.0" y="1371.0" type="line"/>
      <point x="761.0" y="1578.0" type="line"/>
      <point x="842.0" y="1502.0" type="line"/>
      <point x="653.0" y="1241.0" type="line" smooth="yes"/>
      <point x="612.0" y="1185.0"/>
      <point x="550.0" y="1150.0"/>
    </contour>
  </outline>
</glyph>
<glyph name="breve" format="2">
  <advance width="1024"/>
  <unicode hex="02D8"/>
  <outline>
    <contour>
      <point x="733.0" y="1512.0" type="qcurve"/>
      <point x="830.0" y="1474.0" type="line"/>
      <point x="813.0" y="1360.0"/>
      <point x="658.0" y="1171.0"/>
      <point x="513.0" y="1171.0" type="qcurve" smooth="yes"/>
      <point x="368.0" y="1171.0"/>
      <point x="213.0" y="1339.0"/>
      <point x="194.0" y="1472.0" type="qcurve"/>
      <point x="295.0" y="1513.0" type="line"/>
      <point x="325.0" y="1429.0"/>
      <point x="426.0" y="1336.0"/>
      <point x="514.0" y="1336.0" type="qcurve" smooth="yes"/>
      <point x="599.0" y="1336.0"/>
      <point x="709.0" y="1430.0"/>
    </contour>
  </outline>
</glyph>
<glyph name="ring" format="2">
  <advance width="1024"/>
  <unicode hex="02DA"/>
  <outline>
    <contour>
      <point x="271" y="1381" type="qcurve" smooth="yes"/>
      <point x="271" y="1478"/>
      <point x="412" y="1613"/>
      <point x="512" y="1613" type="qcurve" smooth="yes"/>
      <point x="612" y="1613"/>
      <point x="753" y="1478"/>
      <point x="753" y="1381" type="qcurve" smooth="yes"/>
      <point x="753" y="1285"/>
      <point x="612" y="1150"/>
      <point x="512" y="1150" type="qcurve" smooth="yes"/>
      <point x="412" y="1150"/>
      <point x="271" y="1285"/>
    </contour>
    <contour>
      <point x="403" y="1381" type="qcurve" smooth="yes"/>
      <point x="403" y="1332"/>
      <point x="462" y="1273"/>
      <point x="512" y="1273" type="qcurve" smooth="yes"/>
      <point x="564" y="1273"/>
      <point x="621" y="1328"/>
      <point x="621" y="1381" type="qcurve" smooth="yes"/>
      <point x="621" y="1429"/>
      <point x="562" y="1490"/>
      <point x="512" y="1490" type="qcurve" smooth="yes"/>
      <point x="460" y="1490"/>
      <point x="403" y="1435"/>
    </contour>
  </outline>
</glyph>
<glyph name="ogonek" format="2">
  <advance width="1024"/>
  <unicode hex="02DB"/>
  <outline>
    <contour>
      <point x="470.0" y="-208.0" type="qcurve" smooth="yes"/>
      <point x="470.0" y="-255.0"/>
      <point x="529.0" y="-310.0"/>
      <point x="580.0" y="-310.0" type="qcurve" smooth="yes"/>
      <point x="635.0" y="-310.0"/>
      <point x="703.0" y="-277.0"/>
      <point x="754.0" y="-239.0" type="qcurve"/>
      <point x="807.0" y="-319.0" type="line"/>
      <point x="768.0" y="-360.0"/>
      <point x="594.0" y="-441.0"/>
      <point x="512.0" y="-441.0" type="qcurve" smooth="yes"/>
      <point x="396.0" y="-441.0"/>
      <point x="271.0" y="-350.0"/>
      <point x="271.0" y="-268.0" type="qcurve" smooth="yes"/>
      <point x="271.0" y="-173.0"/>
      <point x="401.0" y="-31.0"/>
      <point x="485.0" y="30.0" type="qcurve" smooth="yes"/>
      <point x="512.0" y="49.0" type="line"/>
      <point x="600.0" y="0.0" type="line"/>
      <point x="581.0" y="-17.0" type="line" smooth="yes"/>
      <point x="512.0" y="-78.0"/>
      <point x="470.0" y="-167.0"/>
    </contour>
  </outline>
</glyph>
<glyph name="tilde" format="2">
  <advance width="1024"/>
  <unicode hex="02DC"/>
  <outline>
    <contour>
      <point x="192.0" y="1272.0" type="line"/>
      <point x="225.0" y="1337.0"/>
      <point x="329.0" y="1433.0"/>
      <point x="391.0" y="1433.0" type="qcurve" smooth="yes"/>
      <point x="444.0" y="1433.0"/>
      <point x="507.0" y="1405.0"/>
      <point x="542.0" y="1382.0" type="qcurve" smooth="yes"/>
      <point x="574.0" y="1361.0"/>
      <point x="627.0" y="1329.0"/>
      <point x="667.0" y="1329.0" type="qcurve" smooth="yes"/>
      <point x="705.0" y="1329.0"/>
      <point x="780.0" y="1372.0"/>
      <point x="805.0" y="1397.0" type="qcurve"/>
      <point x="865.0" y="1310.0" type="line"/>
      <point x="832.0" y="1245.0"/>
      <point x="728.0" y="1149.0"/>
      <point x="666.0" y="1149.0" type="qcurve" smooth="yes"/>
      <point x="613.0" y="1149.0"/>
      <point x="550.0" y="1177.0"/>
      <point x="515.0" y="1200.0" type="qcurve" smooth="yes"/>
      <point x="483.0" y="1221.0"/>
      <point x="430.0" y="1253.0"/>
      <point x="390.0" y="1253.0" type="qcurve" smooth="yes"/>
      <point x="352.0" y="1253.0"/>
      <point x="277.0" y="1210.0"/>
      <point x="252.0" y="1185.0" type="qcurve"/>
    </contour>
  </outline>
</glyph>
<glyph name="hungarumlaut" format="2">
  <advance width="1024"/>
  <unicode hex="02DD"/>
  <outline>
    <contour>
      <point x="640" y="1466" type="qcurve" smooth="yes"/>
      <point x="647" y="1443"/>
      <point x="614" y="1353"/>
      <point x="574" y="1325" type="qcurve" smooth="yes"/>
      <point x="326" y="1150" type="line"/>
      <point x="255" y="1207" type="line"/>
      <point x="370" y="1406" type="line" smooth="yes"/>
      <point x="400" y="1456"/>
      <point x="487" y="1542"/>
      <point x="526" y="1548" type="qcurve" smooth="yes"/>
      <point x="567" y="1553"/>
      <point x="633" y="1498"/>
    </contour>
    <contour>
      <point x="959" y="1467" type="qcurve" smooth="yes"/>
      <point x="966" y="1443"/>
      <point x="934" y="1353"/>
      <point x="893" y="1325" type="qcurve" smooth="yes"/>
      <point x="645" y="1150" type="line"/>
      <point x="574" y="1207" type="line"/>
      <point x="688" y="1406" type="line" smooth="yes"/>
      <point x="718" y="1456"/>
      <point x="806" y="1543"/>
      <point x="845" y="1548" type="qcurve" smooth="yes"/>
      <point x="886" y="1553"/>
      <point x="952" y="1498"/>
    </contour>
  </outline>
</glyph>
<glyph name="hookabovecomb" format="2">
  <advance width="1024"/>
  <unicode hex="0309"/>
  <anchor x="512.0" y="1050" name="_top"/>
  <anchor x="512.0" y="1695.0" name="top"/>
  <outline>
    <contour>
      <point x="399.0" y="1180.0" type="line"/>
      <point x="399.0" y="1323.0" type="line"/>
      <point x="454.0" y="1398.0" type="line"/>
      <point x="473.0" y="1392.0"/>
      <point x="519.0" y="1384.0"/>
      <point x="535.0" y="1384.0" type="qcurve" smooth="yes"/>
      <point x="580.0" y="1384.0"/>
      <point x="630.0" y="1429.0"/>
      <point x="630.0" y="1464.0" type="qcurve" smooth="yes"/>
      <point x="630.0" y="1502.0"/>
      <point x="564.0" y="1540.0"/>
      <point x="511.0" y="1540.0" type="qcurve" smooth="yes"/>
      <point x="460.0" y="1540.0"/>
      <point x="349.0" y="1517.0"/>
      <point x="307.0" y="1501.0" type="qcurve"/>
      <point x="252.0" y="1632.0" type="line"/>
      <point x="307.0" y="1661.0"/>
      <point x="462.0" y="1695.0"/>
      <point x="526.0" y="1695.0" type="qcurve" smooth="yes"/>
      <point x="690.0" y="1695.0"/>
      <point x="848.0" y="1580.0"/>
      <point x="848.0" y="1468.0" type="qcurve" smooth="yes"/>
      <point x="848.0" y="1373.0"/>
      <point x="717.0" y="1257.0"/>
      <point x="613.0" y="1257.0" type="qcurve" smooth="yes"/>
      <point x="581.0" y="1257.0"/>
      <point x="539.0" y="1260.0"/>
      <point x="525.0" y="1263.0" type="qcurve"/>
      <point x="525.0" y="1180.0" type="line"/>
    </contour>
  </outline>
</glyph>
<glyph name="breveinvertedcomb" format="2">
  <advance width="1024"/>
  <unicode hex="030F"/>
  <anchor x="512.0" y="1050" name="_top"/>
  <anchor x="512.0" y="1515.0" name="top"/>
  <outline>
    <contour>
      <point x="275.0" y="1173.0" type="qcurve"/>
      <point x="192.0" y="1212.0" type="line"/>
      <point x="209.0" y="1328.0"/>
      <point x="372.0" y="1515.0"/>
      <point x="511.0" y="1515.0" type="qcurve" smooth="yes"/>
      <point x="650.0" y="1515.0"/>
      <point x="811.0" y="1330.0"/>
      <point x="832.0" y="1217.0" type="qcurve"/>
      <point x="747.0" y="1171.0" type="line"/>
      <point x="710.0" y="1254.0"/>
      <point x="599.0" y="1333.0"/>
      <point x="511.0" y="1333.0" type="qcurve" smooth="yes"/>
      <point x="423.0" y="1333.0"/>
      <point x="299.0" y="1253.0"/>
    </contour>
  </outline>
</glyph>
<glyph name="dieresisbelowcomb" format="2">
  <advance width="1024"/>
  <unicode hex="0324"/>
  <anchor x="512.0" y="0" name="_bottom"/>
  <anchor x="512.0" y="-462" name="bottom"/>
  <outline>
    <contour>
      <point x="227" y="-326" type="qcurve" smooth="yes"/>
      <point x="227" y="-261"/>
      <point x="292" y="-192"/>
      <point x="354" y="-192" type="qcurve" smooth="yes"/>
      <point x="412" y="-192"/>
      <point x="481" y="-266"/>
      <point x="481" y="-326" type="qcurve" smooth="yes"/>
      <point x="481" y="-392"/>
      <point x="416" y="-462"/>
      <point x="354" y="-462" type="qcurve" smooth="yes"/>
      <point x="296" y="-462"/>
      <point x="227" y="-388"/>
    </contour>
    <contour>
      <point x="543" y="-326" type="qcurve" smooth="yes"/>
      <point x="543" y="-261"/>
      <point x="609" y="-192"/>
      <point x="670" y="-192" type="qcurve" smooth="yes"/>
      <point x="728" y="-192"/>
      <point x="797" y="-266"/>
      <point x="797" y="-326" type="qcurve" smooth="yes"/>
      <point x="797" y="-392"/>
      <point x="733" y="-462"/>
      <point x="670" y="-462" type="qcurve" smooth="yes"/>
      <point x="612" y="-462"/>
      <point x="543" y="-388"/>
    </contour>
  </outline>
</glyph>
<glyph name="numeralsign" format="2">
	<unicode hex="0374"/>
	<advance width="349"/>
	<outline>
		<contour>
			<point x="200" y="933" type="line"/>
			<point x="4" y="984" type="line"/>
			<point x="108" y="1500" type="line"/>
			<point x="374" y="1471" type="line"/>
			<point x="400" y="1426" type="line"/>
		</contour>
	</outline>
</glyph>
<glyph name="dieresistonos" format="2">
	<unicode hex="0385"/>
	<advance width="1324"/>
	<outline>
		<contour>
			<point x="324" y="1160" type="qcurve" smooth="yes"/>
			<point x="266" y="1160"/>
			<point x="197" y="1234"/>
			<point x="197" y="1296" type="qcurve" smooth="yes"/>
			<point x="197" y="1361"/>
			<point x="262" y="1430"/>
			<point x="324" y="1430" type="qcurve" smooth="yes"/>
			<point x="382" y="1430"/>
			<point x="451" y="1356"/>
			<point x="451" y="1296" type="qcurve" smooth="yes"/>
			<point x="451" y="1230"/>
			<point x="386" y="1160"/>
		</contour>
		<contour>
			<point x="720" y="1143" type="line"/>
			<point x="524" y="1174" type="line"/>
			<point x="570" y="1690" type="line"/>
			<point x="836" y="1661" type="line"/>
			<point x="862" y="1616" type="line"/>
		</contour>
		<contour>
			<point x="1000" y="1160" type="qcurve" smooth="yes"/>
			<point x="942" y="1160"/>
			<point x="873" y="1234"/>
			<point x="873" y="1296" type="qcurve" smooth="yes"/>
			<point x="873" y="1361"/>
			<point x="939" y="1430"/>
			<point x="1000" y="1430" type="qcurve" smooth="yes"/>
			<point x="1058" y="1430"/>
			<point x="1127" y="1356"/>
			<point x="1127" y="1296" type="qcurve" smooth="yes"/>
			<point x="1127" y="1230"/>
			<point x="1063" y="1160"/>
		</contour>
	</outline>
</glyph>
<glyph name="Lambda" format="2">
	<unicode hex="039B"/>
	<advance width="1112"/>
	<outline>
		<contour>
			<point x="0" y="0" type="line"/>
			<point x="0" y="124" type="line"/>
			<point x="92" y="148" type="line"/>
			<point x="164" y="567" type="line"/>
			<point x="323" y="1500" type="line"/>
			<point x="771" y="1500" type="line"/>
			<point x="945" y="602" type="line"/>
			<point x="1032" y="157" type="line"/>
			<point x="1112" y="124" type="line"/>
			<point x="1112" y="0" type="line"/>
			<point x="455" y="0" type="line"/>
			<point x="455" y="124" type="line"/>
			<point x="522" y="161" type="line"/>
			<point x="465" y="499" type="line"/>
			<point x="387" y="1004" type="line"/>
			<point x="311" y="539" type="line"/>
			<point x="254" y="152" type="line"/>
			<point x="355" y="124" type="line"/>
			<point x="355" y="0" type="line"/>
		</contour>
	</outline>
</glyph>
<glyph name="Xi" format="2">
	<unicode hex="039E"/>
	<advance width="982"/>
	<outline>
		<contour>
			<point x="28" y="0" type="line"/>
			<point x="4" y="571" type="line"/>
			<point x="153" y="571" type="line"/>
			<point x="202" y="348" type="line"/>
			<point x="451" y="343" type="line"/>
			<point x="780" y="348" type="line"/>
			<point x="829" y="571" type="line"/>
			<point x="978" y="571" type="line"/>
			<point x="954" y="0" type="line"/>
		</contour>
		<contour>
			<point x="261" y="508" type="line"/>
			<point x="261" y="993" type="line"/>
			<point x="402" y="993" type="line"/>
			<point x="427" y="842" type="line"/>
			<point x="487" y="828" type="line"/>
			<point x="555" y="842" type="line"/>
			<point x="580" y="993" type="line"/>
			<point x="721" y="993" type="line"/>
			<point x="721" y="508" type="line"/>
			<point x="580" y="508" type="line"/>
			<point x="555" y="666" type="line"/>
			<point x="487" y="680" type="line"/>
			<point x="427" y="666" type="line"/>
			<point x="402" y="508" type="line"/>
		</contour>
		<contour>
			<point x="40" y="982" type="line"/>
			<point x="40" y="1501" type="line"/>
			<point x="942" y="1501" type="line"/>
			<point x="942" y="982" type="line"/>
			<point x="805" y="982" type="line"/>
			<point x="774" y="1155" type="line"/>
			<point x="553" y="1160" type="line"/>
			<point x="208" y="1155" type="line"/>
			<point x="177" y="982" type="line"/>
		</contour>
	</outline>
</glyph>
<glyph name="Psi" format="2">
	<unicode hex="03A8"/>
	<advance width="1585"/>
	<outline>
		<contour>
			<point x="456" y="0" type="line"/>
			<point x="456" y="126" type="line"/>
			<point x="555" y="162" type="line"/>
			<point x="555" y="538" type="line"/>
			<point x="610" y="538" type="line"/>
			<point x="610" y="754" type="line"/>
			<point x="608" y="1328" type="line"/>
			<point x="570" y="1362" type="line"/>
			<point x="570" y="1500" type="line"/>
			<point x="1016" y="1500" type="line"/>
			<point x="1016" y="1362" type="line"/>
			<point x="978" y="1328" type="line"/>
			<point x="976" y="754" type="line"/>
			<point x="976" y="538" type="line"/>
			<point x="1031" y="538" type="line"/>
			<point x="1031" y="162" type="line"/>
			<point x="1130" y="126" type="line"/>
			<point x="1130" y="0" type="line"/>
		</contour>
		<contour>
			<point x="658" y="452" type="line"/>
			<point x="379" y="452"/>
			<point x="57" y="629"/>
			<point x="57" y="899" type="qcurve" smooth="yes"/>
			<point x="57" y="1329" type="line"/>
			<point x="0" y="1363" type="line"/>
			<point x="0" y="1500" type="line"/>
			<point x="477" y="1500" type="line"/>
			<point x="512" y="1467" type="line"/>
			<point x="512" y="801" type="line" smooth="yes"/>
			<point x="512" y="686"/>
			<point x="577" y="627"/>
			<point x="658" y="627" type="qcurve"/>
		</contour>
		<contour>
			<point x="928" y="452" type="qcurve"/>
			<point x="928" y="627" type="line"/>
			<point x="1009" y="627"/>
			<point x="1074" y="686"/>
			<point x="1074" y="801" type="qcurve" smooth="yes"/>
			<point x="1074" y="1467" type="line"/>
			<point x="1109" y="1500" type="line"/>
			<point x="1586" y="1500" type="line"/>
			<point x="1586" y="1363" type="line"/>
			<point x="1529" y="1329" type="line"/>
			<point x="1529" y="899" type="line" smooth="yes"/>
			<point x="1529" y="629"/>
			<point x="1207" y="452"/>
		</contour>
	</outline>
</glyph>
<glyph name="sigma" format="2">
	<unicode hex="03C3"/>
	<advance width="1249"/>
	<outline>
		<contour>
			<point x="599" y="-22" type="qcurve" smooth="yes"/>
			<point x="338" y="-22"/>
			<point x="36" y="259"/>
			<point x="36" y="503" type="qcurve" smooth="yes"/>
			<point x="36" y="736"/>
			<point x="319" y="1011"/>
			<point x="592" y="1028" type="qcurve" smooth="yes"/>
			<point x="1148" y="1062" type="line"/>
			<point x="1183" y="1035" type="line"/>
			<point x="1150" y="740" type="line"/>
			<point x="749" y="813" type="line" smooth="yes"/>
			<point x="610" y="837"/>
			<point x="531" y="701"/>
			<point x="531" y="482" type="qcurve" smooth="yes"/>
			<point x="531" y="281"/>
			<point x="550" y="117"/>
			<point x="603" y="117" type="qcurve" smooth="yes"/>
			<point x="658" y="117"/>
			<point x="675" y="260"/>
			<point x="675" y="472" type="qcurve" smooth="yes"/>
			<point x="675" y="773"/>
			<point x="554" y="851"/>
			<point x="504" y="851" type="qcurve"/>
			<point x="504" y="928" type="line"/>
			<point x="650" y="910" type="line" smooth="yes"/>
			<point x="847" y="886"/>
			<point x="1134" y="679"/>
			<point x="1134" y="450" type="qcurve" smooth="yes"/>
			<point x="1134" y="222"/>
			<point x="855" y="-22"/>
		</contour>
	</outline>
</glyph>
<glyph name="phi" format="2">
	<unicode hex="03C6"/>
	<advance width="1627"/>
	<outline>
		<contour>
			<point x="695" y="-18" type="line"/>
			<point x="367" y="-10"/>
			<point x="40" y="261"/>
			<point x="40" y="520" type="qcurve" smooth="yes"/>
			<point x="40" y="754"/>
			<point x="364" y="1052"/>
			<point x="698" y="1068" type="qcurve"/>
			<point x="698" y="914" type="line"/>
			<point x="617" y="915"/>
			<point x="528" y="734"/>
			<point x="528" y="525" type="qcurve" smooth="yes"/>
			<point x="528" y="347"/>
			<point x="605" y="153"/>
			<point x="695" y="136" type="qcurve"/>
		</contour>
		<contour>
			<point x="929" y="-18" type="qcurve"/>
			<point x="929" y="136" type="line"/>
			<point x="1010" y="135"/>
			<point x="1099" y="316"/>
			<point x="1099" y="525" type="qcurve" smooth="yes"/>
			<point x="1099" y="703"/>
			<point x="1022" y="897"/>
			<point x="932" y="914" type="qcurve"/>
			<point x="932" y="1068" type="line"/>
			<point x="1260" y="1060"/>
			<point x="1587" y="789"/>
			<point x="1587" y="530" type="qcurve" smooth="yes"/>
			<point x="1587" y="296"/>
			<point x="1263" y="-2"/>
		</contour>
		<contour>
			<point x="607" y="-480" type="line"/>
			<point x="572" y="-453" type="line"/>
			<point x="603" y="67" type="line"/>
			<point x="633" y="67" type="line"/>
			<point x="668" y="960" type="line"/>
			<point x="633" y="960" type="line"/>
			<point x="637" y="1526" type="line"/>
			<point x="961" y="1555" type="line"/>
			<point x="996" y="1528" type="line"/>
			<point x="992" y="960" type="line"/>
			<point x="957" y="960" type="line"/>
			<point x="985" y="67" type="line"/>
			<point x="1015" y="67" type="line"/>
			<point x="1049" y="-441" type="line"/>
		</contour>
	</outline>
</glyph>
<glyph name="chi" format="2">
	<unicode hex="03C7"/>
	<advance width="1085"/>
	<outline>
		<contour>
			<point x="781" y="-495" type="line"/>
			<point x="713" y="-495"/>
			<point x="635" y="-452"/>
			<point x="610" y="-384" type="qcurve" smooth="yes"/>
			<point x="431" y="97" type="line"/>
			<point x="117" y="761" type="line" smooth="yes"/>
			<point x="101" y="796"/>
			<point x="41" y="851"/>
			<point x="-6" y="869" type="qcurve" smooth="yes"/>
			<point x="-63" y="887" type="line"/>
			<point x="-63" y="1020" type="line"/>
			<point x="306" y="1055" type="line"/>
			<point x="365" y="1055"/>
			<point x="459" y="999"/>
			<point x="490" y="933" type="qcurve"/>
			<point x="675" y="458" type="line"/>
			<point x="983" y="-206" type="line" smooth="yes"/>
			<point x="998" y="-239"/>
			<point x="1052" y="-325"/>
			<point x="1100" y="-325" type="qcurve" smooth="yes"/>
			<point x="1151" y="-325" type="line"/>
			<point x="1151" y="-456" type="line"/>
		</contour>
		<contour>
			<point x="5" y="-480" type="line"/>
			<point x="-24" y="-453" type="line"/>
			<point x="223" y="36" type="line"/>
			<point x="411" y="427" type="line"/>
			<point x="532" y="175" type="line"/>
			<point x="464" y="-188" type="line"/>
			<point x="408" y="-441" type="line"/>
		</contour>
		<contour>
			<point x="640" y="177" type="line"/>
			<point x="520" y="429" type="line"/>
			<point x="629" y="772" type="line"/>
			<point x="696" y="1023" type="line"/>
			<point x="1096" y="1062" type="line"/>
			<point x="1128" y="1035" type="line"/>
			<point x="865" y="548" type="line"/>
		</contour>
	</outline>
	<guideline x="-203" y="747" angle="0" identifier="TVngL3egIo"/>
</glyph>
<glyph name="omega" format="2">
	<unicode hex="03C9"/>
	<advance width="1578"/>
	<outline>
		<contour>
			<point x="498" y="-22" type="qcurve" smooth="yes"/>
			<point x="294" y="-22"/>
			<point x="52" y="215"/>
			<point x="52" y="474" type="qcurve" smooth="yes"/>
			<point x="52" y="660"/>
			<point x="191" y="977"/>
			<point x="329" y="1068" type="qcurve"/>
			<point x="610" y="962" type="line"/>
			<point x="571" y="892"/>
			<point x="508" y="619"/>
			<point x="508" y="403" type="qcurve"/>
			<point x="508" y="284"/>
			<point x="543" y="201"/>
			<point x="584" y="201" type="qcurve" smooth="yes"/>
			<point x="632" y="201"/>
			<point x="660" y="335"/>
			<point x="674" y="660" type="qcurve"/>
			<point x="917" y="660" type="line"/>
			<point x="919" y="345"/>
			<point x="942" y="201"/>
			<point x="994" y="201" type="qcurve" smooth="yes"/>
			<point x="1030" y="201"/>
			<point x="1070" y="277"/>
			<point x="1070" y="403" type="qcurve" smooth="yes"/>
			<point x="1070" y="639"/>
			<point x="1004" y="892"/>
			<point x="968" y="962" type="qcurve"/>
			<point x="1249" y="1068" type="line"/>
			<point x="1399" y="966"/>
			<point x="1526" y="648"/>
			<point x="1526" y="472" type="qcurve"/>
			<point x="1526" y="206"/>
			<point x="1273" y="-22"/>
			<point x="1082" y="-22" type="qcurve" smooth="yes"/>
			<point x="876" y="-22"/>
			<point x="631" y="281"/>
			<point x="631" y="615" type="qcurve" smooth="yes"/>
			<point x="631" y="725" type="line"/>
			<point x="911" y="751" type="line"/>
			<point x="946" y="725" type="line"/>
			<point x="946" y="615" type="line" smooth="yes"/>
			<point x="946" y="281"/>
			<point x="703" y="-22"/>
		</contour>
	</outline>
	<anchor name="GRKtop" x="782" y="1050"/>
</glyph>
<glyph name="Lje" format="2">
  <advance width="1699"/>
  <unicode hex="0409"/>
  <outline>
    <contour>
      <point x="1198" y="460" type="qcurve" smooth="yes"/>
      <point x="1198" y="645"/>
      <point x="1161" y="770"/>
      <point x="1101" y="768" type="qcurve" smooth="yes"/>
      <point x="1075" y="768" type="line"/>
      <point x="1067" y="757" type="line"/>
      <point x="1069" y="160" type="line"/>
      <point x="1084" y="140" type="line"/>
      <point x="1107" y="140" type="line" smooth="yes"/>
      <point x="1171" y="140"/>
      <point x="1198" y="275"/>
    </contour>
    <contour>
      <point x="1070" y="1328" type="line"/>
      <point x="1068" y="920" type="line"/>
      <point x="1073" y="910" type="line"/>
      <point x="1266" y="910" type="line" smooth="yes"/>
      <point x="1486" y="910"/>
      <point x="1691" y="678"/>
      <point x="1691" y="453" type="qcurve" smooth="yes"/>
      <point x="1691" y="266"/>
      <point x="1469" y="0"/>
      <point x="1268" y="0" type="qcurve" smooth="yes"/>
      <point x="518" y="0" type="line"/>
      <point x="518" y="126" type="line"/>
      <point x="582" y="160" type="line"/>
      <point x="584" y="724" type="line"/>
      <point x="579" y="1308" type="line"/>
      <point x="546" y="1332" type="line"/>
      <point x="452" y="1332" type="line"/>
      <point x="425" y="1308" type="line"/>
      <point x="426" y="798" type="line" smooth="yes"/>
      <point x="427" y="412"/>
      <point x="340" y="-25"/>
      <point x="133" y="-25" type="qcurve" smooth="yes"/>
      <point x="90" y="-25"/>
      <point x="39" y="-13"/>
      <point x="10" y="0" type="qcurve"/>
      <point x="10" y="368" type="line"/>
      <point x="34" y="360"/>
      <point x="59" y="355"/>
      <point x="84" y="355" type="qcurve" smooth="yes"/>
      <point x="157" y="355"/>
      <point x="217" y="586"/>
      <point x="217" y="821" type="qcurve" smooth="yes"/>
      <point x="216" y="1328" type="line"/>
      <point x="149" y="1362" type="line"/>
      <point x="149" y="1500" type="line"/>
      <point x="1133" y="1500" type="line"/>
      <point x="1133" y="1362" type="line"/>
    </contour>
  </outline>
</glyph>
<glyph name="Nje" format="2">
  <advance width="1836"/>
  <unicode hex="040A"/>
  <outline>
    <contour>
      <point x="15" y="0" type="line"/>
      <point x="15" y="126" type="line"/>
      <point x="78" y="161" type="line"/>
      <point x="80" y="754" type="line"/>
      <point x="78" y="1328" type="line"/>
      <point x="15" y="1362" type="line"/>
      <point x="15" y="1500" type="line"/>
      <point x="616" y="1500" type="line"/>
      <point x="616" y="1362" type="line"/>
      <point x="569" y="1328" type="line"/>
      <point x="567" y="754" type="line"/>
      <point x="569" y="161" type="line"/>
      <point x="616" y="126" type="line"/>
      <point x="616" y="0" type="line"/>
    </contour>
    <contour>
      <point x="331" y="728" type="line"/>
      <point x="331" y="886" type="line"/>
      <point x="650" y="878" type="line"/>
      <point x="976" y="886" type="line"/>
      <point x="976" y="728" type="line"/>
      <point x="650" y="728" type="line"/>
    </contour>
    <contour>
      <point x="1335" y="450" type="qcurve" smooth="yes"/>
      <point x="1335" y="623"/>
      <point x="1298" y="738"/>
      <point x="1238" y="738" type="qcurve" smooth="yes"/>
      <point x="1212" y="738" type="line"/>
      <point x="1204" y="727" type="line"/>
      <point x="1206" y="160" type="line"/>
      <point x="1221" y="140" type="line"/>
      <point x="1244" y="140" type="line" smooth="yes"/>
      <point x="1308" y="140"/>
      <point x="1335" y="271"/>
    </contour>
    <contour>
      <point x="655" y="0" type="line"/>
      <point x="655" y="126" type="line"/>
      <point x="719" y="160" type="line"/>
      <point x="721" y="724" type="line"/>
      <point x="719" y="1328" type="line"/>
      <point x="655" y="1362" type="line"/>
      <point x="655" y="1500" type="line"/>
      <point x="1281" y="1500" type="line"/>
      <point x="1281" y="1362" type="line"/>
      <point x="1207" y="1328" type="line"/>
      <point x="1205" y="890" type="line"/>
      <point x="1210" y="880" type="line"/>
      <point x="1403" y="880" type="line" smooth="yes"/>
      <point x="1623" y="880"/>
      <point x="1828" y="658"/>
      <point x="1828" y="443" type="qcurve" smooth="yes"/>
      <point x="1828" y="260"/>
      <point x="1606" y="0"/>
      <point x="1405" y="0" type="qcurve" smooth="yes"/>
    </contour>
  </outline>
</glyph>
<glyph name="Dzhe" format="2">
  <advance width="1288"/>
  <unicode hex="040F"/>
  <outline>
    <contour>
      <point x="794" y="0" type="line"/>
      <point x="720" y="-338" type="line"/>
      <point x="568" y="-338" type="line"/>
      <point x="494" y="0" type="line"/>
      <point x="15" y="0" type="line"/>
      <point x="15" y="138" type="line"/>
      <point x="78" y="172" type="line"/>
      <point x="80" y="746" type="line"/>
      <point x="78" y="1339" type="line"/>
      <point x="15" y="1374" type="line"/>
      <point x="15" y="1500" type="line"/>
      <point x="616" y="1500" type="line"/>
      <point x="616" y="1374" type="line"/>
      <point x="569" y="1339" type="line"/>
      <point x="567" y="746" type="line"/>
      <point x="569" y="192" type="line"/>
      <point x="596" y="168" type="line"/>
      <point x="686" y="168" type="line"/>
      <point x="719" y="192" type="line"/>
      <point x="721" y="746" type="line"/>
      <point x="719" y="1339" type="line"/>
      <point x="666" y="1374" type="line"/>
      <point x="666" y="1500" type="line"/>
      <point x="1273" y="1500" type="line"/>
      <point x="1273" y="1374" type="line"/>
      <point x="1210" y="1339" type="line"/>
      <point x="1208" y="746" type="line"/>
      <point x="1210" y="172" type="line"/>
      <point x="1273" y="138" type="line"/>
      <point x="1273" y="0" type="line"/>
    </contour>
  </outline>
</glyph>
<glyph name="Be" format="2">
  <advance width="1198"/>
  <unicode hex="0411"/>
  <outline>
    <contour>
      <point x="690" y="460" type="qcurve" smooth="yes"/>
      <point x="690" y="645"/>
      <point x="655" y="768"/>
      <point x="598" y="768" type="qcurve" smooth="yes"/>
      <point x="572" y="768" type="line"/>
      <point x="564" y="757" type="line"/>
      <point x="566" y="160" type="line"/>
      <point x="581" y="140" type="line"/>
      <point x="604" y="140" type="line" smooth="yes"/>
      <point x="664" y="140"/>
      <point x="690" y="275"/>
    </contour>
    <contour>
      <point x="15" y="0" type="line"/>
      <point x="15" y="126" type="line"/>
      <point x="79" y="160" type="line"/>
      <point x="81" y="724" type="line"/>
      <point x="79" y="1328" type="line"/>
      <point x="16" y="1362" type="line"/>
      <point x="16" y="1500" type="line"/>
      <point x="1076" y="1500" type="line"/>
      <point x="1076" y="1139" type="line"/>
      <point x="912" y="1139" type="line"/>
      <point x="877" y="1332" type="line"/>
      <point x="603" y="1332" type="line"/>
      <point x="567" y="1308" type="line"/>
      <point x="565" y="920" type="line"/>
      <point x="570" y="910" type="line"/>
      <point x="758" y="910" type="line" smooth="yes"/>
      <point x="978" y="910"/>
      <point x="1183" y="678"/>
      <point x="1183" y="453" type="qcurve" smooth="yes"/>
      <point x="1183" y="266"/>
      <point x="961" y="0"/>
      <point x="760" y="0" type="qcurve" smooth="yes"/>
    </contour>
  </outline>
</glyph>
<glyph name="De" format="2">
  <advance width="1222"/>
  <unicode hex="0414"/>
  <outline>
    <contour>
      <point x="1065" y="-338" type="line"/>
      <point x="966" y="0" type="line"/>
      <point x="256" y="0" type="line"/>
      <point x="157" y="-338" type="line"/>
      <point x="0" y="-338" type="line"/>
      <point x="10" y="168" type="line"/>
      <point x="1212" y="168" type="line"/>
      <point x="1222" y="-338" type="line"/>
    </contour>
    <contour>
      <point x="205" y="945" type="qcurve" smooth="yes"/>
      <point x="204" y="1328" type="line"/>
      <point x="137" y="1362" type="line"/>
      <point x="137" y="1500" type="line"/>
      <point x="1164" y="1500" type="line"/>
      <point x="1164" y="1362" type="line"/>
      <point x="1101" y="1328" type="line"/>
      <point x="1099" y="754" type="line"/>
      <point x="1101" y="0" type="line"/>
      <point x="610" y="0" type="line"/>
      <point x="612" y="754" type="line"/>
      <point x="610" y="1308" type="line"/>
      <point x="577" y="1332" type="line"/>
      <point x="440" y="1332" type="line"/>
      <point x="413" y="1308" type="line"/>
      <point x="414" y="935" type="line" smooth="yes"/>
      <point x="414" y="564"/>
      <point x="345" y="187"/>
      <point x="307" y="78" type="qcurve"/>
      <point x="70" y="78" type="line"/>
      <point x="138" y="214"/>
      <point x="206" y="566"/>
    </contour>
  </outline>
</glyph>
<glyph name="Ze" format="2">
  <advance width="1067"/>
  <unicode hex="0417"/>
  <outline>
    <contour>
      <point x="410" y="144" type="qcurve" smooth="yes"/>
      <point x="490" y="144"/>
      <point x="558" y="303"/>
      <point x="558" y="447" type="qcurve" smooth="yes"/>
      <point x="558" y="618"/>
      <point x="472" y="739"/>
      <point x="378" y="734" type="qcurve" smooth="yes"/>
      <point x="268" y="728" type="line"/>
      <point x="268" y="874" type="line"/>
      <point x="357" y="870" type="line" smooth="yes"/>
      <point x="460" y="865"/>
      <point x="527" y="1000"/>
      <point x="527" y="1127" type="qcurve" smooth="yes"/>
      <point x="527" y="1258"/>
      <point x="485" y="1360"/>
      <point x="435" y="1360" type="qcurve" smooth="yes"/>
      <point x="372" y="1360"/>
      <point x="319" y="1255"/>
      <point x="296" y="1170" type="qcurve" smooth="yes"/>
      <point x="274" y="1053" type="line"/>
      <point x="106" y="1053" type="line"/>
      <point x="106" y="1499" type="line"/>
      <point x="226" y="1499" type="line"/>
      <point x="272" y="1410" type="line"/>
      <point x="310" y="1473"/>
      <point x="461" y="1524"/>
      <point x="573" y="1524" type="qcurve" smooth="yes"/>
      <point x="778" y="1524"/>
      <point x="999" y="1330"/>
      <point x="999" y="1171" type="qcurve" smooth="yes"/>
      <point x="999" y="1027"/>
      <point x="864" y="851"/>
      <point x="715" y="815" type="qcurve"/>
      <point x="715" y="808" type="line"/>
      <point x="876" y="775"/>
      <point x="1049" y="607"/>
      <point x="1049" y="424" type="qcurve" smooth="yes"/>
      <point x="1049" y="224"/>
      <point x="792" y="-20"/>
      <point x="523" y="-20" type="qcurve" smooth="yes"/>
      <point x="408" y="-20"/>
      <point x="270" y="49"/>
      <point x="242" y="94" type="qcurve"/>
      <point x="196" y="5" type="line"/>
      <point x="76" y="5" type="line"/>
      <point x="76" y="451" type="line"/>
      <point x="244" y="451" type="line"/>
      <point x="266" y="334" type="line" smooth="yes"/>
      <point x="282" y="247"/>
      <point x="345" y="144"/>
    </contour>
  </outline>
</glyph>
<glyph name="El" format="2">
  <advance width="1178"/>
  <unicode hex="041B"/>
  <outline>
    <contour>
      <point x="217" y="821" type="qcurve" smooth="yes"/>
      <point x="216" y="1328" type="line"/>
      <point x="149" y="1362" type="line"/>
      <point x="149" y="1500" type="line"/>
      <point x="1163" y="1500" type="line"/>
      <point x="1163" y="1362" type="line"/>
      <point x="1100" y="1328" type="line"/>
      <point x="1098" y="754" type="line"/>
      <point x="1100" y="161" type="line"/>
      <point x="1163" y="126" type="line"/>
      <point x="1163" y="0" type="line"/>
      <point x="546" y="0" type="line"/>
      <point x="546" y="126" type="line"/>
      <point x="609" y="161" type="line"/>
      <point x="611" y="754" type="line"/>
      <point x="609" y="1308" type="line"/>
      <point x="576" y="1332" type="line"/>
      <point x="452" y="1332" type="line"/>
      <point x="425" y="1308" type="line"/>
      <point x="426" y="798" type="line" smooth="yes"/>
      <point x="427" y="412"/>
      <point x="340" y="-25"/>
      <point x="133" y="-25" type="qcurve" smooth="yes"/>
      <point x="90" y="-25"/>
      <point x="39" y="-13"/>
      <point x="10" y="0" type="qcurve"/>
      <point x="10" y="368" type="line"/>
      <point x="34" y="360"/>
      <point x="59" y="355"/>
      <point x="84" y="355" type="qcurve" smooth="yes"/>
      <point x="157" y="355"/>
      <point x="217" y="586"/>
    </contour>
  </outline>
</glyph>
<glyph name="Ucyr" format="2">
  <advance width="1031"/>
  <unicode hex="0423"/>
  <anchor x="515.5" y="0" name="bottom"/>
  <anchor x="515.5" y="1500" name="top"/>
  <outline>
    <contour>
      <point x="638" y="732" type="qcurve" smooth="yes"/>
      <point x="722" y="1024" type="line"/>
      <point x="807" y="1333" type="line"/>
      <point x="719" y="1363" type="line"/>
      <point x="719" y="1500" type="line"/>
      <point x="1055" y="1500" type="line"/>
      <point x="1055" y="1363" type="line"/>
      <point x="966" y="1332" type="line"/>
      <point x="854" y="985" type="line"/>
      <point x="764" y="692" type="line" smooth="yes"/>
      <point x="652" y="328"/>
      <point x="439" y="-25"/>
      <point x="265" y="-25" type="qcurve" smooth="yes"/>
      <point x="214" y="-25"/>
      <point x="153" y="-12"/>
      <point x="130" y="0" type="qcurve"/>
      <point x="130" y="381" type="line"/>
      <point x="161" y="371"/>
      <point x="235" y="355"/>
      <point x="300" y="355" type="qcurve" smooth="yes"/>
      <point x="436" y="355"/>
      <point x="587" y="554"/>
    </contour>
    <contour>
      <point x="399" y="270" type="line"/>
      <point x="192" y="882" type="line"/>
      <point x="37" y="1331" type="line"/>
      <point x="-20" y="1363" type="line"/>
      <point x="-20" y="1500" type="line"/>
      <point x="584" y="1500" type="line"/>
      <point x="584" y="1363" type="line"/>
      <point x="511" y="1340" type="line"/>
      <point x="597" y="1029" type="line"/>
      <point x="708" y="645" type="line"/>
    </contour>
  </outline>
</glyph>
<glyph name="Ef" format="2">
  <advance width="1819"/>
  <unicode hex="0424"/>
  <outline>
    <contour>
      <point x="1804" y="758" type="qcurve" smooth="yes"/>
      <point x="1804" y="512"/>
      <point x="1502" y="240"/>
      <point x="1122" y="232" type="qcurve"/>
      <point x="1122" y="381" type="line"/>
      <point x="1229" y="383"/>
      <point x="1286" y="560"/>
      <point x="1286" y="751" type="qcurve" smooth="yes"/>
      <point x="1286" y="916"/>
      <point x="1217" y="1125"/>
      <point x="1122" y="1125" type="qcurve"/>
      <point x="1122" y="1266" type="line"/>
      <point x="1478" y="1266"/>
      <point x="1804" y="999"/>
    </contour>
    <contour>
      <point x="15" y="740" type="qcurve" smooth="yes"/>
      <point x="15" y="986"/>
      <point x="317" y="1258"/>
      <point x="697" y="1266" type="qcurve"/>
      <point x="697" y="1117" type="line"/>
      <point x="590" y="1115"/>
      <point x="533" y="938"/>
      <point x="533" y="747" type="qcurve" smooth="yes"/>
      <point x="533" y="582"/>
      <point x="602" y="373"/>
      <point x="697" y="373" type="qcurve"/>
      <point x="697" y="232" type="line"/>
      <point x="341" y="232"/>
      <point x="15" y="499"/>
    </contour>
    <contour>
      <point x="591" y="107" type="line"/>
      <point x="669" y="142" type="line"/>
      <point x="669" y="294" type="line"/>
      <point x="679" y="308" type="line"/>
      <point x="681" y="755" type="line"/>
      <point x="1138" y="755" type="line"/>
      <point x="1139" y="313" type="line"/>
      <point x="1149" y="298" type="line"/>
      <point x="1150" y="141" type="line"/>
      <point x="1228" y="107" type="line"/>
      <point x="1228" y="-19" type="line"/>
      <point x="591" y="-19" type="line"/>
    </contour>
    <contour>
      <point x="591" y="1383" type="line"/>
      <point x="591" y="1521" type="line"/>
      <point x="1228" y="1521" type="line"/>
      <point x="1228" y="1383" type="line"/>
      <point x="1150" y="1349" type="line"/>
      <point x="1149" y="1210" type="line"/>
      <point x="1139" y="1195" type="line"/>
      <point x="1138" y="755" type="line"/>
      <point x="681" y="755" type="line"/>
      <point x="680" y="1191" type="line"/>
      <point x="670" y="1206" type="line"/>
      <point x="669" y="1349" type="line"/>
    </contour>
  </outline>
</glyph>
<glyph name="Tse" format="2">
  <advance width="1332"/>
  <unicode hex="0426"/>
  <outline>
    <contour>
      <point x="721" y="746" type="line"/>
      <point x="719" y="1339" type="line"/>
      <point x="666" y="1374" type="line"/>
      <point x="666" y="1500" type="line"/>
      <point x="1273" y="1500" type="line"/>
      <point x="1273" y="1374" type="line"/>
      <point x="1210" y="1339" type="line"/>
      <point x="1208" y="746" type="line"/>
      <point x="1210" y="168" type="line"/>
      <point x="1322" y="168" type="line"/>
      <point x="1332" y="-338" type="line"/>
      <point x="1175" y="-338" type="line"/>
      <point x="1076" y="0" type="line"/>
      <point x="15" y="0" type="line"/>
      <point x="15" y="138" type="line"/>
      <point x="78" y="172" type="line"/>
      <point x="80" y="746" type="line"/>
      <point x="78" y="1339" type="line"/>
      <point x="15" y="1374" type="line"/>
      <point x="15" y="1500" type="line"/>
      <point x="616" y="1500" type="line"/>
      <point x="616" y="1374" type="line"/>
      <point x="569" y="1339" type="line"/>
      <point x="567" y="746" type="line"/>
      <point x="569" y="192" type="line"/>
      <point x="596" y="168" type="line"/>
      <point x="686" y="168" type="line"/>
      <point x="719" y="192" type="line"/>
    </contour>
  </outline>
</glyph>
<glyph name="Che" format="2">
  <advance width="1273"/>
  <unicode hex="0427"/>
  <outline>
    <contour>
      <point x="631" y="0" type="line"/>
      <point x="631" y="126" type="line"/>
      <point x="704" y="161" type="line"/>
      <point x="706" y="754" type="line"/>
      <point x="704" y="1328" type="line"/>
      <point x="651" y="1362" type="line"/>
      <point x="651" y="1500" type="line"/>
      <point x="1258" y="1500" type="line"/>
      <point x="1258" y="1362" type="line"/>
      <point x="1195" y="1328" type="line"/>
      <point x="1193" y="754" type="line"/>
      <point x="1195" y="161" type="line"/>
      <point x="1258" y="126" type="line"/>
      <point x="1258" y="0" type="line"/>
    </contour>
    <contour>
      <point x="10" y="1362" type="line"/>
      <point x="10" y="1500" type="line"/>
      <point x="611" y="1500" type="line"/>
      <point x="611" y="1362" type="line"/>
      <point x="564" y="1328" type="line"/>
      <point x="559" y="871" type="line" smooth="yes"/>
      <point x="558" y="818"/>
      <point x="595" y="775"/>
      <point x="636" y="775" type="qcurve" smooth="yes"/>
      <point x="679" y="775"/>
      <point x="827" y="807"/>
      <point x="912" y="837" type="qcurve"/>
      <point x="912" y="684" type="line"/>
      <point x="827" y="654"/>
      <point x="641" y="609"/>
      <point x="476" y="609" type="qcurve" smooth="yes"/>
      <point x="276" y="609"/>
      <point x="76" y="785"/>
      <point x="75" y="934" type="qcurve" smooth="yes"/>
      <point x="73" y="1328" type="line"/>
    </contour>
  </outline>
</glyph>
<glyph name="Ecyr" format="2">
  <advance width="1129"/>
  <unicode hex="042D"/>
  <anchor x="500" y="0" name="bottom"/>
  <anchor x="505" y="1500" name="top"/>
  <outline>
    <contour>
      <point x="783" y="698" type="line"/>
      <point x="419" y="688" type="line"/>
      <point x="392" y="540" type="line"/>
      <point x="251" y="540" type="line"/>
      <point x="251" y="985" type="line"/>
      <point x="392" y="985" type="line"/>
      <point x="419" y="844" type="line"/>
      <point x="783" y="834" type="line"/>
    </contour>
    <contour>
      <point x="410" y="144" type="qcurve" smooth="yes"/>
      <point x="476" y="144"/>
      <point x="540" y="315"/>
      <point x="540" y="766" type="qcurve" smooth="yes"/>
      <point x="540" y="1217"/>
      <point x="479" y="1360"/>
      <point x="415" y="1360" type="qcurve" smooth="yes"/>
      <point x="352" y="1360"/>
      <point x="292" y="1257"/>
      <point x="276" y="1170" type="qcurve" smooth="yes"/>
      <point x="254" y="1053" type="line"/>
      <point x="86" y="1053" type="line"/>
      <point x="86" y="1499" type="line"/>
      <point x="206" y="1499" type="line"/>
      <point x="252" y="1410" type="line"/>
      <point x="280" y="1455"/>
      <point x="401" y="1524"/>
      <point x="504" y="1524" type="qcurve" smooth="yes"/>
      <point x="767" y="1524"/>
      <point x="1080" y="1167"/>
      <point x="1080" y="782" type="qcurve" smooth="yes"/>
      <point x="1080" y="396"/>
      <point x="764" y="-20"/>
      <point x="499" y="-20" type="qcurve" smooth="yes"/>
      <point x="394" y="-20"/>
      <point x="270" y="49"/>
      <point x="242" y="94" type="qcurve"/>
      <point x="196" y="5" type="line"/>
      <point x="76" y="5" type="line"/>
      <point x="76" y="451" type="line"/>
      <point x="244" y="451" type="line"/>
      <point x="266" y="334" type="line" smooth="yes"/>
      <point x="282" y="247"/>
      <point x="345" y="144"/>
    </contour>
  </outline>
</glyph>
<glyph name="Ya" format="2">
  <advance width="1294"/>
  <unicode hex="042F"/>
  <anchor x="534.0" y="0" name="bottom"/>
  <anchor x="705.0" y="1500" name="top"/>
  <outline>
    <contour>
      <point x="1279" y="0" type="line"/>
      <point x="1279" y="125" type="line"/>
      <point x="1216" y="159" type="line"/>
      <point x="1214" y="734" type="line"/>
      <point x="1216" y="1328" type="line"/>
      <point x="1279" y="1362" type="line"/>
      <point x="1279" y="1500" type="line"/>
      <point x="560" y="1500" type="line" smooth="yes"/>
      <point x="322" y="1500"/>
      <point x="94" y="1268"/>
      <point x="94" y="1093" type="qcurve" smooth="yes"/>
      <point x="94" y="903"/>
      <point x="314" y="699"/>
      <point x="591" y="699" type="qcurve"/>
      <point x="616" y="681" type="line"/>
      <point x="963" y="690" type="line"/>
      <point x="963" y="819" type="line"/>
      <point x="694" y="819" type="line" smooth="yes"/>
      <point x="628" y="819"/>
      <point x="593" y="915"/>
      <point x="593" y="1094" type="qcurve" smooth="yes"/>
      <point x="593" y="1273"/>
      <point x="632" y="1351"/>
      <point x="683" y="1351" type="qcurve" smooth="yes"/>
      <point x="713" y="1351" type="line"/>
      <point x="726" y="1335" type="line"/>
      <point x="728" y="710" type="line"/>
      <point x="726" y="159" type="line"/>
      <point x="653" y="126" type="line"/>
      <point x="653" y="0" type="line"/>
    </contour>
    <contour>
      <point x="720" y="741" type="line"/>
      <point x="268" y="802" type="line"/>
      <point x="128" y="371" type="line" smooth="yes"/>
      <point x="86" y="242"/>
      <point x="52" y="135"/>
      <point x="-10" y="130" type="qcurve"/>
      <point x="-10" y="0" type="line"/>
      <point x="475" y="0" type="line"/>
      <point x="526" y="56" type="line"/>
    </contour>
  </outline>
</glyph>
<glyph name="de" format="2">
  <advance width="1048"/>
  <unicode hex="0434"/>
  <outline>
    <contour>
      <point x="151" y="895" type="line"/>
      <point x="70" y="930" type="line"/>
      <point x="70" y="1050" type="line"/>
      <point x="1006" y="1050" type="line"/>
      <point x="1006" y="930" type="line"/>
      <point x="956" y="895" type="line"/>
      <point x="954" y="525" type="line"/>
      <point x="956" y="0" type="line"/>
      <point x="485" y="0" type="line"/>
      <point x="487" y="525" type="line"/>
      <point x="485" y="895" type="line"/>
      <point x="341" y="895" type="line"/>
      <point x="336" y="552" type="line" smooth="yes"/>
      <point x="333" y="382"/>
      <point x="300" y="162"/>
      <point x="264" y="66" type="qcurve"/>
      <point x="60" y="66" type="line"/>
      <point x="104" y="178"/>
      <point x="144" y="411"/>
      <point x="146" y="582" type="qcurve" smooth="yes"/>
    </contour>
    <contour>
      <point x="916" y="-318" type="line"/>
      <point x="800" y="0" type="line"/>
      <point x="248" y="0" type="line"/>
      <point x="132" y="-318" type="line"/>
      <point x="-10" y="-318" type="line"/>
      <point x="0" y="155" type="line"/>
      <point x="1048" y="155" type="line"/>
      <point x="1058" y="-318" type="line"/>
    </contour>
  </outline>
</glyph>
<glyph name="zhe" format="2">
  <advance width="1804"/>
  <unicode hex="0436"/>
  <anchor x="902.0" y="0" name="bottom"/>
  <anchor x="902.0" y="1050" name="top"/>
  <outline>
    <contour>
      <point x="1143" y="490" type="line"/>
      <point x="1477" y="806" type="line"/>
      <point x="1726" y="155" type="line"/>
      <point x="1801" y="120" type="line"/>
      <point x="1801" y="0" type="line"/>
      <point x="1275" y="0" type="line"/>
      <point x="1243" y="122" type="line"/>
      <point x="1249" y="159" type="line"/>
    </contour>
    <contour>
      <point x="898" y="611" type="line"/>
      <point x="1156" y="609" type="line"/>
      <point x="1418" y="880" type="line"/>
      <point x="1290" y="910" type="line"/>
      <point x="1290" y="1050" type="line"/>
      <point x="1747" y="1050" type="line"/>
      <point x="1747" y="910" type="line"/>
      <point x="1605" y="875" type="line"/>
      <point x="1188" y="452" type="line"/>
      <point x="898" y="451" type="line"/>
    </contour>
    <contour>
      <point x="652" y="490" type="line"/>
      <point x="546" y="159" type="line"/>
      <point x="552" y="122" type="line"/>
      <point x="520" y="0" type="line"/>
      <point x="3" y="0" type="line"/>
      <point x="3" y="120" type="line"/>
      <point x="78" y="155" type="line"/>
      <point x="327" y="806" type="line"/>
    </contour>
    <contour>
      <point x="898" y="611" type="line"/>
      <point x="898" y="451" type="line"/>
      <point x="597" y="452" type="line"/>
      <point x="180" y="875" type="line"/>
      <point x="48" y="910" type="line"/>
      <point x="48" y="1050" type="line"/>
      <point x="505" y="1050" type="line"/>
      <point x="505" y="910" type="line"/>
      <point x="377" y="880" type="line"/>
      <point x="639" y="609" type="line"/>
    </contour>
    <contour>
      <point x="1127" y="525" type="line"/>
      <point x="1129" y="155" type="line"/>
      <point x="1187" y="120" type="line"/>
      <point x="1187" y="0" type="line"/>
      <point x="608" y="0" type="line"/>
      <point x="608" y="120" type="line"/>
      <point x="666" y="155" type="line"/>
      <point x="668" y="525" type="line"/>
      <point x="666" y="895" type="line"/>
      <point x="608" y="930" type="line"/>
      <point x="608" y="1050" type="line"/>
      <point x="1187" y="1050" type="line"/>
      <point x="1187" y="930" type="line"/>
      <point x="1129" y="895" type="line"/>
    </contour>
  </outline>
</glyph>
<glyph name="el" format="2">
  <advance width="1048"/>
  <unicode hex="043B"/>
  <outline>
    <contour>
      <point x="181" y="895" type="line"/>
      <point x="100" y="930" type="line"/>
      <point x="100" y="1050" type="line"/>
      <point x="1026" y="1050" type="line"/>
      <point x="1026" y="930" type="line"/>
      <point x="976" y="895" type="line"/>
      <point x="974" y="525" type="line"/>
      <point x="976" y="155" type="line"/>
      <point x="1026" y="120" type="line"/>
      <point x="1026" y="0" type="line"/>
      <point x="450" y="0" type="line"/>
      <point x="450" y="120" type="line"/>
      <point x="505" y="155" type="line"/>
      <point x="507" y="525" type="line"/>
      <point x="505" y="895" type="line"/>
      <point x="371" y="895" type="line"/>
      <point x="365" y="493" type="line" smooth="yes"/>
      <point x="361" y="219"/>
      <point x="252" y="-18"/>
      <point x="108" y="-18" type="qcurve" smooth="yes"/>
      <point x="71" y="-18"/>
      <point x="20" y="-8"/>
      <point x="5" y="0" type="qcurve"/>
      <point x="5" y="317" type="line"/>
      <point x="24" y="311"/>
      <point x="48" y="305"/>
      <point x="68" y="305" type="qcurve" smooth="yes"/>
      <point x="132" y="305"/>
      <point x="174" y="417"/>
      <point x="176" y="539" type="qcurve" smooth="yes"/>
    </contour>
  </outline>
</glyph>
<glyph name="em" format="2">
  <advance width="1341"/>
  <unicode hex="043C"/>
  <outline>
    <contour>
      <point x="584" y="1050" type="line"/>
      <point x="608" y="825" type="line"/>
      <point x="639" y="526" type="line"/>
      <point x="669" y="781" type="line"/>
      <point x="700" y="1050" type="line"/>
      <point x="1319" y="1050" type="line"/>
      <point x="1319" y="930" type="line"/>
      <point x="1269" y="895" type="line"/>
      <point x="1267" y="525" type="line"/>
      <point x="1269" y="155" type="line"/>
      <point x="1319" y="120" type="line"/>
      <point x="1319" y="0" type="line"/>
      <point x="740" y="0" type="line"/>
      <point x="740" y="120" type="line"/>
      <point x="798" y="155" type="line"/>
      <point x="800" y="525" type="line"/>
      <point x="798" y="898" type="line"/>
      <point x="747" y="500" type="line"/>
      <point x="684" y="0" type="line"/>
      <point x="330" y="0" type="line"/>
      <point x="277" y="444" type="line"/>
      <point x="224" y="891" type="line"/>
      <point x="223" y="526" type="line"/>
      <point x="226" y="155" type="line"/>
      <point x="274" y="120" type="line"/>
      <point x="274" y="0" type="line"/>
      <point x="22" y="0" type="line"/>
      <point x="22" y="120" type="line"/>
      <point x="82" y="155" type="line"/>
      <point x="87" y="525" type="line"/>
      <point x="82" y="895" type="line"/>
      <point x="22" y="930" type="line"/>
      <point x="22" y="1050" type="line"/>
    </contour>
  </outline>
</glyph>
<glyph name="pe" format="2">
  <advance width="1236"/>
  <unicode hex="043F"/>
  <outline>
    <contour>
      <point x="74" y="525" type="line"/>
      <point x="72" y="895" type="line"/>
      <point x="22" y="930" type="line"/>
      <point x="22" y="1050" type="line"/>
      <point x="1214" y="1050" type="line"/>
      <point x="1214" y="930" type="line"/>
      <point x="1164" y="895" type="line"/>
      <point x="1162" y="525" type="line"/>
      <point x="1164" y="155" type="line"/>
      <point x="1214" y="120" type="line"/>
      <point x="1214" y="0" type="line"/>
      <point x="638" y="0" type="line"/>
      <point x="638" y="120" type="line"/>
      <point x="693" y="155" type="line"/>
      <point x="695" y="525" type="line"/>
      <point x="693" y="895" type="line"/>
      <point x="543" y="895" type="line"/>
      <point x="541" y="525" type="line"/>
      <point x="543" y="155" type="line"/>
      <point x="598" y="120" type="line"/>
      <point x="598" y="0" type="line"/>
      <point x="22" y="0" type="line"/>
      <point x="22" y="120" type="line"/>
      <point x="72" y="155" type="line"/>
    </contour>
  </outline>
</glyph>
<glyph name="ef" format="2">
  <advance width="1802"/>
  <unicode hex="0444"/>
  <outline>
    <contour>
      <point x="595" y="-480" type="line"/>
      <point x="595" y="-360" type="line"/>
      <point x="662" y="-325" type="line"/>
      <point x="663" y="50" type="line"/>
      <point x="673" y="90" type="line"/>
      <point x="675" y="543" type="line"/>
      <point x="673" y="977" type="line"/>
      <point x="663" y="1016" type="line"/>
      <point x="662" y="1330" type="line"/>
      <point x="568" y="1364" type="line"/>
      <point x="568" y="1500" type="line"/>
      <point x="1050" y="1554" type="line"/>
      <point x="1082" y="1554" type="line"/>
      <point x="1139" y="1507" type="line"/>
      <point x="1138" y="1023" type="line"/>
      <point x="1128" y="977" type="line"/>
      <point x="1127" y="543" type="line"/>
      <point x="1128" y="96" type="line"/>
      <point x="1138" y="46" type="line"/>
      <point x="1139" y="-325" type="line"/>
      <point x="1205" y="-360" type="line"/>
      <point x="1205" y="-480" type="line"/>
    </contour>
    <contour>
      <point x="36" y="525" type="qcurve" smooth="yes"/>
      <point x="36" y="779"/>
      <point x="355" y="1063"/>
      <point x="703" y="1073" type="qcurve"/>
      <point x="703" y="922" type="line"/>
      <point x="601" y="912"/>
      <point x="531" y="744"/>
      <point x="531" y="541" type="qcurve" smooth="yes"/>
      <point x="531" y="299"/>
      <point x="591" y="154"/>
      <point x="703" y="133" type="qcurve"/>
      <point x="703" y="-23" type="line"/>
      <point x="332" y="-6"/>
      <point x="36" y="286"/>
    </contour>
    <contour>
      <point x="1766" y="525" type="qcurve" smooth="yes"/>
      <point x="1766" y="271"/>
      <point x="1447" y="-13"/>
      <point x="1099" y="-23" type="qcurve"/>
      <point x="1099" y="128" type="line"/>
      <point x="1201" y="138"/>
      <point x="1271" y="306"/>
      <point x="1271" y="509" type="qcurve" smooth="yes"/>
      <point x="1271" y="751"/>
      <point x="1211" y="896"/>
      <point x="1099" y="917" type="qcurve"/>
      <point x="1099" y="1073" type="line"/>
      <point x="1470" y="1056"/>
      <point x="1766" y="764"/>
    </contour>
  </outline>
</glyph>
<glyph name="tse" format="2">
  <advance width="1256"/>
  <unicode hex="0446"/>
  <outline>
    <contour>
      <point x="74" y="525" type="line"/>
      <point x="72" y="895" type="line"/>
      <point x="22" y="930" type="line"/>
      <point x="22" y="1050" type="line"/>
      <point x="598" y="1050" type="line"/>
      <point x="598" y="930" type="line"/>
      <point x="543" y="895" type="line"/>
      <point x="541" y="525" type="line"/>
      <point x="543" y="155" type="line"/>
      <point x="693" y="155" type="line"/>
      <point x="695" y="525" type="line"/>
      <point x="693" y="895" type="line"/>
      <point x="638" y="930" type="line"/>
      <point x="638" y="1050" type="line"/>
      <point x="1214" y="1050" type="line"/>
      <point x="1214" y="930" type="line"/>
      <point x="1164" y="895" type="line"/>
      <point x="1162" y="525" type="line"/>
      <point x="1164" y="155" type="line"/>
      <point x="1256" y="155" type="line"/>
      <point x="1266" y="-318" type="line"/>
      <point x="1124" y="-318" type="line"/>
      <point x="1008" y="0" type="line"/>
      <point x="22" y="0" type="line"/>
      <point x="22" y="120" type="line"/>
      <point x="72" y="155" type="line"/>
    </contour>
  </outline>
</glyph>
<glyph name="ecyr" format="2">
  <advance width="1029"/>
  <unicode hex="044D"/>
  <anchor x="473" y="0" name="bottom"/>
  <anchor x="492" y="1050" name="top"/>
  <outline>
    <contour>
      <point x="241" y="48" type="qcurve"/>
      <point x="207" y="-7" type="line"/>
      <point x="80" y="-7" type="line"/>
      <point x="75" y="390" type="line"/>
      <point x="232" y="390" type="line"/>
      <point x="243" y="296" type="line" smooth="yes"/>
      <point x="251" y="228"/>
      <point x="292" y="146"/>
      <point x="347" y="146" type="qcurve" smooth="yes"/>
      <point x="398" y="146"/>
      <point x="461" y="254"/>
      <point x="461" y="531" type="qcurve" smooth="yes"/>
      <point x="461" y="802"/>
      <point x="398" y="907"/>
      <point x="347" y="907" type="qcurve" smooth="yes"/>
      <point x="292" y="907"/>
      <point x="251" y="825"/>
      <point x="243" y="757" type="qcurve" smooth="yes"/>
      <point x="232" y="663" type="line"/>
      <point x="75" y="663" type="line"/>
      <point x="80" y="1060" type="line"/>
      <point x="207" y="1060" type="line"/>
      <point x="241" y="1005" type="line"/>
      <point x="269" y="1032"/>
      <point x="376" y="1075"/>
      <point x="491" y="1075" type="qcurve" smooth="yes"/>
      <point x="720" y="1075"/>
      <point x="993" y="798"/>
      <point x="993" y="553" type="qcurve" smooth="yes"/>
      <point x="993" y="282"/>
      <point x="710" y="-22"/>
      <point x="473" y="-22" type="qcurve" smooth="yes"/>
      <point x="376" y="-22"/>
      <point x="269" y="21"/>
    </contour>
    <contour>
      <point x="630" y="610" type="line"/>
      <point x="630" y="454" type="line"/>
      <point x="249" y="452" type="line"/>
      <point x="249" y="613" type="line"/>
    </contour>
  </outline>
</glyph>
<glyph name="yu" format="2">
  <advance width="1770"/>
  <unicode hex="044E"/>
  <anchor x="786.0" y="0" name="bottom"/>
  <anchor x="786.0" y="1050" name="top"/>
  <outline>
    <contour>
      <point x="340" y="612" type="line"/>
      <point x="860" y="612" type="line"/>
      <point x="860" y="451" type="line"/>
      <point x="340" y="451" type="line"/>
    </contour>
    <contour>
      <point x="75" y="525" type="line"/>
      <point x="73" y="895" type="line"/>
      <point x="23" y="930" type="line"/>
      <point x="23" y="1050" type="line"/>
      <point x="602" y="1050" type="line"/>
      <point x="602" y="930" type="line"/>
      <point x="544" y="895" type="line"/>
      <point x="542" y="525" type="line"/>
      <point x="544" y="155" type="line"/>
      <point x="602" y="120" type="line"/>
      <point x="602" y="0" type="line"/>
      <point x="23" y="0" type="line"/>
      <point x="23" y="120" type="line"/>
      <point x="73" y="155" type="line"/>
    </contour>
    <contour>
      <point x="611" y="525" type="qcurve" smooth="yes"/>
      <point x="611" y="783"/>
      <point x="921" y="1073"/>
      <point x="1170" y="1073" type="qcurve" smooth="yes"/>
      <point x="1401" y="1073"/>
      <point x="1734" y="804"/>
      <point x="1734" y="531" type="qcurve" smooth="yes"/>
      <point x="1734" y="274"/>
      <point x="1405" y="-22"/>
      <point x="1174" y="-22" type="qcurve" smooth="yes"/>
      <point x="937" y="-22"/>
      <point x="611" y="250"/>
    </contour>
    <contour>
      <point x="1110" y="523" type="qcurve" smooth="yes"/>
      <point x="1110" y="242"/>
      <point x="1120" y="118"/>
      <point x="1174" y="118" type="qcurve" smooth="yes"/>
      <point x="1225" y="118"/>
      <point x="1237" y="245"/>
      <point x="1237" y="526" type="qcurve" smooth="yes"/>
      <point x="1237" y="821"/>
      <point x="1226" y="917"/>
      <point x="1172" y="917" type="qcurve" smooth="yes"/>
      <point x="1118" y="917"/>
      <point x="1110" y="818"/>
    </contour>
  </outline>
</glyph>
<glyph name="dje" format="2">
  <advance width="1237"/>
  <unicode hex="0452"/>
  <outline>
    <contour>
      <point x="314" y="1120" type="line"/>
      <point x="-76" y="1120" type="line"/>
      <point x="-63" y="1234" type="line"/>
      <point x="323" y="1234" type="line"/>
      <point x="694" y="1234" type="line"/>
      <point x="694" y="1120" type="line"/>
    </contour>
    <contour>
      <point x="556" y="-496" type="qcurve"/>
      <point x="556" y="-318" type="line"/>
      <point x="635" y="-317"/>
      <point x="702" y="-209"/>
      <point x="702" y="-107" type="qcurve" smooth="yes"/>
      <point x="704" y="545" type="line"/>
      <point x="704" y="685" type="line" smooth="yes"/>
      <point x="704" y="762"/>
      <point x="659" y="808"/>
      <point x="628" y="808" type="qcurve" smooth="yes"/>
      <point x="604" y="808"/>
      <point x="553" y="768"/>
      <point x="544" y="736" type="qcurve"/>
      <point x="537" y="545" type="line"/>
      <point x="539" y="155" type="line"/>
      <point x="597" y="120" type="line"/>
      <point x="597" y="0" type="line"/>
      <point x="20" y="0" type="line"/>
      <point x="20" y="120" type="line"/>
      <point x="70" y="155" type="line"/>
      <point x="72" y="562" type="line"/>
      <point x="70" y="1332" type="line"/>
      <point x="-29" y="1366" type="line"/>
      <point x="-29" y="1500" type="line"/>
      <point x="433" y="1554" type="line"/>
      <point x="475" y="1554" type="line"/>
      <point x="533" y="1507" type="line"/>
      <point x="531" y="915" type="line"/>
      <point x="572" y="966"/>
      <point x="753" y="1067"/>
      <point x="898" y="1067" type="qcurve" smooth="yes"/>
      <point x="1027" y="1067"/>
      <point x="1172" y="915"/>
      <point x="1172" y="794" type="qcurve" smooth="yes"/>
      <point x="1172" y="748"/>
      <point x="1170" y="589"/>
      <point x="1172" y="552" type="qcurve"/>
      <point x="1175" y="-119" type="line" smooth="yes"/>
      <point x="1176" y="-298"/>
      <point x="929" y="-512"/>
    </contour>
  </outline>
</glyph>
<glyph name="ieukran" format="2">
  <advance width="1008"/>
  <unicode hex="0454"/>
  <outline>
    <contour>
      <point x="303" y="609" type="line"/>
      <point x="786" y="612" type="line"/>
      <point x="786" y="451" type="line"/>
      <point x="303" y="453" type="line"/>
    </contour>
    <contour>
      <point x="36" y="508" type="qcurve" smooth="yes"/>
      <point x="36" y="792"/>
      <point x="363" y="1074"/>
      <point x="556" y="1074" type="qcurve" smooth="yes"/>
      <point x="653" y="1074"/>
      <point x="760" y="1031"/>
      <point x="788" y="1004" type="qcurve"/>
      <point x="822" y="1059" type="line"/>
      <point x="949" y="1059" type="line"/>
      <point x="954" y="682" type="line"/>
      <point x="797" y="682" type="line"/>
      <point x="786" y="756" type="line" smooth="yes"/>
      <point x="776" y="824"/>
      <point x="737" y="906"/>
      <point x="682" y="906" type="qcurve" smooth="yes"/>
      <point x="631" y="906"/>
      <point x="568" y="801"/>
      <point x="568" y="530" type="qcurve" smooth="yes"/>
      <point x="568" y="281"/>
      <point x="633" y="167"/>
      <point x="704" y="167" type="qcurve" smooth="yes"/>
      <point x="773" y="167"/>
      <point x="865" y="226"/>
      <point x="906" y="283" type="qcurve"/>
      <point x="1001" y="165" type="line"/>
      <point x="951" y="90"/>
      <point x="721" y="-22"/>
      <point x="555" y="-22" type="qcurve" smooth="yes"/>
      <point x="353" y="-22"/>
      <point x="36" y="234"/>
    </contour>
  </outline>
</glyph>
<glyph name="lje" format="2">
  <advance width="1587"/>
  <unicode hex="0459"/>
  <outline>
    <contour>
      <point x="505" y="895" type="line"/>
      <point x="507" y="525" type="line"/>
      <point x="505" y="155" type="line"/>
      <point x="455" y="120" type="line"/>
      <point x="455" y="0" type="line"/>
      <point x="1189" y="0" type="line" smooth="yes"/>
      <point x="1407" y="0"/>
      <point x="1587" y="175"/>
      <point x="1587" y="336" type="qcurve" smooth="yes"/>
      <point x="1587" y="510"/>
      <point x="1402" y="676"/>
      <point x="1187" y="676" type="qcurve" smooth="yes"/>
      <point x="844" y="676" type="line"/>
      <point x="844" y="526" type="line"/>
      <point x="1031" y="526" type="line" smooth="yes"/>
      <point x="1094" y="526"/>
      <point x="1136" y="431"/>
      <point x="1136" y="340" type="qcurve" smooth="yes"/>
      <point x="1136" y="252"/>
      <point x="1098" y="151"/>
      <point x="1027" y="153" type="qcurve" smooth="yes"/>
      <point x="976" y="155" type="line"/>
      <point x="974" y="525" type="line"/>
      <point x="976" y="895" type="line"/>
      <point x="1026" y="930" type="line"/>
      <point x="1026" y="1050" type="line"/>
      <point x="100" y="1050" type="line"/>
      <point x="100" y="930" type="line"/>
      <point x="181" y="895" type="line"/>
      <point x="176" y="539" type="line" smooth="yes"/>
      <point x="174" y="417"/>
      <point x="132" y="305"/>
      <point x="68" y="305" type="qcurve" smooth="yes"/>
      <point x="48" y="305"/>
      <point x="24" y="311"/>
      <point x="5" y="317" type="qcurve"/>
      <point x="5" y="0" type="line"/>
      <point x="20" y="-8"/>
      <point x="71" y="-18"/>
      <point x="108" y="-18" type="qcurve" smooth="yes"/>
      <point x="252" y="-18"/>
      <point x="361" y="219"/>
      <point x="365" y="493" type="qcurve" smooth="yes"/>
      <point x="371" y="895" type="line"/>
    </contour>
  </outline>
</glyph>
<glyph name="Zhedescender" format="2">
  <advance width="1831"/>
  <unicode hex="0496"/>
  <outline>
    <contour>
      <point x="623" y="0" type="line"/>
      <point x="623" y="126" type="line"/>
      <point x="675" y="161" type="line"/>
      <point x="677" y="754" type="line"/>
      <point x="675" y="1328" type="line"/>
      <point x="589" y="1362" type="line"/>
      <point x="589" y="1500" type="line"/>
      <point x="1232" y="1500" type="line"/>
      <point x="1232" y="1362" type="line"/>
      <point x="1146" y="1328" type="line"/>
      <point x="1144" y="754" type="line"/>
      <point x="1146" y="161" type="line"/>
      <point x="1198" y="126" type="line"/>
      <point x="1198" y="0" type="line"/>
    </contour>
    <contour>
      <point x="911" y="697" type="line"/>
      <point x="911" y="855" type="line"/>
      <point x="1187" y="848" type="line"/>
      <point x="1522" y="1334" type="line"/>
      <point x="1423" y="1363" type="line"/>
      <point x="1423" y="1500" type="line"/>
      <point x="1807" y="1500" type="line"/>
      <point x="1807" y="1363" type="line"/>
      <point x="1693" y="1334" type="line"/>
      <point x="1326" y="813" type="line"/>
      <point x="1216" y="698" type="line"/>
    </contour>
    <contour>
      <point x="1188" y="704" type="line"/>
      <point x="1566" y="1211" type="line"/>
      <point x="1778" y="160" type="line"/>
      <point x="1778" y="0" type="line"/>
      <point x="1249" y="0" type="line"/>
      <point x="1249" y="126" type="line"/>
      <point x="1292" y="160" type="line"/>
    </contour>
    <contour>
      <point x="911" y="697" type="line"/>
      <point x="605" y="698" type="line"/>
      <point x="495" y="813" type="line"/>
      <point x="128" y="1334" type="line"/>
      <point x="14" y="1363" type="line"/>
      <point x="14" y="1500" type="line"/>
      <point x="398" y="1500" type="line"/>
      <point x="398" y="1363" type="line"/>
      <point x="299" y="1334" type="line"/>
      <point x="634" y="848" type="line"/>
      <point x="911" y="855" type="line"/>
    </contour>
    <contour>
      <point x="633" y="704" type="line"/>
      <point x="529" y="160" type="line"/>
      <point x="572" y="126" type="line"/>
      <point x="572" y="0" type="line"/>
      <point x="-9" y="0" type="line"/>
      <point x="-9" y="126" type="line"/>
      <point x="53" y="160" type="line"/>
      <point x="265" y="1211" type="line"/>
    </contour>
    <contour>
      <point x="1543" y="168" type="line"/>
      <point x="1840" y="168" type="line"/>
      <point x="1850" y="-338" type="line"/>
      <point x="1693" y="-338" type="line"/>
      <point x="1594" y="0" type="line"/>
      <point x="1543" y="0" type="line"/>
    </contour>
  </outline>
</glyph>
<glyph name="kadescender" format="2">
  <advance width="1220"/>
  <unicode hex="049B"/>
  <outline>
    <contour>
      <point x="557" y="490" type="line"/>
      <point x="891" y="806" type="line"/>
      <point x="1140" y="155" type="line"/>
      <point x="1140" y="0" type="line"/>
      <point x="689" y="0" type="line"/>
      <point x="657" y="122" type="line"/>
      <point x="663" y="159" type="line"/>
    </contour>
    <contour>
      <point x="339" y="611" type="line"/>
      <point x="570" y="609" type="line"/>
      <point x="832" y="880" type="line"/>
      <point x="704" y="910" type="line"/>
      <point x="704" y="1050" type="line"/>
      <point x="1161" y="1050" type="line"/>
      <point x="1161" y="910" type="line"/>
      <point x="1019" y="875" type="line"/>
      <point x="602" y="452" type="line"/>
      <point x="339" y="451" type="line"/>
    </contour>
    <contour>
      <point x="74" y="525" type="line"/>
      <point x="72" y="895" type="line"/>
      <point x="22" y="930" type="line"/>
      <point x="22" y="1050" type="line"/>
      <point x="601" y="1050" type="line"/>
      <point x="601" y="930" type="line"/>
      <point x="543" y="895" type="line"/>
      <point x="541" y="525" type="line"/>
      <point x="543" y="155" type="line"/>
      <point x="601" y="120" type="line"/>
      <point x="601" y="0" type="line"/>
      <point x="22" y="0" type="line"/>
      <point x="22" y="120" type="line"/>
      <point x="72" y="155" type="line"/>
    </contour>
    <contour>
      <point x="935" y="155" type="line"/>
      <point x="1215" y="155" type="line"/>
      <point x="1225" y="-318" type="line"/>
      <point x="1083" y="-318" type="line"/>
      <point x="967" y="0" type="line"/>
      <point x="935" y="0" type="line"/>
    </contour>
  </outline>
</glyph>
<glyph name="Kaverticalstrokecyr" format="2">
  <advance width="1472"/>
  <unicode hex="049C"/>
  <outline>
    <contour>
      <point x="800" y="1169" type="line"/>
      <point x="800" y="367" type="line"/>
      <point x="640" y="367" type="line"/>
      <point x="640" y="1169" type="line"/>
    </contour>
    <contour>
      <point x="15" y="0" type="line"/>
      <point x="15" y="126" type="line"/>
      <point x="79" y="161" type="line"/>
      <point x="81" y="754" type="line"/>
      <point x="79" y="1328" type="line"/>
      <point x="15" y="1362" type="line"/>
      <point x="15" y="1500" type="line"/>
      <point x="656" y="1500" type="line"/>
      <point x="656" y="1362" type="line"/>
      <point x="570" y="1328" type="line"/>
      <point x="568" y="754" type="line"/>
      <point x="570" y="161" type="line"/>
      <point x="622" y="126" type="line"/>
      <point x="622" y="0" type="line"/>
    </contour>
    <contour>
      <point x="686" y="697" type="line"/>
      <point x="689" y="855" type="line"/>
      <point x="828" y="848" type="line"/>
      <point x="1163" y="1334" type="line"/>
      <point x="1064" y="1363" type="line"/>
      <point x="1064" y="1500" type="line"/>
      <point x="1448" y="1500" type="line"/>
      <point x="1448" y="1363" type="line"/>
      <point x="1334" y="1334" type="line"/>
      <point x="967" y="813" type="line"/>
      <point x="857" y="698" type="line"/>
    </contour>
    <contour>
      <point x="829" y="704" type="line"/>
      <point x="1207" y="1211" type="line"/>
      <point x="1419" y="160" type="line"/>
      <point x="1481" y="126" type="line"/>
      <point x="1481" y="0" type="line"/>
      <point x="890" y="0" type="line"/>
      <point x="890" y="126" type="line"/>
      <point x="933" y="160" type="line"/>
    </contour>
  </outline>
</glyph>
<glyph name="kabashkircyr" format="2">
  <advance width="1403"/>
  <unicode hex="04A1"/>
  <outline>
    <contour>
      <point x="742" y="490" type="line"/>
      <point x="1076" y="806" type="line"/>
      <point x="1325" y="155" type="line"/>
      <point x="1400" y="120" type="line"/>
      <point x="1400" y="0" type="line"/>
      <point x="874" y="0" type="line"/>
      <point x="842" y="122" type="line"/>
      <point x="848" y="159" type="line"/>
    </contour>
    <contour>
      <point x="524" y="611" type="line"/>
      <point x="755" y="609" type="line"/>
      <point x="1017" y="880" type="line"/>
      <point x="889" y="910" type="line"/>
      <point x="889" y="1050" type="line"/>
      <point x="1346" y="1050" type="line"/>
      <point x="1346" y="910" type="line"/>
      <point x="1204" y="875" type="line"/>
      <point x="787" y="452" type="line"/>
      <point x="524" y="451" type="line"/>
    </contour>
    <contour>
      <point x="257" y="900" type="line"/>
      <point x="215" y="900" type="line"/>
      <point x="129" y="624" type="line"/>
      <point x="-5" y="624" type="line"/>
      <point x="5" y="1050" type="line"/>
      <point x="786" y="1050" type="line"/>
      <point x="786" y="930" type="line"/>
      <point x="728" y="895" type="line"/>
      <point x="726" y="525" type="line"/>
      <point x="728" y="155" type="line"/>
      <point x="786" y="120" type="line"/>
      <point x="786" y="0" type="line"/>
      <point x="207" y="0" type="line"/>
      <point x="207" y="120" type="line"/>
      <point x="257" y="155" type="line"/>
      <point x="259" y="525" type="line"/>
    </contour>
  </outline>
</glyph>
<glyph name="Endescender" format="2">
  <advance width="1332"/>
  <unicode hex="04A2"/>
  <outline>
    <contour>
      <point x="721" y="754" type="line"/>
      <point x="719" y="1328" type="line"/>
      <point x="666" y="1362" type="line"/>
      <point x="666" y="1500" type="line"/>
      <point x="1273" y="1500" type="line"/>
      <point x="1273" y="1362" type="line"/>
      <point x="1210" y="1328" type="line"/>
      <point x="1208" y="754" type="line"/>
      <point x="1210" y="168" type="line"/>
      <point x="1322" y="168" type="line"/>
      <point x="1332" y="-338" type="line"/>
      <point x="1175" y="-338" type="line"/>
      <point x="1076" y="0" type="line"/>
      <point x="666" y="0" type="line"/>
      <point x="666" y="126" type="line"/>
      <point x="719" y="161" type="line"/>
    </contour>
    <contour>
      <point x="15" y="0" type="line"/>
      <point x="15" y="126" type="line"/>
      <point x="78" y="161" type="line"/>
      <point x="80" y="754" type="line"/>
      <point x="78" y="1328" type="line"/>
      <point x="15" y="1362" type="line"/>
      <point x="15" y="1500" type="line"/>
      <point x="616" y="1500" type="line"/>
      <point x="616" y="1362" type="line"/>
      <point x="569" y="1328" type="line"/>
      <point x="567" y="754" type="line"/>
      <point x="569" y="161" type="line"/>
      <point x="616" y="126" type="line"/>
      <point x="616" y="0" type="line"/>
    </contour>
    <contour>
      <point x="331" y="698" type="line"/>
      <point x="331" y="856" type="line"/>
      <point x="650" y="848" type="line"/>
      <point x="976" y="856" type="line"/>
      <point x="976" y="698" type="line"/>
      <point x="650" y="698" type="line"/>
    </contour>
  </outline>
</glyph>
<glyph name="endescender" format="2">
  <advance width="1264"/>
  <unicode hex="04A3"/>
  <outline>
    <contour>
      <point x="339" y="612" type="line"/>
      <point x="620" y="609" type="line"/>
      <point x="904" y="612" type="line"/>
      <point x="904" y="451" type="line"/>
      <point x="620" y="453" type="line"/>
      <point x="339" y="451" type="line"/>
    </contour>
    <contour>
      <point x="74" y="525" type="line"/>
      <point x="72" y="895" type="line"/>
      <point x="22" y="930" type="line"/>
      <point x="22" y="1050" type="line"/>
      <point x="601" y="1050" type="line"/>
      <point x="601" y="930" type="line"/>
      <point x="543" y="895" type="line"/>
      <point x="541" y="525" type="line"/>
      <point x="543" y="155" type="line"/>
      <point x="601" y="120" type="line"/>
      <point x="601" y="0" type="line"/>
      <point x="22" y="0" type="line"/>
      <point x="22" y="120" type="line"/>
      <point x="72" y="155" type="line"/>
    </contour>
    <contour>
      <point x="1172" y="155" type="line"/>
      <point x="1264" y="155" type="line"/>
      <point x="1274" y="-318" type="line"/>
      <point x="1132" y="-318" type="line"/>
      <point x="1036" y="0" type="line"/>
      <point x="643" y="0" type="line"/>
      <point x="643" y="120" type="line"/>
      <point x="701" y="155" type="line"/>
      <point x="703" y="525" type="line"/>
      <point x="701" y="895" type="line"/>
      <point x="643" y="930" type="line"/>
      <point x="643" y="1050" type="line"/>
      <point x="1222" y="1050" type="line"/>
      <point x="1222" y="930" type="line"/>
      <point x="1172" y="895" type="line"/>
      <point x="1170" y="525" type="line"/>
    </contour>
  </outline>
</glyph>
<glyph name="tedescender-cy" format="2">
  <advance width="992"/>
  <unicode hex="04AD"/>
  <outline>
    <contour>
      <point x="733" y="155" type="line"/>
      <point x="825" y="155" type="line"/>
      <point x="835" y="-318" type="line"/>
      <point x="693" y="-318" type="line"/>
      <point x="597" y="0" type="line"/>
      <point x="189" y="0" type="line"/>
      <point x="189" y="120" type="line"/>
      <point x="256" y="155" type="line"/>
      <point x="259" y="527" type="line"/>
      <point x="257" y="900" type="line"/>
      <point x="215" y="900" type="line"/>
      <point x="129" y="624" type="line"/>
      <point x="-5" y="624" type="line"/>
      <point x="5" y="1050" type="line"/>
      <point x="987" y="1050" type="line"/>
      <point x="997" y="624" type="line"/>
      <point x="863" y="624" type="line"/>
      <point x="777" y="900" type="line"/>
      <point x="732" y="900" type="line"/>
      <point x="731" y="527" type="line"/>
    </contour>
  </outline>
</glyph>
<glyph name="ustraightstroke" format="2">
  <advance width="1053"/>
  <unicode hex="04B1"/>
  <outline>
    <contour>
      <point x="139" y="-114" type="line"/>
      <point x="139" y="0" type="line"/>
      <point x="894" y="0" type="line"/>
      <point x="894" y="-114" type="line"/>
    </contour>
    <contour>
      <point x="10" y="910" type="line"/>
      <point x="10" y="1050" type="line"/>
      <point x="670" y="1050" type="line"/>
      <point x="670" y="910" type="line"/>
      <point x="583" y="874" type="line"/>
      <point x="630" y="619" type="line"/>
      <point x="677" y="329" type="line"/>
      <point x="745" y="631" type="line"/>
      <point x="808" y="875" type="line"/>
      <point x="734" y="910" type="line"/>
      <point x="734" y="1050" type="line"/>
      <point x="1053" y="1050" type="line"/>
      <point x="1053" y="910" type="line"/>
      <point x="968" y="875" type="line"/>
      <point x="876" y="525" type="line"/>
      <point x="754" y="0" type="line"/>
      <point x="755" y="-325" type="line"/>
      <point x="821" y="-360" type="line"/>
      <point x="821" y="-480" type="line"/>
      <point x="211" y="-480" type="line"/>
      <point x="211" y="-360" type="line"/>
      <point x="278" y="-325" type="line"/>
      <point x="279" y="0" type="line"/>
      <point x="176" y="497" type="line"/>
      <point x="75" y="875" type="line"/>
    </contour>
  </outline>
</glyph>
<glyph name="Cheverticalstroke-cy" format="2">
  <advance width="1430"/>
  <unicode hex="04B8"/>
  <outline>
    <contour>
      <point x="791" y="1115" type="line"/>
      <point x="791" y="319" type="line"/>
      <point x="631" y="319" type="line"/>
      <point x="631" y="1115" type="line"/>
    </contour>
    <contour>
      <point x="788" y="0" type="line"/>
      <point x="788" y="126" type="line"/>
      <point x="861" y="161" type="line"/>
      <point x="863" y="754" type="line"/>
      <point x="861" y="1328" type="line"/>
      <point x="808" y="1362" type="line"/>
      <point x="808" y="1500" type="line"/>
      <point x="1415" y="1500" type="line"/>
      <point x="1415" y="1362" type="line"/>
      <point x="1352" y="1328" type="line"/>
      <point x="1350" y="754" type="line"/>
      <point x="1352" y="161" type="line"/>
      <point x="1415" y="126" type="line"/>
      <point x="1415" y="0" type="line"/>
    </contour>
    <contour>
      <point x="10" y="1362" type="line"/>
      <point x="10" y="1500" type="line"/>
      <point x="611" y="1500" type="line"/>
      <point x="611" y="1362" type="line"/>
      <point x="564" y="1328" type="line"/>
      <point x="559" y="871" type="line" smooth="yes"/>
      <point x="558" y="818"/>
      <point x="595" y="775"/>
      <point x="646" y="775" type="qcurve" smooth="yes"/>
      <point x="706" y="775"/>
      <point x="827" y="807"/>
      <point x="912" y="837" type="qcurve"/>
      <point x="912" y="684" type="line"/>
      <point x="827" y="654"/>
      <point x="641" y="609"/>
      <point x="476" y="609" type="qcurve" smooth="yes"/>
      <point x="276" y="609"/>
      <point x="76" y="785"/>
      <point x="75" y="934" type="qcurve" smooth="yes"/>
      <point x="73" y="1328" type="line"/>
    </contour>
  </outline>
</glyph>
<glyph name="cheverticalstroke-cy" format="2">
  <advance width="1282"/>
  <unicode hex="04B9"/>
  <outline>
    <contour>
      <point x="697" y="792" type="line"/>
      <point x="697" y="210" type="line"/>
      <point x="577" y="210" type="line"/>
      <point x="577" y="792" type="line"/>
    </contour>
    <contour>
      <point x="534" y="701" type="line" smooth="yes"/>
      <point x="533" y="622"/>
      <point x="561" y="557"/>
      <point x="610" y="557" type="qcurve" smooth="yes"/>
      <point x="667" y="557"/>
      <point x="753" y="576"/>
      <point x="818" y="597" type="qcurve"/>
      <point x="818" y="456" type="line"/>
      <point x="748" y="433"/>
      <point x="575" y="397"/>
      <point x="467" y="397" type="qcurve" smooth="yes"/>
      <point x="268" y="397"/>
      <point x="67" y="550"/>
      <point x="66" y="697" type="qcurve" smooth="yes"/>
      <point x="65" y="895" type="line"/>
      <point x="15" y="930" type="line"/>
      <point x="15" y="1050" type="line"/>
      <point x="584" y="1050" type="line"/>
      <point x="584" y="930" type="line"/>
      <point x="536" y="895" type="line"/>
    </contour>
    <contour>
      <point x="1208" y="525" type="line"/>
      <point x="1210" y="155" type="line"/>
      <point x="1260" y="120" type="line"/>
      <point x="1260" y="0" type="line"/>
      <point x="661" y="0" type="line"/>
      <point x="661" y="120" type="line"/>
      <point x="739" y="155" type="line"/>
      <point x="741" y="525" type="line"/>
      <point x="739" y="895" type="line"/>
      <point x="691" y="930" type="line"/>
      <point x="691" y="1050" type="line"/>
      <point x="1260" y="1050" type="line"/>
      <point x="1260" y="930" type="line"/>
      <point x="1210" y="895" type="line"/>
    </contour>
  </outline>
</glyph>
<glyph name="Shha" format="2">
  <advance width="1273"/>
  <unicode hex="04BA"/>
  <outline>
    <contour>
      <point x="642" y="1500" type="line"/>
      <point x="642" y="1374" type="line"/>
      <point x="569" y="1339" type="line"/>
      <point x="567" y="746" type="line"/>
      <point x="569" y="172" type="line"/>
      <point x="622" y="138" type="line"/>
      <point x="622" y="0" type="line"/>
      <point x="15" y="0" type="line"/>
      <point x="15" y="138" type="line"/>
      <point x="78" y="172" type="line"/>
      <point x="80" y="746" type="line"/>
      <point x="78" y="1339" type="line"/>
      <point x="15" y="1374" type="line"/>
      <point x="15" y="1500" type="line"/>
    </contour>
    <contour>
      <point x="1263" y="138" type="line"/>
      <point x="1263" y="0" type="line"/>
      <point x="662" y="0" type="line"/>
      <point x="662" y="138" type="line"/>
      <point x="709" y="172" type="line"/>
      <point x="714" y="629" type="line" smooth="yes"/>
      <point x="715" y="682"/>
      <point x="678" y="725"/>
      <point x="637" y="725" type="qcurve" smooth="yes"/>
      <point x="594" y="725"/>
      <point x="446" y="693"/>
      <point x="361" y="663" type="qcurve"/>
      <point x="361" y="816" type="line"/>
      <point x="446" y="846"/>
      <point x="632" y="891"/>
      <point x="797" y="891" type="qcurve" smooth="yes"/>
      <point x="997" y="891"/>
      <point x="1197" y="715"/>
      <point x="1198" y="566" type="qcurve" smooth="yes"/>
      <point x="1200" y="172" type="line"/>
    </contour>
  </outline>
</glyph>
<glyph name="Schwacyr" format="2">
  <advance width="1313"/>
  <unicode hex="04D8"/>
  <outline>
    <contour>
      <point x="79" y="698" type="line"/>
      <point x="57" y="856" type="line"/>
      <point x="660" y="848" type="line"/>
      <point x="976" y="856" type="line"/>
      <point x="976" y="698" type="line"/>
      <point x="660" y="698" type="line"/>
    </contour>
    <contour>
      <point x="166" y="1499" type="line"/>
      <point x="286" y="1499" type="line"/>
      <point x="332" y="1410" type="line"/>
      <point x="361" y="1457"/>
      <point x="500" y="1524"/>
      <point x="616" y="1524" type="qcurve" smooth="yes"/>
      <point x="907" y="1524"/>
      <point x="1264" y="1105"/>
      <point x="1264" y="762" type="qcurve" smooth="yes"/>
      <point x="1264" y="435"/>
      <point x="933" y="-16"/>
      <point x="660" y="-16" type="qcurve" smooth="yes"/>
      <point x="384" y="-16"/>
      <point x="49" y="409"/>
      <point x="49" y="747" type="qcurve" smooth="yes"/>
      <point x="49" y="783"/>
      <point x="52" y="823"/>
      <point x="57" y="856" type="qcurve"/>
      <point x="571" y="822" type="line"/>
      <point x="571" y="808"/>
      <point x="571" y="758"/>
      <point x="571" y="737" type="qcurve" smooth="yes"/>
      <point x="571" y="251"/>
      <point x="607" y="151"/>
      <point x="658" y="151" type="qcurve" smooth="yes"/>
      <point x="709" y="151"/>
      <point x="744" y="250"/>
      <point x="744" y="759" type="qcurve" smooth="yes"/>
      <point x="744" y="1162"/>
      <point x="668" y="1368"/>
      <point x="557" y="1368" type="qcurve" smooth="yes"/>
      <point x="469" y="1368"/>
      <point x="373" y="1258"/>
      <point x="356" y="1170" type="qcurve" smooth="yes"/>
      <point x="334" y="1053" type="line"/>
      <point x="166" y="1053" type="line"/>
    </contour>
  </outline>
</glyph>
<glyph name="obarcyr" format="2">
  <advance width="1203"/>
  <unicode hex="04E9"/>
  <outline>
    <contour>
      <point x="36" y="525" type="qcurve" smooth="yes"/>
      <point x="36" y="783"/>
      <point x="348" y="1073"/>
      <point x="599" y="1073" type="qcurve" smooth="yes"/>
      <point x="832" y="1073"/>
      <point x="1167" y="804"/>
      <point x="1167" y="531" type="qcurve" smooth="yes"/>
      <point x="1167" y="274"/>
      <point x="836" y="-22"/>
      <point x="603" y="-22" type="qcurve" smooth="yes"/>
      <point x="364" y="-22"/>
      <point x="36" y="250"/>
    </contour>
    <contour>
      <point x="525" y="523" type="qcurve" smooth="yes"/>
      <point x="525" y="242"/>
      <point x="537.6176470588" y="118"/>
      <point x="603" y="118" type="qcurve" smooth="yes"/>
      <point x="665.0597014925" y="118"/>
      <point x="680" y="245"/>
      <point x="680" y="526" type="qcurve" smooth="yes"/>
      <point x="680" y="821"/>
      <point x="666.2608695652" y="917"/>
      <point x="601" y="917" type="qcurve" smooth="yes"/>
      <point x="535.3636363636" y="917"/>
      <point x="525" y="818"/>
    </contour>
    <contour>
      <point x="296" y="612" type="line"/>
      <point x="607" y="609" type="line"/>
      <point x="921" y="612" type="line"/>
      <point x="921" y="451" type="line"/>
      <point x="607" y="453" type="line"/>
      <point x="296" y="451" type="line"/>
    </contour>
  </outline>
</glyph>
<glyph name="Hastroke-cy" format="2">
  <advance width="1075"/>
  <unicode hex="04FE"/>
  <outline>
    <contour>
      <point x="79" y="694" type="line"/>
      <point x="79" y="848" type="line"/>
      <point x="533" y="845" type="line"/>
      <point x="949" y="848" type="line"/>
      <point x="949" y="694" type="line"/>
      <point x="521" y="697" type="line"/>
    </contour>
    <contour>
      <point x="0" y="0" type="line"/>
      <point x="0" y="127" type="line"/>
      <point x="84" y="161" type="line"/>
      <point x="416" y="863" type="line"/>
      <point x="575" y="863" type="line"/>
      <point x="763" y="1333" type="line"/>
      <point x="703" y="1363" type="line"/>
      <point x="703" y="1500" type="line"/>
      <point x="1025" y="1500" type="line"/>
      <point x="1025" y="1363" type="line"/>
      <point x="938" y="1334" type="line"/>
      <point x="656" y="730" type="line"/>
      <point x="514" y="730" type="line"/>
      <point x="260" y="162" type="line"/>
      <point x="331" y="127" type="line"/>
      <point x="331" y="0" type="line"/>
    </contour>
    <contour>
      <point x="16" y="1363" type="line"/>
      <point x="16" y="1500" type="line"/>
      <point x="628" y="1500" type="line"/>
      <point x="628" y="1363" type="line"/>
      <point x="603" y="1335" type="line"/>
      <point x="757" y="837" type="line"/>
      <point x="997" y="160" type="line"/>
      <point x="1072" y="127" type="line"/>
      <point x="1072" y="0" type="line"/>
      <point x="403" y="0" type="line"/>
      <point x="403" y="127" type="line"/>
      <point x="466" y="160" type="line"/>
      <point x="296" y="721" type="line"/>
      <point x="82" y="1334" type="line"/>
    </contour>
  </outline>
</glyph>
<glyph name="quotedblright" format="2">
	<unicode hex="201D"/>
	<advance width="1086"/>
	<outline>
		<contour>
			<point x="82" y="901" type="line"/>
			<point x="148" y="936"/>
			<point x="268" y="1051"/>
			<point x="302" y="1120" type="qcurve"/>
			<point x="193" y="1105"/>
			<point x="57" y="1219"/>
			<point x="57" y="1314" type="qcurve" smooth="yes"/>
			<point x="57" y="1408"/>
			<point x="172" y="1527"/>
			<point x="270" y="1527" type="qcurve" smooth="yes"/>
			<point x="368" y="1527"/>
			<point x="496" y="1411"/>
			<point x="496" y="1285" type="qcurve" smooth="yes"/>
			<point x="496" y="1128"/>
			<point x="284" y="870"/>
			<point x="145" y="807" type="qcurve"/>
		</contour>
		<contour>
			<point x="612" y="901" type="line"/>
			<point x="678" y="936"/>
			<point x="798" y="1051"/>
			<point x="832" y="1120" type="qcurve"/>
			<point x="723" y="1105"/>
			<point x="587" y="1219"/>
			<point x="587" y="1314" type="qcurve" smooth="yes"/>
			<point x="587" y="1408"/>
			<point x="702" y="1527"/>
			<point x="800" y="1527" type="qcurve" smooth="yes"/>
			<point x="898" y="1527"/>
			<point x="1026" y="1411"/>
			<point x="1026" y="1285" type="qcurve" smooth="yes"/>
			<point x="1026" y="1128"/>
			<point x="814" y="870"/>
			<point x="675" y="807" type="qcurve"/>
		</contour>
	</outline>
</glyph>
<glyph name="bullet" format="2">
	<unicode hex="2022"/>
	<advance width="850"/>
	<outline>
		<contour>
			<point x="94" y="773" type="qcurve" smooth="yes"/>
			<point x="94" y="907"/>
			<point x="279" y="1104"/>
			<point x="425" y="1104" type="qcurve" smooth="yes"/>
			<point x="570" y="1104"/>
			<point x="756" y="907"/>
			<point x="756" y="773" type="qcurve" smooth="yes"/>
			<point x="756" y="641"/>
			<point x="570" y="444"/>
			<point x="425" y="444" type="qcurve" smooth="yes"/>
			<point x="279" y="444"/>
			<point x="94" y="641"/>
		</contour>
	</outline>
</glyph>
<glyph name="second" format="2">
	<unicode hex="2033"/>
	<advance width="823"/>
	<outline>
		<contour>
			<point x="127" y="962" type="line"/>
			<point x="187" y="1383" type="line" smooth="yes"/>
			<point x="199" y="1465"/>
			<point x="308" y="1556"/>
			<point x="388" y="1528" type="qcurve" smooth="yes"/>
			<point x="459" y="1503"/>
			<point x="472" y="1367"/>
			<point x="429" y="1295" type="qcurve" smooth="yes"/>
			<point x="214" y="933" type="line"/>
		</contour>
		<contour>
			<point x="497" y="962" type="line"/>
			<point x="558" y="1383" type="line" smooth="yes"/>
			<point x="570" y="1465"/>
			<point x="686" y="1552"/>
			<point x="762" y="1525" type="qcurve" smooth="yes"/>
			<point x="836" y="1499"/>
			<point x="840" y="1364"/>
			<point x="799" y="1295" type="qcurve" smooth="yes"/>
			<point x="584" y="933" type="line"/>
		</contour>
	</outline>
</glyph>
<glyph name="won" format="2">
  <advance width="1613"/>
  <unicode hex="20A9"/>
  <outline>
    <contour>
      <point x="40" y="1364" type="line"/>
      <point x="40" y="1500" type="line"/>
      <point x="613" y="1500" type="line"/>
      <point x="613" y="1364" type="line"/>
      <point x="557" y="1336" type="line"/>
      <point x="604" y="854" type="line"/>
      <point x="638" y="456" type="line"/>
      <point x="689" y="793" type="line"/>
      <point x="762" y="1336" type="line"/>
      <point x="863" y="1042" type="line"/>
      <point x="796" y="676" type="line"/>
      <point x="677" y="0" type="line"/>
      <point x="298" y="0" type="line"/>
      <point x="193" y="746" type="line"/>
      <point x="118" y="1333" type="line"/>
    </contour>
    <contour>
      <point x="693" y="1358" type="line"/>
      <point x="693" y="1500" type="line"/>
      <point x="1216" y="1500" type="line"/>
      <point x="1216" y="1358" type="line"/>
      <point x="1159" y="1331" type="line"/>
      <point x="1205" y="856" type="line"/>
      <point x="1244" y="474" type="line"/>
      <point x="1265" y="856" type="line"/>
      <point x="1307" y="1329" type="line"/>
      <point x="1236" y="1363" type="line"/>
      <point x="1236" y="1500" type="line"/>
      <point x="1532" y="1500" type="line"/>
      <point x="1532" y="1363" type="line"/>
      <point x="1462" y="1334" type="line"/>
      <point x="1398" y="818" type="line"/>
      <point x="1292" y="0" type="line"/>
      <point x="920" y="0" type="line"/>
      <point x="836" y="711" type="line"/>
      <point x="749" y="1328" type="line"/>
    </contour>
    <contour>
      <point x="1474" y="538" type="line"/>
      <point x="1292" y="538" type="line"/>
      <point x="1292" y="559" type="line"/>
      <point x="933" y="559" type="line"/>
      <point x="896" y="691" type="line"/>
      <point x="1331" y="691" type="line"/>
      <point x="1331" y="705" type="line"/>
      <point x="1513" y="705" type="line"/>
    </contour>
    <contour>
      <point x="1541" y="876" type="line"/>
      <point x="1341" y="876" type="line"/>
      <point x="1341" y="888" type="line"/>
      <point x="891" y="888" type="line"/>
      <point x="851" y="1035" type="line"/>
      <point x="1381" y="1035" type="line"/>
      <point x="1381" y="1044" type="line"/>
      <point x="1581" y="1044" type="line"/>
    </contour>
    <contour>
      <point x="157" y="538" type="line"/>
      <point x="118" y="705" type="line"/>
      <point x="360" y="705" type="line"/>
      <point x="360" y="691" type="line"/>
      <point x="896" y="691" type="line"/>
      <point x="933" y="559" type="line"/>
      <point x="419" y="559" type="line"/>
      <point x="419" y="538" type="line"/>
    </contour>
    <contour>
      <point x="63" y="876" type="line"/>
      <point x="20" y="1044" type="line"/>
      <point x="240" y="1044" type="line"/>
      <point x="240" y="1035" type="line"/>
      <point x="851" y="1035" type="line"/>
      <point x="891" y="888" type="line"/>
      <point x="280" y="888" type="line"/>
      <point x="280" y="876" type="line"/>
    </contour>
  </outline>
</glyph>
<glyph name="liraTurkish" format="2">
	<unicode hex="20BA"/>
	<advance width="1289"/>
	<outline>
		<contour>
			<point x="306" y="-29" type="line"/>
			<point x="211" y="91" type="line"/>
			<point x="260" y="192" type="line"/>
			<point x="272" y="624" type="line"/>
			<point x="260" y="1341" type="line"/>
			<point x="82" y="1355" type="line"/>
			<point x="82" y="1500" type="line"/>
			<point x="466" y="1503" type="line"/>
			<point x="846" y="1512" type="line"/>
			<point x="859" y="1382" type="line"/>
			<point x="720" y="1331" type="line"/>
			<point x="706" y="686" type="line"/>
			<point x="715" y="254" type="line"/>
			<point x="755" y="227" type="line"/>
			<point x="868" y="266"/>
			<point x="1003" y="383"/>
			<point x="1031" y="523" type="qcurve" smooth="yes"/>
			<point x="1064" y="687" type="line"/>
			<point x="1201" y="687" type="line"/>
			<point x="1137" y="242" type="line"/>
			<point x="1052" y="121"/>
			<point x="689" y="24"/>
			<point x="561" y="5" type="qcurve" smooth="yes"/>
		</contour>
		<contour>
			<point x="112" y="424" type="line"/>
			<point x="76" y="582" type="line"/>
			<point x="511" y="721" type="line"/>
			<point x="511" y="717" type="line"/>
			<point x="904" y="851" type="line"/>
			<point x="899" y="679" type="line"/>
			<point x="510" y="554" type="line"/>
			<point x="510" y="550" type="line"/>
		</contour>
		<contour>
			<point x="114" y="739" type="line"/>
			<point x="78" y="895" type="line"/>
			<point x="514" y="1027" type="line"/>
			<point x="514" y="1034" type="line"/>
			<point x="946" y="1168" type="line"/>
			<point x="937" y="996" type="line"/>
			<point x="513" y="867" type="line"/>
			<point x="513" y="865" type="line"/>
		</contour>
	</outline>
</glyph>
<glyph name="trademark" format="2">
	<unicode hex="2122"/>
	<advance width="1778"/>
	<outline>
		<contour>
			<point x="45" y="1195" type="line"/>
			<point x="45" y="1500" type="line"/>
			<point x="722" y="1500" type="line"/>
			<point x="722" y="1195" type="line"/>
			<point x="622" y="1195" type="line"/>
			<point x="592" y="1365" type="line"/>
			<point x="496" y="1365" type="line"/>
			<point x="471" y="1345" type="line"/>
			<point x="470" y="1054" type="line"/>
			<point x="470" y="847" type="line"/>
			<point x="569" y="811" type="line"/>
			<point x="569" y="700" type="line"/>
			<point x="197" y="700" type="line"/>
			<point x="197" y="811" type="line"/>
			<point x="297" y="847" type="line"/>
			<point x="297" y="1054" type="line"/>
			<point x="295" y="1345" type="line"/>
			<point x="279" y="1365" type="line"/>
			<point x="175" y="1365" type="line"/>
			<point x="145" y="1195" type="line"/>
		</contour>
		<contour>
			<point x="756" y="702" type="line"/>
			<point x="756" y="810" type="line"/>
			<point x="856" y="845" type="line"/>
			<point x="858" y="1056" type="line"/>
			<point x="856" y="1338" type="line"/>
			<point x="761" y="1372" type="line"/>
			<point x="761" y="1500" type="line"/>
			<point x="1079" y="1500" type="line"/>
			<point x="1264" y="926" type="line"/>
			<point x="1451" y="1500" type="line"/>
			<point x="1757" y="1500" type="line"/>
			<point x="1757" y="1372" type="line"/>
			<point x="1665" y="1338" type="line"/>
			<point x="1664" y="1054" type="line"/>
			<point x="1665" y="843" type="line"/>
			<point x="1757" y="808" type="line"/>
			<point x="1757" y="700" type="line"/>
			<point x="1419" y="700" type="line"/>
			<point x="1419" y="808" type="line"/>
			<point x="1503" y="843" type="line"/>
			<point x="1504" y="1054" type="line"/>
			<point x="1503" y="1315" type="line"/>
			<point x="1303" y="692" type="line"/>
			<point x="1169" y="692" type="line"/>
			<point x="974" y="1305" type="line"/>
			<point x="972" y="1056" type="line"/>
			<point x="974" y="845" type="line"/>
			<point x="1064" y="810" type="line"/>
			<point x="1064" y="702" type="line"/>
		</contour>
	</outline>
</glyph>
<glyph name="minus" format="2">
	<unicode hex="2212"/>
	<advance width="889"/>
	<outline>
		<contour>
			<point x="48" y="501" type="line"/>
			<point x="48" y="763" type="line"/>
			<point x="841" y="763" type="line"/>
			<point x="841" y="501" type="line"/>
		</contour>
	</outline>
</glyph>
<glyph name="divisionslash" format="2">
	<unicode hex="2215"/>
	<advance width="908"/>
	<outline>
		<contour>
			<point x="70" y="-73" type="line"/>
			<point x="564" y="1605" type="line"/>
			<point x="861" y="1502" type="line"/>
			<point x="368" y="-174" type="line"/>
		</contour>
	</outline>
</glyph>
<glyph name="rightanglebracket" format="2">
	<unicode hex="27E9"/>
	<advance width="982"/>
	<outline>
		<contour>
			<point x="179" y="-152" type="line"/>
			<point x="8" y="134" type="line"/>
			<point x="502" y="771" type="line"/>
			<point x="14" y="1248" type="line"/>
			<point x="163" y="1508" type="line"/>
			<point x="905" y="857" type="line"/>
			<point x="905" y="660" type="line"/>
		</contour>
	</outline>
</glyph>
<glyph name="f_f" format="2">
	<unicode hex="FB00"/>
	<advance width="1458"/>
	<outline>
		<contour>
			<point x="33" y="0" type="line"/>
			<point x="33" y="120" type="line"/>
			<point x="125" y="155" type="line"/>
			<point x="131" y="552" type="line"/>
			<point x="131" y="862" type="line"/>
			<point x="30" y="876" type="line"/>
			<point x="28" y="1008" type="line"/>
			<point x="132" y="1034" type="line"/>
			<point x="128" y="1222" type="line" smooth="yes"/>
			<point x="124" y="1342"/>
			<point x="291" y="1521"/>
			<point x="494" y="1521" type="qcurve" smooth="yes"/>
			<point x="588" y="1521"/>
			<point x="729" y="1493"/>
			<point x="772" y="1467" type="qcurve" smooth="yes"/>
			<point x="783" y="1456" type="line"/>
			<point x="783" y="1304" type="line"/>
			<point x="786" y="1306" type="line" smooth="yes"/>
			<point x="775" y="1312"/>
			<point x="719" y="1327"/>
			<point x="694" y="1327" type="qcurve" smooth="yes"/>
			<point x="655" y="1327"/>
			<point x="616" y="1268"/>
			<point x="615" y="1258" type="qcurve" smooth="yes"/>
			<point x="612" y="1024" type="line"/>
			<point x="816" y="1024" type="line"/>
			<point x="812" y="1151" type="line" smooth="yes"/>
			<point x="810" y="1317"/>
			<point x="960" y="1513"/>
			<point x="1163" y="1513" type="qcurve" smooth="yes"/>
			<point x="1253" y="1513"/>
			<point x="1402" y="1486"/>
			<point x="1450" y="1462" type="qcurve" smooth="yes"/>
			<point x="1457" y="1453" type="line"/>
			<point x="1457" y="1300" type="line"/>
			<point x="1459" y="1302" type="line" smooth="yes"/>
			<point x="1449" y="1307"/>
			<point x="1403" y="1317"/>
			<point x="1378" y="1317" type="qcurve" smooth="yes"/>
			<point x="1324" y="1317"/>
			<point x="1299" y="1245"/>
			<point x="1299" y="1187" type="qcurve" smooth="yes"/>
			<point x="1296" y="1024" type="line"/>
			<point x="1442" y="1024" type="line"/>
			<point x="1442" y="863" type="line"/>
			<point x="1295" y="874" type="line"/>
			<point x="1294" y="552" type="line"/>
			<point x="1291" y="155" type="line"/>
			<point x="1405" y="120" type="line"/>
			<point x="1405" y="0" type="line"/>
			<point x="741" y="0" type="line"/>
			<point x="741" y="120" type="line"/>
			<point x="809" y="155" type="line"/>
			<point x="815" y="552" type="line"/>
			<point x="815" y="862" type="line"/>
			<point x="811" y="873" type="line"/>
			<point x="611" y="869" type="line"/>
			<point x="610" y="552" type="line"/>
			<point x="607" y="155" type="line"/>
			<point x="663" y="120" type="line"/>
			<point x="663" y="0" type="line"/>
		</contour>
	</outline>
</glyph>
<glyph name="fi" format="2">
	<unicode hex="FB01"/>
	<advance width="1364"/>
	<outline>
		<contour>
			<point x="33" y="0" type="line"/>
			<point x="33" y="120" type="line"/>
			<point x="125" y="155" type="line"/>
			<point x="131" y="552" type="line"/>
			<point x="131" y="862" type="line"/>
			<point x="30" y="876" type="line"/>
			<point x="28" y="1008" type="line"/>
			<point x="132" y="1034" type="line"/>
			<point x="129" y="1234" type="line" smooth="yes"/>
			<point x="126" y="1346"/>
			<point x="252" y="1523"/>
			<point x="455" y="1524" type="qcurve" smooth="yes"/>
			<point x="509" y="1525"/>
			<point x="626" y="1521"/>
			<point x="666" y="1504" type="qcurve" smooth="yes"/>
			<point x="684" y="1496" type="line"/>
			<point x="684" y="1343" type="line"/>
			<point x="680" y="1343" type="line" smooth="yes"/>
			<point x="682" y="1340"/>
			<point x="698" y="1327"/>
			<point x="698" y="1327" type="qcurve" smooth="yes"/>
			<point x="640" y="1327"/>
			<point x="616" y="1264"/>
			<point x="615" y="1260" type="qcurve" smooth="yes"/>
			<point x="612" y="1024" type="line"/>
			<point x="1151" y="1034" type="line"/>
			<point x="1229" y="1034" type="line"/>
			<point x="1272" y="990" type="line"/>
			<point x="1265" y="552" type="line"/>
			<point x="1267" y="155" type="line"/>
			<point x="1354" y="120" type="line"/>
			<point x="1354" y="0" type="line"/>
			<point x="744" y="0" type="line"/>
			<point x="744" y="120" type="line"/>
			<point x="791" y="155" type="line"/>
			<point x="793" y="552" type="line"/>
			<point x="796" y="856" type="line"/>
			<point x="771" y="877" type="line"/>
			<point x="611" y="874" type="line"/>
			<point x="610" y="552" type="line"/>
			<point x="607" y="155" type="line"/>
			<point x="666" y="120" type="line"/>
			<point x="666" y="0" type="line"/>
		</contour>
		<contour>
			<point x="721" y="1317" type="qcurve" smooth="yes"/>
			<point x="721" y="1395"/>
			<point x="862" y="1492"/>
			<point x="993" y="1492" type="qcurve" smooth="yes"/>
			<point x="1118" y="1492"/>
			<point x="1270" y="1397"/>
			<point x="1269" y="1317" type="qcurve" smooth="yes"/>
			<point x="1269" y="1245"/>
			<point x="1128" y="1153"/>
			<point x="995" y="1153" type="qcurve" smooth="yes"/>
			<point x="871" y="1153"/>
			<point x="721" y="1248"/>
		</contour>
	</outline>
</glyph>
<glyph name="f_f_l" format="2">
	<unicode hex="FB04"/>
	<advance width="2040"/>
	<outline>
		<contour>
			<point x="33" y="0" type="line"/>
			<point x="33" y="120" type="line"/>
			<point x="125" y="155" type="line"/>
			<point x="131" y="552" type="line"/>
			<point x="131" y="862" type="line"/>
			<point x="30" y="876" type="line"/>
			<point x="28" y="1008" type="line"/>
			<point x="132" y="1034" type="line"/>
			<point x="128" y="1222" type="line" smooth="yes"/>
			<point x="124" y="1342"/>
			<point x="291" y="1521"/>
			<point x="494" y="1521" type="qcurve" smooth="yes"/>
			<point x="592" y="1521"/>
			<point x="730" y="1494"/>
			<point x="770" y="1468" type="qcurve" smooth="yes"/>
			<point x="783" y="1456" type="line"/>
			<point x="783" y="1304" type="line"/>
			<point x="780" y="1308" type="line" smooth="yes"/>
			<point x="775" y="1312"/>
			<point x="722" y="1327"/>
			<point x="694" y="1327" type="qcurve" smooth="yes"/>
			<point x="655" y="1327"/>
			<point x="616" y="1268"/>
			<point x="615" y="1258" type="qcurve" smooth="yes"/>
			<point x="612" y="1024" type="line"/>
			<point x="812" y="1023" type="line"/>
			<point x="808" y="1151" type="line" smooth="yes"/>
			<point x="806" y="1317"/>
			<point x="976" y="1513"/>
			<point x="1179" y="1513" type="qcurve" smooth="yes"/>
			<point x="1235" y="1513"/>
			<point x="1334" y="1503"/>
			<point x="1382" y="1487" type="qcurve" smooth="yes"/>
			<point x="1393" y="1481" type="line"/>
			<point x="1857" y="1534" type="line"/>
			<point x="1894" y="1536" type="line"/>
			<point x="1956" y="1488" type="line"/>
			<point x="1954" y="527" type="line"/>
			<point x="1956" y="155" type="line"/>
			<point x="2042" y="120" type="line"/>
			<point x="2042" y="0" type="line"/>
			<point x="1435" y="0" type="line"/>
			<point x="1435" y="120" type="line"/>
			<point x="1479" y="155" type="line"/>
			<point x="1482" y="527" type="line"/>
			<point x="1479" y="1314" type="line"/>
			<point x="1512" y="1318" type="line" smooth="yes"/>
			<point x="1506" y="1319"/>
			<point x="1427" y="1327"/>
			<point x="1414" y="1327" type="qcurve" smooth="yes"/>
			<point x="1349" y="1327"/>
			<point x="1295" y="1245"/>
			<point x="1295" y="1187" type="qcurve" smooth="yes"/>
			<point x="1292" y="1024" type="line"/>
			<point x="1449" y="1024" type="line"/>
			<point x="1449" y="874" type="line"/>
			<point x="1291" y="874" type="line"/>
			<point x="1291" y="552" type="line"/>
			<point x="1288" y="155" type="line"/>
			<point x="1357" y="120" type="line"/>
			<point x="1357" y="0" type="line"/>
			<point x="749" y="0" type="line"/>
			<point x="749" y="120" type="line"/>
			<point x="806" y="155" type="line"/>
			<point x="812" y="552" type="line"/>
			<point x="812" y="865" type="line"/>
			<point x="776" y="876" type="line"/>
			<point x="611" y="869" type="line"/>
			<point x="610" y="552" type="line"/>
			<point x="607" y="155" type="line"/>
			<point x="671" y="120" type="line"/>
			<point x="671" y="0" type="line"/>
		</contour>
	</outline>
</glyph>
<glyph name="De.bgr" format="2">
  <advance width="1280"/>
  <outline>
    <contour>
      <point x="671" y="78" type="line"/>
      <point x="563" y="629" type="line"/>
      <point x="468" y="1078" type="line"/>
      <point x="374" y="631" type="line"/>
      <point x="269" y="101" type="line"/>
      <point x="105" y="97" type="line"/>
      <point x="228" y="662" type="line"/>
      <point x="404" y="1500" type="line"/>
      <point x="862" y="1500" type="line"/>
      <point x="1039" y="710" type="line"/>
      <point x="1191" y="74" type="line"/>
    </contour>
    <contour>
      <point x="1123" y="-338" type="line"/>
      <point x="1024" y="0" type="line"/>
      <point x="256" y="0" type="line"/>
      <point x="157" y="-338" type="line"/>
      <point x="0" y="-338" type="line"/>
      <point x="10" y="168" type="line"/>
      <point x="1270" y="168" type="line"/>
      <point x="1280" y="-338" type="line"/>
    </contour>
  </outline>
</glyph>
<glyph name="El.bgr" format="2">
  <advance width="1122"/>
  <outline>
    <contour>
      <point x="-18" y="0" type="line"/>
      <point x="-18" y="124" type="line"/>
      <point x="64" y="148" type="line"/>
      <point x="159" y="630" type="line"/>
      <point x="325" y="1500" type="line"/>
      <point x="783" y="1500" type="line"/>
      <point x="958" y="655" type="line"/>
      <point x="1064" y="157" type="line"/>
      <point x="1144" y="124" type="line"/>
      <point x="1144" y="0" type="line"/>
      <point x="457" y="0" type="line"/>
      <point x="457" y="124" type="line"/>
      <point x="544" y="161" type="line"/>
      <point x="472" y="539" type="line"/>
      <point x="381" y="1039" type="line"/>
      <point x="307" y="599" type="line"/>
      <point x="228" y="152" type="line"/>
      <point x="309" y="124" type="line"/>
      <point x="309" y="0" type="line"/>
    </contour>
  </outline>
</glyph>
<glyph name="Zhe.bgr" format="2">
  <advance width="1871"/>
  <outline>
    <contour>
      <point x="639" y="0" type="line"/>
      <point x="639" y="126" type="line"/>
      <point x="685" y="161" type="line"/>
      <point x="687" y="754" type="line"/>
      <point x="685" y="1328" type="line"/>
      <point x="599" y="1362" type="line"/>
      <point x="599" y="1500" type="line"/>
      <point x="1262" y="1500" type="line"/>
      <point x="1262" y="1362" type="line"/>
      <point x="1176" y="1328" type="line"/>
      <point x="1174" y="754" type="line"/>
      <point x="1176" y="161" type="line"/>
      <point x="1222" y="126" type="line"/>
      <point x="1222" y="0" type="line"/>
    </contour>
    <contour>
      <point x="931" y="249" type="line"/>
      <point x="931" y="434" type="line"/>
      <point x="1552" y="1334" type="line"/>
      <point x="1453" y="1363" type="line"/>
      <point x="1453" y="1500" type="line"/>
      <point x="1837" y="1500" type="line"/>
      <point x="1837" y="1363" type="line"/>
      <point x="1723" y="1334" type="line"/>
      <point x="1356" y="813" type="line"/>
      <point x="1303" y="780" type="line"/>
    </contour>
    <contour>
      <point x="1168" y="635" type="line"/>
      <point x="1506" y="1114" type="line"/>
      <point x="1818" y="160" type="line"/>
      <point x="1880" y="126" type="line"/>
      <point x="1880" y="0" type="line"/>
      <point x="1273" y="0" type="line"/>
      <point x="1273" y="126" type="line"/>
      <point x="1311" y="160" type="line"/>
    </contour>
    <contour>
      <point x="931" y="249" type="line"/>
      <point x="558" y="780" type="line"/>
      <point x="505" y="813" type="line"/>
      <point x="138" y="1334" type="line"/>
      <point x="24" y="1363" type="line"/>
      <point x="24" y="1500" type="line"/>
      <point x="408" y="1500" type="line"/>
      <point x="408" y="1363" type="line"/>
      <point x="309" y="1334" type="line"/>
      <point x="931" y="434" type="line"/>
    </contour>
    <contour>
      <point x="693" y="635" type="line"/>
      <point x="550" y="160" type="line"/>
      <point x="588" y="126" type="line"/>
      <point x="588" y="0" type="line"/>
      <point x="-9" y="0" type="line"/>
      <point x="-9" y="126" type="line"/>
      <point x="53" y="160" type="line"/>
      <point x="365" y="1114" type="line"/>
    </contour>
  </outline>
</glyph>
